{"glyphs":{"0":{"ha":853,"x_min":54,"x_max":799,"o":"m 799 508 q 702 117 799 251 q 428 -18 606 -18 q 152 116 250 -18 q 54 508 54 250 q 152 901 54 767 q 428 1036 250 1036 q 702 901 606 1036 q 799 508 799 767 m 306 508 q 335 275 306 351 q 428 199 365 199 q 518 276 489 199 q 547 508 547 353 q 518 741 547 664 q 428 818 489 818 q 335 743 365 818 q 306 508 306 668 z "},"1":{"ha":853,"x_min":115,"x_max":619,"o":"m 115 618 l 115 840 l 433 1018 l 619 1018 l 619 0 l 379 0 l 379 764 l 115 618 z "},"2":{"ha":853,"x_min":60,"x_max":792,"o":"m 408 206 l 792 206 l 792 0 l 67 0 l 67 154 l 364 489 q 467 618 438 572 q 496 711 496 664 q 469 789 496 758 q 396 819 443 819 q 243 667 290 819 l 60 774 q 194 969 99 901 q 418 1038 290 1038 q 597 996 522 1038 q 708 883 671 954 q 746 724 746 811 q 704 562 746 636 q 556 371 663 488 l 408 206 z "},"3":{"ha":853,"x_min":47,"x_max":781,"o":"m 610 525 q 736 432 692 493 q 781 282 781 371 q 731 119 781 188 q 597 17 682 51 q 408 -18 513 -18 q 181 42 275 -18 q 47 219 88 103 l 233 328 q 299 226 253 261 q 401 192 344 192 q 494 222 457 192 q 531 304 531 251 q 333 422 531 422 l 299 422 l 299 614 l 356 614 q 460 647 422 614 q 499 728 499 679 q 468 799 499 772 q 390 826 438 826 q 297 790 338 826 q 238 689 257 754 l 60 792 q 190 974 96 911 q 413 1038 283 1038 q 588 1001 511 1038 q 708 900 665 965 q 750 750 750 835 q 714 615 750 672 q 610 525 678 557 z "},"4":{"ha":853,"x_min":47,"x_max":843,"o":"m 707 617 l 707 401 l 843 401 l 843 199 l 707 199 l 707 0 l 476 0 l 476 199 l 47 199 l 47 361 l 383 1018 l 629 1018 l 311 401 l 476 401 l 476 617 l 707 617 z "},"5":{"ha":853,"x_min":90,"x_max":785,"o":"m 464 667 q 624 626 551 667 q 741 509 697 585 q 785 332 785 433 q 736 144 785 224 q 604 23 688 64 q 421 -18 521 -18 q 214 36 300 -18 q 90 201 128 90 l 279 313 q 332 222 296 251 q 417 192 368 192 q 503 230 474 192 q 533 325 533 268 q 501 423 533 385 q 408 461 469 461 q 283 381 328 461 l 110 464 l 178 1018 l 736 1018 l 736 818 l 375 818 l 353 649 q 464 667 403 667 z "},"6":{"ha":853,"x_min":61,"x_max":807,"o":"m 478 654 q 649 614 575 654 q 765 500 724 574 q 807 328 807 426 q 756 149 807 228 q 619 26 706 69 q 433 -18 533 -18 q 247 26 332 -18 q 111 153 161 71 q 61 342 61 235 q 91 496 61 422 q 201 694 121 569 l 408 1018 l 663 1018 l 471 728 q 413 647 424 661 q 478 654 447 654 m 432 193 q 521 231 486 193 q 556 328 556 268 q 521 422 556 386 q 432 458 486 458 q 342 422 376 458 q 307 326 307 385 q 342 231 307 268 q 432 193 378 193 z "},"7":{"ha":853,"x_min":74,"x_max":778,"o":"m 513 811 l 74 811 l 74 1018 l 778 1018 l 778 869 l 439 0 l 182 0 l 513 811 z "},"8":{"ha":853,"x_min":53,"x_max":801,"o":"m 639 553 q 758 450 715 515 q 801 293 801 385 q 756 131 801 201 q 627 21 711 60 q 431 -18 543 -18 q 230 22 315 -18 q 99 131 144 61 q 53 293 53 201 q 97 450 53 385 q 217 551 140 515 q 122 636 156 583 q 88 758 88 689 q 127 899 88 835 q 244 1000 167 963 q 431 1038 322 1038 q 613 1001 539 1038 q 724 901 688 964 q 761 758 761 838 q 729 636 761 689 q 639 553 697 583 m 431 842 q 360 814 386 842 q 333 744 333 786 q 360 676 333 703 q 431 649 386 649 q 501 676 474 649 q 529 744 529 703 q 501 813 529 785 q 431 842 474 842 m 431 192 q 517 226 483 192 q 551 319 551 261 q 519 413 551 378 q 431 449 486 449 q 339 413 374 449 q 304 319 304 378 q 340 226 304 261 q 431 192 375 192 z "},"9":{"ha":853,"x_min":49,"x_max":793,"o":"m 421 1038 q 608 993 522 1038 q 743 867 693 949 q 793 678 793 785 q 763 523 793 596 q 653 325 733 450 l 446 1 l 192 1 l 385 292 q 442 372 406 324 q 376 365 407 365 q 205 406 279 365 q 90 519 131 446 q 49 692 49 593 q 99 871 49 792 q 235 994 150 950 q 421 1038 321 1038 m 424 561 q 513 598 478 561 q 547 693 547 635 q 513 789 547 751 q 424 826 478 826 q 333 789 368 826 q 299 692 299 751 q 333 597 299 633 q 424 561 368 561 z "},"\u0000":{"ha":833,"x_min":0,"x_max":0,"o":""}," ":{"ha":375,"x_min":0,"x_max":0,"o":""},"A":{"ha":1040,"x_min":8,"x_max":1032,"o":"m 619 1017 l 1032 0 l 782 0 l 704 206 l 319 206 l 244 0 l 8 0 l 410 1017 l 619 1017 m 629 404 l 508 721 l 393 404 l 629 404 z "},"Á":{"ha":1040,"x_min":8,"x_max":1032,"o":"m 446 1104 l 582 1289 l 814 1289 l 628 1104 l 446 1104 m 619 1017 l 1032 0 l 782 0 l 704 206 l 319 206 l 244 0 l 8 0 l 410 1017 l 619 1017 m 629 404 l 508 721 l 393 404 l 629 404 z "},"Ă":{"ha":1040,"x_min":8,"x_max":1032,"o":"m 531 1101 q 342 1152 413 1101 q 271 1289 271 1203 l 442 1289 q 531 1208 453 1208 q 621 1289 613 1208 l 792 1289 q 721 1151 792 1201 q 531 1101 650 1101 m 619 1017 l 1032 0 l 782 0 l 704 206 l 319 206 l 244 0 l 8 0 l 410 1017 l 619 1017 m 629 404 l 508 721 l 393 404 l 629 404 z "},"Ắ":{"ha":1040,"x_min":8,"x_max":1032,"o":"m 446 1197 l 582 1289 l 814 1289 l 628 1197 l 446 1197 m 531 1074 q 342 1099 414 1074 q 271 1167 271 1124 l 442 1167 q 531 1139 453 1139 q 621 1167 611 1139 l 792 1167 q 721 1099 792 1124 q 531 1074 650 1074 m 619 1017 l 1032 0 l 782 0 l 704 206 l 319 206 l 244 0 l 8 0 l 410 1017 l 619 1017 m 629 404 l 508 721 l 393 404 l 629 404 z "},"Ặ":{"ha":1040,"x_min":8,"x_max":1032,"o":"m 531 1101 q 342 1152 413 1101 q 271 1289 271 1203 l 442 1289 q 531 1207 453 1207 q 621 1289 611 1207 l 792 1289 q 721 1151 792 1201 q 531 1101 650 1101 m 619 1017 l 1032 0 l 782 0 l 704 206 l 319 206 l 244 0 l 8 0 l 410 1017 l 619 1017 m 629 404 l 508 721 l 393 404 l 629 404 m 529 -331 q 436 -292 475 -331 q 397 -201 397 -254 q 436 -110 397 -149 q 529 -72 475 -72 q 622 -111 582 -72 q 661 -201 661 -150 q 622 -292 661 -254 q 529 -331 583 -331 z "},"Ằ":{"ha":1040,"x_min":8,"x_max":1032,"o":"m 247 1289 l 479 1289 l 615 1197 l 433 1197 l 247 1289 m 531 1074 q 342 1099 414 1074 q 271 1167 271 1124 l 442 1167 q 531 1139 453 1139 q 621 1167 611 1139 l 792 1167 q 721 1099 792 1124 q 531 1074 650 1074 m 619 1017 l 1032 0 l 782 0 l 704 206 l 319 206 l 244 0 l 8 0 l 410 1017 l 619 1017 m 629 404 l 508 721 l 393 404 l 629 404 z "},"Ẳ":{"ha":1040,"x_min":8,"x_max":1032,"o":"m 346 1271 q 506 1288 415 1288 q 642 1274 588 1288 q 696 1236 696 1261 q 519 1169 696 1190 l 450 1208 q 547 1224 547 1215 q 532 1231 547 1228 q 492 1233 517 1233 q 375 1222 438 1233 l 346 1271 m 531 1074 q 342 1097 413 1074 q 271 1161 271 1121 l 442 1161 q 531 1135 453 1135 q 621 1161 613 1135 l 792 1161 q 721 1097 792 1121 q 531 1074 650 1074 m 619 1017 l 1032 0 l 782 0 l 704 206 l 319 206 l 244 0 l 8 0 l 410 1017 l 619 1017 m 629 404 l 508 721 l 393 404 l 629 404 z "},"Ẵ":{"ha":1040,"x_min":8,"x_max":1032,"o":"m 247 1203 q 300 1265 250 1240 q 429 1289 350 1289 q 507 1283 478 1289 q 568 1265 536 1276 q 588 1259 572 1264 q 618 1254 603 1254 q 667 1281 654 1254 l 814 1281 q 761 1217 811 1242 q 632 1193 711 1193 q 554 1199 583 1193 q 493 1217 525 1206 q 443 1229 461 1229 q 394 1203 410 1229 l 247 1203 m 531 1074 q 342 1099 414 1074 q 271 1167 271 1124 l 442 1167 q 531 1138 453 1138 q 621 1167 613 1138 l 792 1167 q 721 1099 792 1124 q 531 1074 650 1074 m 619 1017 l 1032 0 l 782 0 l 704 206 l 319 206 l 244 0 l 8 0 l 410 1017 l 619 1017 m 629 404 l 508 721 l 393 404 l 629 404 z "},"Ǎ":{"ha":1040,"x_min":8,"x_max":1032,"o":"m 444 1289 l 531 1203 l 615 1289 l 804 1289 l 614 1103 l 446 1103 l 256 1289 l 444 1289 m 619 1017 l 1032 0 l 782 0 l 704 206 l 319 206 l 244 0 l 8 0 l 410 1017 l 619 1017 m 629 404 l 508 721 l 393 404 l 629 404 z "},"Â":{"ha":1040,"x_min":8,"x_max":1032,"o":"m 446 1289 l 614 1289 l 804 1103 l 615 1103 l 531 1189 l 444 1103 l 256 1103 l 446 1289 m 619 1017 l 1032 0 l 782 0 l 704 206 l 319 206 l 244 0 l 8 0 l 410 1017 l 619 1017 m 629 404 l 508 721 l 393 404 l 629 404 z "},"Ấ":{"ha":1040,"x_min":8,"x_max":1032,"o":"m 653 1190 l 789 1289 l 1021 1289 l 835 1190 l 653 1190 m 446 1175 l 614 1175 l 804 1075 l 606 1075 l 531 1115 l 454 1075 l 256 1075 l 446 1175 m 619 1017 l 1032 0 l 782 0 l 704 206 l 319 206 l 244 0 l 8 0 l 410 1017 l 619 1017 m 629 404 l 508 721 l 393 404 l 629 404 z "},"Ậ":{"ha":1040,"x_min":8,"x_max":1032,"o":"m 446 1289 l 614 1289 l 804 1103 l 615 1103 l 531 1189 l 444 1103 l 256 1103 l 446 1289 m 619 1017 l 1032 0 l 782 0 l 704 206 l 319 206 l 244 0 l 8 0 l 410 1017 l 619 1017 m 629 404 l 508 721 l 393 404 l 629 404 m 529 -331 q 436 -292 475 -331 q 397 -201 397 -254 q 436 -110 397 -149 q 529 -72 475 -72 q 622 -111 582 -72 q 661 -201 661 -150 q 622 -292 661 -254 q 529 -331 583 -331 z "},"Ầ":{"ha":1040,"x_min":8,"x_max":1032,"o":"m 454 1289 l 686 1289 l 822 1190 l 640 1190 l 454 1289 m 446 1175 l 614 1175 l 804 1075 l 614 1075 l 531 1119 l 446 1075 l 256 1075 l 446 1175 m 619 1017 l 1032 0 l 782 0 l 704 206 l 319 206 l 244 0 l 8 0 l 410 1017 l 619 1017 m 629 404 l 508 721 l 393 404 l 629 404 z "},"Ẩ":{"ha":1040,"x_min":8,"x_max":1032,"o":"m 553 1271 q 713 1289 618 1289 q 849 1274 794 1289 q 903 1232 903 1260 q 725 1160 903 1181 l 656 1201 q 731 1210 708 1206 q 754 1219 754 1214 q 738 1226 754 1222 q 699 1229 722 1229 q 582 1218 644 1229 l 553 1271 m 446 1171 l 614 1171 l 804 1075 l 606 1075 l 531 1113 l 454 1075 l 256 1075 l 446 1171 m 619 1017 l 1032 0 l 782 0 l 704 206 l 319 206 l 244 0 l 8 0 l 410 1017 l 619 1017 m 629 404 l 508 721 l 393 404 l 629 404 z "},"Ẫ":{"ha":1040,"x_min":8,"x_max":1032,"o":"m 247 1199 q 300 1264 250 1239 q 429 1289 350 1289 q 507 1283 478 1289 q 568 1265 536 1276 q 618 1253 600 1253 q 667 1279 654 1253 l 814 1279 q 762 1214 811 1239 q 632 1189 713 1189 q 554 1195 583 1189 q 493 1213 525 1201 q 443 1225 461 1225 q 394 1199 408 1225 l 247 1199 m 446 1174 l 614 1174 l 804 1075 l 606 1075 l 531 1114 l 454 1075 l 256 1075 l 446 1174 m 619 1017 l 1032 0 l 782 0 l 704 206 l 319 206 l 244 0 l 8 0 l 410 1017 l 619 1017 m 629 404 l 508 721 l 393 404 l 629 404 z "},"Ä":{"ha":1040,"x_min":8,"x_max":1032,"o":"m 367 1051 q 286 1086 319 1051 q 253 1169 253 1121 q 286 1253 253 1218 q 367 1289 319 1289 q 450 1254 417 1289 q 483 1169 483 1219 q 450 1086 483 1121 q 367 1051 417 1051 m 690 1051 q 609 1087 642 1051 q 576 1169 576 1122 q 609 1254 576 1219 q 690 1289 642 1289 q 773 1253 739 1289 q 807 1169 807 1218 q 773 1086 807 1121 q 690 1051 739 1051 m 619 1017 l 1032 0 l 782 0 l 704 206 l 319 206 l 244 0 l 8 0 l 410 1017 l 619 1017 m 629 404 l 508 721 l 393 404 l 629 404 z "},"Ạ":{"ha":1040,"x_min":8,"x_max":1032,"o":"m 619 1017 l 1032 0 l 782 0 l 704 206 l 319 206 l 244 0 l 8 0 l 410 1017 l 619 1017 m 629 404 l 508 721 l 393 404 l 629 404 m 529 -331 q 436 -292 475 -331 q 397 -201 397 -254 q 436 -110 397 -149 q 529 -72 475 -72 q 622 -111 582 -72 q 661 -201 661 -150 q 622 -292 661 -254 q 529 -331 583 -331 z "},"À":{"ha":1040,"x_min":8,"x_max":1032,"o":"m 247 1289 l 479 1289 l 615 1104 l 433 1104 l 247 1289 m 619 1017 l 1032 0 l 782 0 l 704 206 l 319 206 l 244 0 l 8 0 l 410 1017 l 619 1017 m 629 404 l 508 721 l 393 404 l 629 404 z "},"Ả":{"ha":1040,"x_min":8,"x_max":1032,"o":"m 346 1258 q 419 1281 376 1272 q 506 1289 461 1289 q 642 1264 588 1289 q 696 1189 696 1239 q 519 1064 696 1103 l 446 1136 q 515 1156 492 1146 q 539 1178 539 1165 q 524 1195 539 1189 q 485 1201 510 1201 q 375 1175 432 1201 l 346 1258 m 619 1017 l 1032 0 l 782 0 l 704 206 l 319 206 l 244 0 l 8 0 l 410 1017 l 619 1017 m 629 404 l 508 721 l 393 404 l 629 404 z "},"Ā":{"ha":1040,"x_min":8,"x_max":1032,"o":"m 286 1143 l 286 1288 l 775 1288 l 775 1143 l 286 1143 m 619 1017 l 1032 0 l 782 0 l 704 206 l 319 206 l 244 0 l 8 0 l 410 1017 l 619 1017 m 629 404 l 508 721 l 393 404 l 629 404 z "},"Ą":{"ha":1040,"x_min":8,"x_max":1124,"o":"m 1124 -267 q 1040 -322 1085 -304 q 931 -339 994 -339 q 786 -301 842 -339 q 731 -185 731 -262 q 835 0 731 -83 l 782 0 l 704 206 l 319 206 l 244 0 l 8 0 l 410 1017 l 619 1017 l 1032 0 q 919 -79 956 -43 q 883 -154 883 -115 q 901 -199 883 -185 q 950 -214 919 -214 q 1051 -165 1004 -214 l 1124 -267 m 508 721 l 393 404 l 629 404 l 508 721 z "},"Å":{"ha":1040,"x_min":8,"x_max":1032,"o":"m 354 1188 q 405 1260 354 1231 q 531 1289 456 1289 q 654 1260 606 1289 q 703 1188 703 1232 q 654 1113 703 1142 q 531 1085 606 1085 q 405 1113 456 1085 q 354 1188 354 1142 m 469 1188 q 486 1159 469 1169 q 531 1149 503 1149 q 573 1159 557 1149 q 589 1188 589 1169 q 573 1215 589 1204 q 531 1225 557 1225 q 487 1214 504 1225 q 469 1188 469 1203 m 619 1017 l 1032 0 l 782 0 l 704 206 l 319 206 l 244 0 l 8 0 l 410 1017 l 619 1017 m 629 404 l 508 721 l 393 404 l 629 404 z "},"Ǻ":{"ha":1040,"x_min":8,"x_max":1032,"o":"m 438 1210 l 557 1289 l 774 1289 l 611 1210 l 438 1210 m 369 1121 q 414 1169 369 1150 q 531 1188 458 1188 q 646 1169 603 1188 q 689 1121 689 1150 q 646 1074 689 1092 q 531 1056 603 1056 q 415 1074 460 1056 q 369 1121 369 1093 m 475 1121 q 489 1108 475 1113 q 529 1103 503 1103 q 569 1108 554 1103 q 583 1121 583 1114 q 569 1135 583 1129 q 529 1140 554 1140 q 489 1135 503 1140 q 475 1121 475 1129 m 619 1017 l 1032 0 l 782 0 l 704 206 l 319 206 l 244 0 l 8 0 l 410 1017 l 619 1017 m 629 404 l 508 721 l 393 404 l 629 404 z "},"Ḁ":{"ha":1040,"x_min":8,"x_max":1032,"o":"m 619 1017 l 1032 0 l 782 0 l 704 206 l 319 206 l 244 0 l 8 0 l 410 1017 l 619 1017 m 629 404 l 508 721 l 393 404 l 629 404 m 353 -183 q 403 -71 353 -114 q 528 -28 453 -28 q 651 -71 603 -28 q 700 -183 700 -114 q 651 -297 700 -254 q 528 -339 603 -339 q 403 -297 453 -339 q 353 -183 353 -254 m 468 -183 q 484 -222 468 -207 q 528 -236 500 -236 q 570 -222 554 -236 q 586 -183 586 -207 q 570 -145 586 -160 q 528 -131 554 -131 q 484 -145 500 -131 q 468 -183 468 -160 z "},"Ã":{"ha":1040,"x_min":8,"x_max":1032,"o":"m 247 1118 q 300 1241 250 1193 q 429 1289 350 1289 q 508 1275 478 1289 q 568 1238 539 1261 q 596 1218 586 1224 q 618 1213 606 1213 q 667 1271 653 1213 l 814 1271 q 761 1148 811 1196 q 632 1100 711 1100 q 553 1114 583 1100 q 493 1151 522 1128 q 465 1171 475 1165 q 443 1176 456 1176 q 394 1118 408 1176 l 247 1118 m 619 1017 l 1032 0 l 782 0 l 704 206 l 319 206 l 244 0 l 8 0 l 410 1017 l 619 1017 m 629 404 l 508 721 l 393 404 l 629 404 z "},"Æ":{"ha":1490,"x_min":1,"x_max":1435,"o":"m 1372 410 l 975 410 l 975 206 l 1435 206 l 1435 0 l 738 0 l 738 207 l 393 207 l 268 0 l 1 0 l 656 1017 l 1418 1017 l 1418 813 l 975 813 l 975 613 l 1372 613 l 1372 410 m 738 406 l 738 778 l 513 406 l 738 406 z "},"Ǽ":{"ha":1490,"x_min":1,"x_max":1435,"o":"m 835 1106 l 971 1289 l 1203 1289 l 1017 1106 l 835 1106 m 1372 410 l 975 410 l 975 206 l 1435 206 l 1435 0 l 738 0 l 738 207 l 393 207 l 268 0 l 1 0 l 656 1017 l 1418 1017 l 1418 813 l 975 813 l 975 613 l 1372 613 l 1372 410 m 738 406 l 738 778 l 513 406 l 738 406 z "},"B":{"ha":963,"x_min":100,"x_max":915,"o":"m 757 526 q 915 296 915 463 q 811 78 915 157 q 525 0 707 0 l 100 0 l 100 1017 l 490 1017 q 760 943 654 1017 q 865 729 865 869 q 757 526 865 593 m 332 813 l 332 613 l 471 613 q 579 642 539 613 q 619 719 619 671 q 581 789 619 765 q 471 813 542 813 l 332 813 m 511 206 q 628 233 586 206 q 669 310 669 260 q 627 388 669 360 q 510 417 585 417 l 332 417 l 332 206 l 511 206 z "},"C":{"ha":965,"x_min":53,"x_max":944,"o":"m 546 200 q 746 344 683 200 l 944 228 q 868 105 922 161 q 733 15 814 49 q 551 -18 651 -18 q 300 47 414 -18 q 119 233 186 113 q 53 510 53 353 q 119 786 53 667 q 300 971 186 906 q 551 1036 414 1036 q 733 1003 651 1036 q 868 913 814 969 q 944 790 922 857 l 746 674 q 546 818 683 818 q 423 781 478 818 q 335 674 368 744 q 303 510 303 604 q 335 344 303 415 q 423 237 368 274 q 546 200 478 200 z "},"Ć":{"ha":965,"x_min":53,"x_max":944,"o":"m 428 1104 l 564 1289 l 796 1289 l 610 1104 l 428 1104 m 546 200 q 746 344 683 200 l 944 228 q 868 105 922 161 q 733 15 814 49 q 551 -18 651 -18 q 300 47 414 -18 q 119 233 186 113 q 53 510 53 353 q 119 786 53 667 q 300 971 186 906 q 551 1036 414 1036 q 733 1003 651 1036 q 868 913 814 969 q 944 790 922 857 l 746 674 q 546 818 683 818 q 423 781 478 818 q 335 674 368 744 q 303 510 303 604 q 335 344 303 415 q 423 237 368 274 q 546 200 478 200 z "},"Č":{"ha":965,"x_min":53,"x_max":944,"o":"m 426 1289 l 513 1203 l 599 1289 l 786 1289 l 596 1103 l 429 1103 l 239 1289 l 426 1289 m 546 200 q 746 344 683 200 l 944 228 q 868 105 922 161 q 733 15 814 49 q 551 -18 651 -18 q 300 47 414 -18 q 119 233 186 113 q 53 510 53 353 q 119 786 53 667 q 300 971 186 906 q 551 1036 414 1036 q 733 1003 651 1036 q 868 913 814 969 q 944 790 922 857 l 746 674 q 546 818 683 818 q 423 781 478 818 q 335 674 368 744 q 303 510 303 604 q 335 344 303 415 q 423 237 368 274 q 546 200 478 200 z "},"Ç":{"ha":965,"x_min":53,"x_max":944,"o":"m 546 200 q 746 344 683 200 l 944 228 q 821 65 913 133 q 599 -15 729 -4 l 569 -79 q 679 -112 636 -81 q 722 -203 722 -144 q 661 -306 722 -272 q 514 -339 600 -339 q 397 -322 457 -339 l 397 -218 q 507 -235 454 -235 q 556 -228 538 -235 q 574 -206 574 -221 q 556 -182 574 -190 q 507 -174 538 -174 q 426 -186 471 -174 l 413 -115 l 461 -10 q 252 80 344 11 q 106 260 160 149 q 53 510 53 371 q 119 786 53 667 q 300 971 186 906 q 551 1036 414 1036 q 733 1003 651 1036 q 868 913 814 969 q 944 790 922 857 l 746 674 q 546 818 683 818 q 423 781 478 818 q 335 674 368 744 q 303 510 303 604 q 335 344 303 415 q 423 237 368 274 q 546 200 478 200 z "},"Ĉ":{"ha":965,"x_min":53,"x_max":944,"o":"m 429 1289 l 596 1289 l 786 1103 l 599 1103 l 513 1189 l 426 1103 l 239 1103 l 429 1289 m 546 200 q 746 344 683 200 l 944 228 q 868 105 922 161 q 733 15 814 49 q 551 -18 651 -18 q 300 47 414 -18 q 119 233 186 113 q 53 510 53 353 q 119 786 53 667 q 300 971 186 906 q 551 1036 414 1036 q 733 1003 651 1036 q 868 913 814 969 q 944 790 922 857 l 746 674 q 546 818 683 818 q 423 781 478 818 q 335 674 368 744 q 303 510 303 604 q 335 344 303 415 q 423 237 368 274 q 546 200 478 200 z "},"Ċ":{"ha":965,"x_min":53,"x_max":944,"o":"m 511 1096 q 431 1124 464 1096 q 399 1193 399 1153 q 432 1260 399 1232 q 511 1289 465 1289 q 595 1260 561 1289 q 629 1193 629 1232 q 595 1124 629 1153 q 511 1096 561 1096 m 546 200 q 746 344 683 200 l 944 228 q 868 105 922 161 q 733 15 814 49 q 551 -18 651 -18 q 300 47 414 -18 q 119 233 186 113 q 53 510 53 353 q 119 786 53 667 q 300 971 186 906 q 551 1036 414 1036 q 733 1003 651 1036 q 868 913 814 969 q 944 790 922 857 l 746 674 q 546 818 683 818 q 423 781 478 818 q 335 674 368 744 q 303 510 303 604 q 335 344 303 415 q 423 237 368 274 q 546 200 478 200 z "},"D":{"ha":1051,"x_min":100,"x_max":997,"o":"m 467 1017 q 736 957 615 1017 q 927 783 857 897 q 997 510 997 668 q 927 236 997 351 q 737 60 857 121 q 467 0 617 0 l 100 0 l 100 1017 l 467 1017 m 440 200 q 669 281 592 200 q 747 510 747 361 q 669 737 747 657 q 440 817 590 817 l 338 817 l 338 200 l 440 200 z "},"Ð":{"ha":1096,"x_min":29,"x_max":1042,"o":"m 511 1017 q 781 957 660 1017 q 972 783 901 897 q 1042 510 1042 668 q 972 236 1042 351 q 781 60 901 121 q 511 0 661 0 l 144 0 l 144 413 l 29 413 l 29 624 l 144 624 l 144 1017 l 511 1017 m 485 200 q 714 280 636 200 q 792 510 792 360 q 713 737 792 657 q 485 817 635 817 l 382 817 l 382 624 l 553 624 l 553 413 l 382 413 l 382 200 l 485 200 z "},"Ď":{"ha":1051,"x_min":100,"x_max":997,"o":"m 358 1289 l 444 1203 l 531 1289 l 718 1289 l 528 1103 l 361 1103 l 171 1289 l 358 1289 m 467 1017 q 736 957 615 1017 q 927 783 857 897 q 997 510 997 668 q 927 236 997 351 q 737 60 857 121 q 467 0 617 0 l 100 0 l 100 1017 l 467 1017 m 440 200 q 669 281 592 200 q 747 510 747 361 q 669 737 747 657 q 440 817 590 817 l 338 817 l 338 200 l 440 200 z "},"Đ":{"ha":1096,"x_min":29,"x_max":1042,"o":"m 511 1017 q 781 957 660 1017 q 972 783 901 897 q 1042 510 1042 668 q 972 236 1042 351 q 781 60 901 121 q 511 0 661 0 l 144 0 l 144 413 l 29 413 l 29 624 l 144 624 l 144 1017 l 511 1017 m 485 200 q 714 280 636 200 q 792 510 792 360 q 713 737 792 657 q 485 817 635 817 l 382 817 l 382 624 l 553 624 l 553 413 l 382 413 l 382 200 l 485 200 z "},"E":{"ha":853,"x_min":100,"x_max":797,"o":"m 735 410 l 338 410 l 338 206 l 797 206 l 797 0 l 100 0 l 100 1017 l 781 1017 l 781 813 l 338 813 l 338 613 l 735 613 l 735 410 z "},"É":{"ha":853,"x_min":100,"x_max":797,"o":"m 351 1104 l 488 1289 l 718 1289 l 533 1104 l 351 1104 m 735 410 l 338 410 l 338 206 l 797 206 l 797 0 l 100 0 l 100 1017 l 781 1017 l 781 813 l 338 813 l 338 613 l 735 613 l 735 410 z "},"Ĕ":{"ha":853,"x_min":100,"x_max":797,"o":"m 436 1101 q 247 1152 318 1101 q 176 1289 176 1203 l 347 1289 q 436 1208 356 1208 q 526 1289 515 1208 l 696 1289 q 626 1151 696 1201 q 436 1101 556 1101 m 735 410 l 338 410 l 338 206 l 797 206 l 797 0 l 100 0 l 100 1017 l 781 1017 l 781 813 l 338 813 l 338 613 l 735 613 l 735 410 z "},"Ě":{"ha":853,"x_min":100,"x_max":797,"o":"m 349 1289 l 436 1203 l 521 1289 l 710 1289 l 518 1103 l 351 1103 l 161 1289 l 349 1289 m 735 410 l 338 410 l 338 206 l 797 206 l 797 0 l 100 0 l 100 1017 l 781 1017 l 781 813 l 338 813 l 338 613 l 735 613 l 735 410 z "},"Ê":{"ha":853,"x_min":100,"x_max":797,"o":"m 351 1289 l 518 1289 l 710 1103 l 521 1103 l 436 1189 l 349 1103 l 161 1103 l 351 1289 m 735 410 l 338 410 l 338 206 l 797 206 l 797 0 l 100 0 l 100 1017 l 781 1017 l 781 813 l 338 813 l 338 613 l 735 613 l 735 410 z "},"Ế":{"ha":853,"x_min":100,"x_max":925,"o":"m 558 1190 l 694 1289 l 925 1289 l 739 1190 l 558 1190 m 351 1175 l 518 1175 l 710 1075 l 511 1075 l 436 1115 l 360 1075 l 161 1075 l 351 1175 m 735 410 l 338 410 l 338 206 l 797 206 l 797 0 l 100 0 l 100 1017 l 781 1017 l 781 813 l 338 813 l 338 613 l 735 613 l 735 410 z "},"Ệ":{"ha":853,"x_min":100,"x_max":797,"o":"m 351 1289 l 518 1289 l 710 1103 l 521 1103 l 436 1189 l 349 1103 l 161 1103 l 351 1289 m 735 410 l 338 410 l 338 206 l 797 206 l 797 0 l 100 0 l 100 1017 l 781 1017 l 781 813 l 338 813 l 338 613 l 735 613 l 735 410 m 436 -331 q 344 -292 382 -331 q 306 -201 306 -254 q 344 -110 306 -149 q 436 -72 382 -72 q 528 -111 489 -72 q 568 -201 568 -150 q 529 -292 568 -254 q 436 -331 490 -331 z "},"Ề":{"ha":853,"x_min":100,"x_max":797,"o":"m 360 1289 l 592 1289 l 728 1190 l 546 1190 l 360 1289 m 351 1175 l 518 1175 l 710 1075 l 519 1075 l 436 1119 l 351 1075 l 161 1075 l 351 1175 m 735 410 l 338 410 l 338 206 l 797 206 l 797 0 l 100 0 l 100 1017 l 781 1017 l 781 813 l 338 813 l 338 613 l 735 613 l 735 410 z "},"Ể":{"ha":868,"x_min":100,"x_max":807,"o":"m 458 1271 q 617 1289 524 1289 q 753 1274 699 1289 q 807 1232 807 1260 q 631 1160 807 1181 l 561 1201 q 637 1210 614 1207 q 660 1219 660 1214 q 644 1226 660 1222 q 603 1229 628 1229 q 488 1218 550 1229 l 458 1271 m 351 1171 l 518 1171 l 710 1075 l 511 1075 l 436 1113 l 360 1075 l 161 1075 l 351 1171 m 735 410 l 338 410 l 338 206 l 797 206 l 797 0 l 100 0 l 100 1017 l 781 1017 l 781 813 l 338 813 l 338 613 l 735 613 l 735 410 z "},"Ễ":{"ha":853,"x_min":100,"x_max":797,"o":"m 161 1199 q 214 1264 164 1239 q 343 1289 264 1289 q 421 1283 392 1289 q 482 1265 450 1276 q 532 1253 514 1253 q 581 1279 568 1253 l 728 1279 q 676 1214 725 1239 q 546 1189 626 1189 q 468 1195 497 1189 q 407 1213 439 1201 q 357 1225 375 1225 q 308 1199 322 1225 l 161 1199 m 360 1174 l 528 1174 l 718 1075 l 519 1075 l 444 1114 l 368 1075 l 169 1075 l 360 1174 m 735 410 l 338 410 l 338 206 l 797 206 l 797 0 l 100 0 l 100 1017 l 781 1017 l 781 813 l 338 813 l 338 613 l 735 613 l 735 410 z "},"Ë":{"ha":853,"x_min":100,"x_max":797,"o":"m 272 1096 q 192 1124 225 1096 q 158 1193 158 1153 q 192 1260 158 1232 q 272 1289 225 1289 q 355 1260 321 1289 q 389 1193 389 1232 q 356 1124 389 1153 q 272 1096 322 1096 m 596 1096 q 514 1125 547 1096 q 481 1193 481 1154 q 514 1260 481 1232 q 596 1289 547 1289 q 678 1260 643 1289 q 713 1193 713 1232 q 678 1124 713 1153 q 596 1096 643 1096 m 735 410 l 338 410 l 338 206 l 797 206 l 797 0 l 100 0 l 100 1017 l 781 1017 l 781 813 l 338 813 l 338 613 l 735 613 l 735 410 z "},"Ė":{"ha":853,"x_min":100,"x_max":797,"o":"m 435 1096 q 354 1124 388 1096 q 321 1193 321 1153 q 354 1260 321 1232 q 435 1289 388 1289 q 517 1260 483 1289 q 551 1193 551 1232 q 518 1124 551 1153 q 435 1096 485 1096 m 735 410 l 338 410 l 338 206 l 797 206 l 797 0 l 100 0 l 100 1017 l 781 1017 l 781 813 l 338 813 l 338 613 l 735 613 l 735 410 z "},"Ẹ":{"ha":853,"x_min":100,"x_max":797,"o":"m 735 410 l 338 410 l 338 206 l 797 206 l 797 0 l 100 0 l 100 1017 l 781 1017 l 781 813 l 338 813 l 338 613 l 735 613 l 735 410 m 436 -331 q 344 -292 382 -331 q 306 -201 306 -254 q 344 -110 306 -149 q 436 -72 382 -72 q 528 -111 489 -72 q 568 -201 568 -150 q 529 -292 568 -254 q 436 -331 490 -331 z "},"È":{"ha":853,"x_min":100,"x_max":797,"o":"m 153 1289 l 385 1289 l 521 1104 l 339 1104 l 153 1289 m 735 410 l 338 410 l 338 206 l 797 206 l 797 0 l 100 0 l 100 1017 l 781 1017 l 781 813 l 338 813 l 338 613 l 735 613 l 735 410 z "},"Ẻ":{"ha":853,"x_min":100,"x_max":797,"o":"m 251 1258 q 410 1289 315 1289 q 547 1264 493 1289 q 600 1189 600 1239 q 424 1064 600 1101 l 350 1136 q 419 1156 396 1146 q 443 1178 443 1165 q 429 1195 443 1189 q 390 1201 415 1201 q 281 1175 338 1201 l 251 1258 m 735 410 l 338 410 l 338 206 l 797 206 l 797 0 l 100 0 l 100 1017 l 781 1017 l 781 813 l 338 813 l 338 613 l 735 613 l 735 410 z "},"Ē":{"ha":853,"x_min":100,"x_max":797,"o":"m 192 1142 l 192 1288 l 681 1288 l 681 1142 l 192 1142 m 735 410 l 338 410 l 338 206 l 797 206 l 797 0 l 100 0 l 100 1017 l 781 1017 l 781 813 l 338 813 l 338 613 l 735 613 l 735 410 z "},"Ę":{"ha":853,"x_min":100,"x_max":888,"o":"m 888 -267 q 805 -321 850 -303 q 696 -339 760 -339 q 550 -301 606 -339 q 494 -185 494 -262 q 600 0 494 -85 l 100 0 l 100 1017 l 781 1017 l 781 813 l 338 813 l 338 613 l 735 613 l 735 410 l 338 410 l 338 206 l 797 206 l 797 0 q 684 -78 721 -42 q 647 -156 647 -115 q 665 -200 647 -185 q 714 -215 683 -215 q 817 -165 767 -215 l 888 -267 z "},"Ẽ":{"ha":853,"x_min":100,"x_max":797,"o":"m 153 1117 q 205 1241 156 1193 q 335 1289 254 1289 q 412 1275 382 1289 q 474 1238 442 1261 q 501 1218 492 1224 q 524 1213 511 1213 q 571 1271 560 1213 l 719 1271 q 667 1148 717 1196 q 536 1100 617 1100 q 458 1114 489 1100 q 399 1151 428 1128 q 371 1170 382 1164 q 347 1176 360 1176 q 300 1117 313 1176 l 153 1117 m 735 410 l 338 410 l 338 206 l 797 206 l 797 0 l 100 0 l 100 1017 l 781 1017 l 781 813 l 338 813 l 338 613 l 735 613 l 735 410 z "},"F":{"ha":813,"x_min":100,"x_max":781,"o":"m 100 1017 l 781 1017 l 781 810 l 338 810 l 338 588 l 735 588 l 735 382 l 338 382 l 338 0 l 100 0 l 100 1017 z "},"G":{"ha":1017,"x_min":53,"x_max":964,"o":"m 550 376 l 550 579 l 961 579 l 961 157 q 805 28 913 75 q 568 -18 697 -18 q 299 49 417 -18 q 117 235 182 115 q 53 510 53 356 q 120 787 53 667 q 304 972 188 907 q 565 1036 421 1036 q 749 1004 667 1036 q 887 918 832 972 q 964 797 942 864 l 767 683 q 685 785 738 749 q 561 821 633 821 q 428 783 488 821 q 333 676 368 746 q 299 510 299 606 q 376 280 299 364 q 582 196 453 196 q 731 247 679 196 l 731 376 l 550 376 z "},"Ğ":{"ha":1017,"x_min":53,"x_max":964,"o":"m 554 1103 q 365 1152 436 1103 q 294 1288 294 1201 l 465 1288 q 554 1207 476 1207 q 644 1288 636 1207 l 815 1288 q 744 1152 815 1201 q 554 1103 674 1103 m 550 376 l 550 579 l 961 579 l 961 157 q 805 28 913 75 q 568 -18 697 -18 q 299 49 417 -18 q 117 235 182 115 q 53 510 53 356 q 120 787 53 667 q 304 972 188 907 q 565 1036 421 1036 q 749 1004 667 1036 q 887 918 832 972 q 964 797 942 864 l 767 683 q 685 785 738 749 q 561 821 633 821 q 428 783 488 821 q 333 676 368 746 q 299 510 299 606 q 376 280 299 364 q 582 196 453 196 q 731 247 679 196 l 731 376 l 550 376 z "},"Ĝ":{"ha":1017,"x_min":53,"x_max":964,"o":"m 469 1289 l 638 1289 l 828 1104 l 639 1104 l 554 1189 l 468 1104 l 279 1104 l 469 1289 m 550 376 l 550 579 l 961 579 l 961 157 q 805 28 913 75 q 568 -18 697 -18 q 299 49 417 -18 q 117 235 182 115 q 53 510 53 356 q 120 787 53 667 q 304 972 188 907 q 565 1036 421 1036 q 749 1004 667 1036 q 887 918 832 972 q 964 797 942 864 l 767 683 q 685 785 738 749 q 561 821 633 821 q 428 783 488 821 q 333 676 368 746 q 299 510 299 606 q 376 280 299 364 q 582 196 453 196 q 731 247 679 196 l 731 376 l 550 376 z "},"Ģ":{"ha":1017,"x_min":53,"x_max":964,"o":"m 731 376 l 550 376 l 550 579 l 961 579 l 961 157 q 805 28 913 75 q 568 -18 697 -18 q 299 49 417 -18 q 117 235 182 115 q 53 510 53 356 q 120 787 53 667 q 304 972 188 907 q 565 1036 421 1036 q 749 1004 667 1036 q 887 918 832 972 q 964 797 942 864 l 767 683 q 685 785 738 749 q 561 821 633 821 q 428 783 488 821 q 333 676 368 746 q 299 510 299 606 q 376 280 299 364 q 582 196 453 196 q 731 247 679 196 l 731 376 m 550 -42 q 648 -74 611 -42 q 685 -169 685 -106 q 623 -292 685 -247 q 446 -339 561 -337 l 446 -254 q 554 -212 535 -250 l 549 -212 q 465 -190 496 -211 q 433 -131 433 -169 q 466 -66 433 -90 q 550 -42 499 -42 z "},"Ġ":{"ha":1017,"x_min":53,"x_max":964,"o":"m 553 1097 q 472 1126 506 1097 q 439 1193 439 1154 q 472 1260 439 1232 q 553 1289 506 1289 q 637 1260 603 1289 q 671 1193 671 1232 q 637 1126 671 1154 q 553 1097 603 1097 m 550 376 l 550 579 l 961 579 l 961 157 q 805 28 913 75 q 568 -18 697 -18 q 299 49 417 -18 q 117 235 182 115 q 53 510 53 356 q 120 787 53 667 q 304 972 188 907 q 565 1036 421 1036 q 749 1004 667 1036 q 887 918 832 972 q 964 797 942 864 l 767 683 q 685 785 738 749 q 561 821 633 821 q 428 783 488 821 q 333 676 368 746 q 299 510 299 606 q 376 280 299 364 q 582 196 453 196 q 731 247 679 196 l 731 376 l 550 376 z "},"H":{"ha":1096,"x_min":100,"x_max":994,"o":"m 338 632 l 757 632 l 757 1017 l 994 1017 l 994 0 l 757 0 l 757 422 l 338 422 l 338 0 l 100 0 l 100 1017 l 338 1017 l 338 632 z "},"Ħ":{"ha":1154,"x_min":33,"x_max":1121,"o":"m 1024 1017 l 1024 888 l 1121 888 l 1121 725 l 1024 725 l 1024 0 l 788 0 l 788 414 l 367 414 l 367 0 l 131 0 l 131 725 l 33 725 l 33 888 l 131 888 l 131 1017 l 367 1017 l 367 888 l 788 888 l 788 1017 l 1024 1017 m 367 725 l 367 624 l 788 624 l 788 725 l 367 725 z "},"Ĥ":{"ha":1094,"x_min":100,"x_max":994,"o":"m 464 1289 l 631 1289 l 821 1103 l 633 1103 l 547 1189 l 461 1103 l 272 1103 l 464 1289 m 338 632 l 757 632 l 757 1017 l 994 1017 l 994 0 l 757 0 l 757 422 l 338 422 l 338 0 l 100 0 l 100 1017 l 338 1017 l 338 632 z "},"I":{"ha":438,"x_min":100,"x_max":338,"o":"m 338 0 l 100 0 l 100 1017 l 338 1017 l 338 0 z "},"Ĳ":{"ha":1200,"x_min":100,"x_max":1111,"o":"m 338 0 l 100 0 l 100 1017 l 338 1017 l 338 0 m 756 -18 q 547 40 635 -18 q 433 219 460 99 l 631 324 q 677 230 647 261 q 758 199 707 199 q 848 248 822 199 q 874 404 874 297 l 874 1017 l 1111 1017 l 1111 381 q 1010 75 1111 168 q 756 -18 910 -18 z "},"Í":{"ha":438,"x_min":100,"x_max":501,"o":"m 135 1104 l 271 1289 l 501 1289 l 317 1104 l 135 1104 m 338 0 l 100 0 l 100 1017 l 338 1017 l 338 0 z "},"Ĭ":{"ha":438,"x_min":-40,"x_max":479,"o":"m 219 1101 q 31 1152 101 1101 q -40 1289 -40 1203 l 131 1289 q 219 1208 139 1208 q 310 1289 299 1208 l 479 1289 q 409 1151 479 1201 q 219 1101 339 1101 m 338 0 l 100 0 l 100 1017 l 338 1017 l 338 0 z "},"Ǐ":{"ha":438,"x_min":-56,"x_max":492,"o":"m 132 1289 l 219 1203 l 304 1289 l 492 1289 l 301 1103 l 135 1103 l -56 1289 l 132 1289 m 338 0 l 100 0 l 100 1017 l 338 1017 l 338 0 z "},"Î":{"ha":438,"x_min":-56,"x_max":492,"o":"m 135 1289 l 301 1289 l 492 1103 l 304 1103 l 219 1189 l 132 1103 l -56 1103 l 135 1289 m 338 0 l 100 0 l 100 1017 l 338 1017 l 338 0 z "},"Ï":{"ha":438,"x_min":-58,"x_max":496,"o":"m 56 1096 q -25 1124 8 1096 q -58 1193 -58 1153 q -25 1260 -58 1232 q 56 1289 8 1289 q 138 1260 104 1289 q 172 1193 172 1232 q 139 1124 172 1153 q 56 1096 106 1096 m 379 1096 q 297 1125 331 1096 q 264 1193 264 1154 q 297 1260 264 1232 q 379 1289 331 1289 q 461 1260 426 1289 q 496 1193 496 1232 q 461 1124 496 1153 q 379 1096 426 1096 m 338 0 l 100 0 l 100 1017 l 338 1017 l 338 0 z "},"İ":{"ha":438,"x_min":100,"x_max":338,"o":"m 218 1096 q 138 1124 171 1096 q 104 1193 104 1153 q 138 1260 104 1232 q 218 1289 171 1289 q 301 1260 267 1289 q 335 1193 335 1232 q 301 1124 335 1153 q 218 1096 268 1096 m 338 0 l 100 0 l 100 1017 l 338 1017 l 338 0 z "},"Ị":{"ha":438,"x_min":89,"x_max":351,"o":"m 338 0 l 100 0 l 100 1017 l 338 1017 l 338 0 m 219 -331 q 127 -292 165 -331 q 89 -201 89 -254 q 127 -110 89 -149 q 219 -72 165 -72 q 312 -111 272 -72 q 351 -201 351 -150 q 313 -292 351 -254 q 219 -331 274 -331 z "},"Ì":{"ha":438,"x_min":-64,"x_max":338,"o":"m -64 1289 l 168 1289 l 304 1104 l 122 1104 l -64 1289 m 338 0 l 100 0 l 100 1017 l 338 1017 l 338 0 z "},"Ỉ":{"ha":438,"x_min":35,"x_max":383,"o":"m 35 1258 q 193 1289 99 1289 q 330 1264 276 1289 q 383 1189 383 1239 q 207 1064 383 1101 l 133 1136 q 203 1156 179 1146 q 226 1178 226 1165 q 213 1195 226 1189 q 174 1201 199 1201 q 64 1175 121 1201 l 35 1258 m 338 0 l 100 0 l 100 1017 l 338 1017 l 338 0 z "},"Ī":{"ha":438,"x_min":-25,"x_max":464,"o":"m -25 1142 l -25 1288 l 464 1288 l 464 1142 l -25 1142 m 338 0 l 100 0 l 100 1017 l 338 1017 l 338 0 z "},"Į":{"ha":438,"x_min":35,"x_max":428,"o":"m 428 -267 q 345 -321 390 -303 q 236 -339 300 -339 q 90 -301 146 -339 q 35 -185 35 -262 q 139 0 35 -83 l 100 0 l 100 1017 l 338 1017 l 338 0 q 224 -78 261 -42 q 188 -156 188 -115 q 206 -200 188 -185 q 254 -215 224 -215 q 357 -165 307 -215 l 428 -267 z "},"Ĩ":{"ha":438,"x_min":-64,"x_max":503,"o":"m -64 1117 q -12 1241 -61 1193 q 118 1289 38 1289 q 195 1275 165 1289 q 257 1238 225 1261 q 285 1218 275 1224 q 307 1213 294 1213 q 354 1271 343 1213 l 503 1271 q 450 1148 500 1196 q 319 1100 400 1100 q 242 1114 272 1100 q 182 1151 211 1128 q 154 1170 165 1164 q 131 1176 143 1176 q 83 1117 96 1176 l -64 1117 m 338 0 l 100 0 l 100 1017 l 338 1017 l 338 0 z "},"J":{"ha":768,"x_min":0,"x_max":679,"o":"m 322 -18 q 114 40 201 -18 q 0 219 26 99 l 199 324 q 244 230 214 261 q 325 199 274 199 q 415 248 389 199 q 442 404 442 297 l 442 1017 l 679 1017 l 679 381 q 578 75 679 168 q 322 -18 478 -18 z "},"Ĵ":{"ha":764,"x_min":-4,"x_max":829,"o":"m 471 1289 l 639 1289 l 829 1103 l 640 1103 l 556 1189 l 469 1103 l 281 1103 l 471 1289 m 318 -18 q 110 40 197 -18 q -4 219 22 99 l 194 324 q 240 230 210 261 q 321 199 269 199 q 411 248 385 199 q 438 404 438 297 l 438 1017 l 675 1017 l 675 381 q 574 75 675 168 q 318 -18 474 -18 z "},"K":{"ha":1071,"x_min":100,"x_max":1063,"o":"m 639 611 l 1063 0 l 757 0 l 465 426 l 338 288 l 338 0 l 100 0 l 100 1017 l 338 1017 l 338 572 l 725 1017 l 1018 1017 l 639 611 z "},"Ķ":{"ha":1071,"x_min":100,"x_max":1063,"o":"m 725 1017 l 1018 1017 l 639 611 l 1063 0 l 757 0 l 465 426 l 338 288 l 338 0 l 100 0 l 100 1017 l 338 1017 l 338 572 l 725 1017 m 551 -42 q 649 -74 613 -42 q 686 -169 686 -106 q 624 -292 686 -247 q 447 -339 563 -337 l 447 -254 q 556 -212 536 -250 l 550 -212 q 466 -190 497 -211 q 435 -131 435 -169 q 467 -66 435 -90 q 551 -42 500 -42 z "},"L":{"ha":814,"x_min":100,"x_max":783,"o":"m 100 1017 l 338 1017 l 338 211 l 783 211 l 783 0 l 100 0 l 100 1017 z "},"Ĺ":{"ha":814,"x_min":100,"x_max":783,"o":"m 135 1106 l 271 1289 l 501 1289 l 317 1106 l 135 1106 m 100 1017 l 338 1017 l 338 211 l 783 211 l 783 0 l 100 0 l 100 1017 z "},"Ľ":{"ha":814,"x_min":100,"x_max":783,"o":"m 711 867 q 644 687 711 758 q 472 601 578 615 l 472 713 q 544 736 517 719 q 581 786 571 753 l 579 786 q 494 823 528 788 q 460 910 460 858 q 493 999 460 963 q 576 1036 526 1036 q 672 992 633 1036 q 711 867 711 949 m 100 1017 l 338 1017 l 338 211 l 783 211 l 783 0 l 100 0 l 100 1017 z "},"Ļ":{"ha":814,"x_min":100,"x_max":783,"o":"m 100 1017 l 338 1017 l 338 211 l 783 211 l 783 0 l 100 0 l 100 1017 m 456 -42 q 553 -74 517 -42 q 590 -169 590 -106 q 528 -292 590 -247 q 351 -339 467 -337 l 351 -254 q 460 -212 440 -250 l 454 -212 q 370 -190 401 -211 q 339 -131 339 -169 q 372 -66 339 -90 q 456 -42 404 -42 z "},"Ŀ":{"ha":814,"x_min":100,"x_max":783,"o":"m 100 1017 l 338 1017 l 338 211 l 783 211 l 783 0 l 100 0 l 100 1017 m 572 435 q 480 475 518 435 q 442 569 442 515 q 479 665 442 626 q 572 704 517 704 q 666 665 626 704 q 706 569 706 625 q 666 475 706 515 q 572 435 626 435 z "},"Ł":{"ha":844,"x_min":14,"x_max":813,"o":"m 561 551 l 367 458 l 367 211 l 813 211 l 813 0 l 131 0 l 131 342 l 14 286 l 14 515 l 131 571 l 131 1017 l 367 1017 l 367 688 l 561 781 l 561 551 z "},"M":{"ha":1228,"x_min":100,"x_max":1129,"o":"m 950 1017 l 1129 1017 l 1129 0 l 904 0 l 904 603 l 675 275 l 554 275 l 322 606 l 322 0 l 100 0 l 100 1017 l 283 1017 l 618 526 l 950 1017 z "},"Ḿ":{"ha":1228,"x_min":100,"x_max":1129,"o":"m 529 1104 l 665 1289 l 897 1289 l 711 1104 l 529 1104 m 950 1017 l 1129 1017 l 1129 0 l 904 0 l 904 603 l 675 275 l 554 275 l 322 606 l 322 0 l 100 0 l 100 1017 l 283 1017 l 618 526 l 950 1017 z "},"N":{"ha":1068,"x_min":100,"x_max":968,"o":"m 290 1017 l 751 400 l 751 1017 l 968 1017 l 968 0 l 778 0 l 317 618 l 317 0 l 100 0 l 100 1017 l 290 1017 z "},"Ń":{"ha":1068,"x_min":100,"x_max":968,"o":"m 450 1104 l 586 1288 l 818 1288 l 632 1104 l 450 1104 m 290 1017 l 751 400 l 751 1017 l 968 1017 l 968 0 l 778 0 l 317 618 l 317 0 l 100 0 l 100 1017 l 290 1017 z "},"Ň":{"ha":1068,"x_min":100,"x_max":968,"o":"m 449 1289 l 535 1203 l 619 1289 l 808 1289 l 618 1103 l 450 1103 l 260 1289 l 449 1289 m 290 1017 l 751 400 l 751 1017 l 968 1017 l 968 0 l 778 0 l 317 618 l 317 0 l 100 0 l 100 1017 l 290 1017 z "},"Ņ":{"ha":1068,"x_min":100,"x_max":968,"o":"m 290 1017 l 751 400 l 751 1017 l 968 1017 l 968 0 l 778 0 l 317 618 l 317 0 l 100 0 l 100 1017 l 290 1017 m 531 -42 q 628 -74 592 -42 q 665 -169 665 -106 q 603 -292 665 -247 q 426 -339 542 -337 l 426 -254 q 535 -212 515 -250 l 529 -212 q 445 -190 476 -211 q 414 -131 414 -169 q 447 -66 414 -90 q 531 -42 479 -42 z "},"Ŋ":{"ha":1068,"x_min":100,"x_max":968,"o":"m 751 1017 l 968 1017 l 968 -1 q 928 -190 968 -114 q 822 -302 889 -265 q 672 -339 756 -339 q 481 -274 560 -339 l 565 -115 q 651 -146 607 -146 q 730 -102 708 -146 q 751 19 751 -58 l 751 36 l 317 618 l 317 0 l 100 0 l 100 1017 l 290 1017 l 751 400 l 751 1017 z "},"Ñ":{"ha":1068,"x_min":100,"x_max":968,"o":"m 251 1118 q 304 1241 254 1193 q 433 1289 354 1289 q 513 1275 482 1289 q 572 1238 543 1261 q 600 1218 590 1224 q 622 1213 610 1213 q 671 1271 657 1213 l 818 1271 q 766 1147 815 1194 q 636 1100 717 1100 q 557 1114 588 1100 q 497 1151 526 1128 q 469 1171 479 1165 q 447 1176 460 1176 q 399 1118 413 1176 l 251 1118 m 290 1017 l 751 400 l 751 1017 l 968 1017 l 968 0 l 778 0 l 317 618 l 317 0 l 100 0 l 100 1017 l 290 1017 z "},"O":{"ha":1100,"x_min":53,"x_max":1047,"o":"m 53 510 q 119 790 53 671 q 299 973 185 910 q 550 1036 413 1036 q 801 973 688 1036 q 981 790 914 910 q 1047 510 1047 671 q 981 228 1047 347 q 801 45 914 108 q 550 -18 688 -18 q 298 45 411 -18 q 119 228 185 108 q 53 510 53 347 m 304 510 q 335 346 304 417 q 422 237 367 275 q 550 199 478 199 q 678 237 622 199 q 766 346 735 275 q 797 510 797 417 q 766 672 797 601 q 678 780 735 742 q 550 818 622 818 q 422 780 478 818 q 335 672 367 742 q 304 510 304 601 z "},"Ó":{"ha":1100,"x_min":53,"x_max":1047,"o":"m 465 1104 l 601 1289 l 833 1289 l 647 1104 l 465 1104 m 53 510 q 119 790 53 671 q 299 973 185 910 q 550 1036 413 1036 q 801 973 688 1036 q 981 790 914 910 q 1047 510 1047 671 q 981 228 1047 347 q 801 45 914 108 q 550 -18 688 -18 q 298 45 411 -18 q 119 228 185 108 q 53 510 53 347 m 304 510 q 335 346 304 417 q 422 237 367 275 q 550 199 478 199 q 678 237 622 199 q 766 346 735 275 q 797 510 797 417 q 766 672 797 601 q 678 780 735 742 q 550 818 622 818 q 422 780 478 818 q 335 672 367 742 q 304 510 304 601 z "},"Ŏ":{"ha":1100,"x_min":53,"x_max":1047,"o":"m 550 1101 q 361 1152 432 1101 q 290 1289 290 1203 l 461 1289 q 550 1208 472 1208 q 640 1289 632 1208 l 811 1289 q 740 1151 811 1201 q 550 1101 669 1101 m 53 510 q 119 790 53 671 q 299 973 185 910 q 550 1036 413 1036 q 801 973 688 1036 q 981 790 914 910 q 1047 510 1047 671 q 981 228 1047 347 q 801 45 914 108 q 550 -18 688 -18 q 298 45 411 -18 q 119 228 185 108 q 53 510 53 347 m 304 510 q 335 346 304 417 q 422 237 367 275 q 550 199 478 199 q 678 237 622 199 q 766 346 735 275 q 797 510 797 417 q 766 672 797 601 q 678 780 735 742 q 550 818 622 818 q 422 780 478 818 q 335 672 367 742 q 304 510 304 601 z "},"Ǒ":{"ha":1100,"x_min":53,"x_max":1047,"o":"m 464 1289 l 550 1203 l 635 1289 l 824 1289 l 633 1103 l 465 1103 l 275 1289 l 464 1289 m 53 510 q 119 790 53 671 q 299 973 185 910 q 550 1036 413 1036 q 801 973 688 1036 q 981 790 914 910 q 1047 510 1047 671 q 981 228 1047 347 q 801 45 914 108 q 550 -18 688 -18 q 298 45 411 -18 q 119 228 185 108 q 53 510 53 347 m 304 510 q 335 346 304 417 q 422 237 367 275 q 550 199 478 199 q 678 237 622 199 q 766 346 735 275 q 797 510 797 417 q 766 672 797 601 q 678 780 735 742 q 550 818 622 818 q 422 780 478 818 q 335 672 367 742 q 304 510 304 601 z "},"Ô":{"ha":1100,"x_min":53,"x_max":1047,"o":"m 465 1289 l 633 1289 l 824 1103 l 635 1103 l 550 1189 l 464 1103 l 275 1103 l 465 1289 m 53 510 q 119 790 53 671 q 299 973 185 910 q 550 1036 413 1036 q 801 973 688 1036 q 981 790 914 910 q 1047 510 1047 671 q 981 228 1047 347 q 801 45 914 108 q 550 -18 688 -18 q 298 45 411 -18 q 119 228 185 108 q 53 510 53 347 m 304 510 q 335 346 304 417 q 422 237 367 275 q 550 199 478 199 q 678 237 622 199 q 766 346 735 275 q 797 510 797 417 q 766 672 797 601 q 678 780 735 742 q 550 818 622 818 q 422 780 478 818 q 335 672 367 742 q 304 510 304 601 z "},"Ố":{"ha":1100,"x_min":53,"x_max":1047,"o":"m 672 1190 l 808 1289 l 1040 1289 l 854 1190 l 672 1190 m 465 1175 l 633 1175 l 824 1075 l 625 1075 l 550 1115 l 474 1075 l 275 1075 l 465 1175 m 53 510 q 119 790 53 671 q 299 973 185 910 q 550 1036 413 1036 q 801 973 688 1036 q 981 790 914 910 q 1047 510 1047 671 q 981 228 1047 347 q 801 45 914 108 q 550 -18 688 -18 q 298 45 411 -18 q 119 228 185 108 q 53 510 53 347 m 304 510 q 335 346 304 417 q 422 237 367 275 q 550 199 478 199 q 678 237 622 199 q 766 346 735 275 q 797 510 797 417 q 766 672 797 601 q 678 780 735 742 q 550 818 622 818 q 422 780 478 818 q 335 672 367 742 q 304 510 304 601 z "},"Ộ":{"ha":1100,"x_min":53,"x_max":1047,"o":"m 465 1289 l 633 1289 l 824 1103 l 635 1103 l 550 1189 l 464 1103 l 275 1103 l 465 1289 m 53 510 q 119 790 53 671 q 299 973 185 910 q 550 1036 413 1036 q 801 973 688 1036 q 981 790 914 910 q 1047 510 1047 671 q 981 228 1047 347 q 801 45 914 108 q 550 -18 688 -18 q 298 45 411 -18 q 119 228 185 108 q 53 510 53 347 m 304 510 q 335 346 304 417 q 422 237 367 275 q 550 199 478 199 q 678 237 622 199 q 766 346 735 275 q 797 510 797 417 q 766 672 797 601 q 678 780 735 742 q 550 818 622 818 q 422 780 478 818 q 335 672 367 742 q 304 510 304 601 m 550 -331 q 458 -292 496 -331 q 419 -201 419 -254 q 458 -110 419 -149 q 550 -72 496 -72 q 642 -111 603 -72 q 682 -201 682 -150 q 643 -292 682 -254 q 550 -331 604 -331 z "},"Ồ":{"ha":1100,"x_min":53,"x_max":1047,"o":"m 474 1289 l 706 1289 l 842 1190 l 660 1190 l 474 1289 m 465 1175 l 633 1175 l 824 1075 l 633 1075 l 550 1119 l 465 1075 l 275 1075 l 465 1175 m 53 510 q 119 790 53 671 q 299 973 185 910 q 550 1036 413 1036 q 801 973 688 1036 q 981 790 914 910 q 1047 510 1047 671 q 981 228 1047 347 q 801 45 914 108 q 550 -18 688 -18 q 298 45 411 -18 q 119 228 185 108 q 53 510 53 347 m 304 510 q 335 346 304 417 q 422 237 367 275 q 550 199 478 199 q 678 237 622 199 q 766 346 735 275 q 797 510 797 417 q 766 672 797 601 q 678 780 735 742 q 550 818 622 818 q 422 780 478 818 q 335 672 367 742 q 304 510 304 601 z "},"Ổ":{"ha":1100,"x_min":53,"x_max":1047,"o":"m 572 1269 q 732 1288 638 1288 q 868 1273 814 1288 q 922 1231 922 1258 q 746 1158 922 1182 l 676 1200 q 774 1218 774 1210 q 718 1228 774 1228 q 601 1217 664 1228 l 572 1269 m 465 1169 l 633 1169 l 824 1075 l 625 1075 l 550 1113 l 474 1075 l 275 1075 l 465 1169 m 53 510 q 119 790 53 671 q 299 973 185 910 q 550 1036 413 1036 q 801 973 688 1036 q 981 790 914 910 q 1047 510 1047 671 q 981 228 1047 347 q 801 45 914 108 q 550 -18 688 -18 q 298 45 411 -18 q 119 228 185 108 q 53 510 53 347 m 304 510 q 335 346 304 417 q 422 237 367 275 q 550 199 478 199 q 678 237 622 199 q 766 346 735 275 q 797 510 797 417 q 766 672 797 601 q 678 780 735 742 q 550 818 622 818 q 422 780 478 818 q 335 672 367 742 q 304 510 304 601 z "},"Ỗ":{"ha":1100,"x_min":53,"x_max":1047,"o":"m 268 1199 q 321 1264 271 1239 q 450 1289 371 1289 q 528 1283 499 1289 q 589 1265 557 1276 q 639 1253 621 1253 q 688 1279 675 1253 l 835 1279 q 783 1214 832 1239 q 653 1189 733 1189 q 575 1195 604 1189 q 514 1213 546 1201 q 464 1225 482 1225 q 415 1199 429 1225 l 268 1199 m 467 1174 l 635 1174 l 825 1075 l 626 1075 l 551 1114 l 475 1075 l 276 1075 l 467 1174 m 53 510 q 119 790 53 671 q 299 973 185 910 q 550 1036 413 1036 q 801 973 688 1036 q 981 790 914 910 q 1047 510 1047 671 q 981 228 1047 347 q 801 45 914 108 q 550 -18 688 -18 q 298 45 411 -18 q 119 228 185 108 q 53 510 53 347 m 304 510 q 335 346 304 417 q 422 237 367 275 q 550 199 478 199 q 678 237 622 199 q 766 346 735 275 q 797 510 797 417 q 766 672 797 601 q 678 780 735 742 q 550 818 622 818 q 422 780 478 818 q 335 672 367 742 q 304 510 304 601 z "},"Ö":{"ha":1100,"x_min":53,"x_max":1047,"o":"m 386 1096 q 306 1124 339 1096 q 272 1193 272 1153 q 306 1260 272 1232 q 386 1289 339 1289 q 470 1260 436 1289 q 504 1193 504 1232 q 470 1124 504 1153 q 386 1096 436 1096 m 710 1096 q 628 1125 661 1096 q 596 1193 596 1154 q 628 1260 596 1232 q 710 1289 661 1289 q 792 1260 758 1289 q 826 1193 826 1232 q 792 1124 826 1153 q 710 1096 758 1096 m 53 510 q 119 790 53 671 q 299 973 185 910 q 550 1036 413 1036 q 801 973 688 1036 q 981 790 914 910 q 1047 510 1047 671 q 981 228 1047 347 q 801 45 914 108 q 550 -18 688 -18 q 298 45 411 -18 q 119 228 185 108 q 53 510 53 347 m 304 510 q 335 346 304 417 q 422 237 367 275 q 550 199 478 199 q 678 237 622 199 q 766 346 735 275 q 797 510 797 417 q 766 672 797 601 q 678 780 735 742 q 550 818 622 818 q 422 780 478 818 q 335 672 367 742 q 304 510 304 601 z "},"Ọ":{"ha":1100,"x_min":53,"x_max":1047,"o":"m 53 510 q 119 790 53 671 q 299 973 185 910 q 550 1036 413 1036 q 801 973 688 1036 q 981 790 914 910 q 1047 510 1047 671 q 981 228 1047 347 q 801 45 914 108 q 550 -18 688 -18 q 298 45 411 -18 q 119 228 185 108 q 53 510 53 347 m 304 510 q 335 346 304 417 q 422 237 367 275 q 550 199 478 199 q 678 237 622 199 q 766 346 735 275 q 797 510 797 417 q 766 672 797 601 q 678 780 735 742 q 550 818 622 818 q 422 780 478 818 q 335 672 367 742 q 304 510 304 601 m 550 -331 q 458 -292 496 -331 q 419 -201 419 -254 q 458 -110 419 -149 q 550 -72 496 -72 q 642 -111 603 -72 q 682 -201 682 -150 q 643 -292 682 -254 q 550 -331 604 -331 z "},"Ò":{"ha":1100,"x_min":53,"x_max":1047,"o":"m 267 1289 l 499 1289 l 635 1104 l 453 1104 l 267 1289 m 53 510 q 119 790 53 671 q 299 973 185 910 q 550 1036 413 1036 q 801 973 688 1036 q 981 790 914 910 q 1047 510 1047 671 q 981 228 1047 347 q 801 45 914 108 q 550 -18 688 -18 q 298 45 411 -18 q 119 228 185 108 q 53 510 53 347 m 304 510 q 335 346 304 417 q 422 237 367 275 q 550 199 478 199 q 678 237 622 199 q 766 346 735 275 q 797 510 797 417 q 766 672 797 601 q 678 780 735 742 q 550 818 622 818 q 422 780 478 818 q 335 672 367 742 q 304 510 304 601 z "},"Ỏ":{"ha":1100,"x_min":53,"x_max":1047,"o":"m 365 1258 q 438 1281 396 1272 q 525 1289 481 1289 q 662 1264 608 1289 q 715 1189 715 1239 q 539 1064 715 1103 l 465 1136 q 535 1156 511 1146 q 558 1178 558 1165 q 544 1195 558 1189 q 504 1201 529 1201 q 394 1175 451 1201 l 365 1258 m 53 510 q 119 790 53 671 q 299 973 185 910 q 550 1036 413 1036 q 801 973 688 1036 q 981 790 914 910 q 1047 510 1047 671 q 981 228 1047 347 q 801 45 914 108 q 550 -18 688 -18 q 298 45 411 -18 q 119 228 185 108 q 53 510 53 347 m 304 510 q 335 346 304 417 q 422 237 367 275 q 550 199 478 199 q 678 237 622 199 q 766 346 735 275 q 797 510 797 417 q 766 672 797 601 q 678 780 735 742 q 550 818 622 818 q 422 780 478 818 q 335 672 367 742 q 304 510 304 601 z "},"Ơ":{"ha":1100,"x_min":53,"x_max":1092,"o":"m 904 874 q 1047 510 1047 739 q 981 231 1047 351 q 800 47 914 111 q 550 -18 686 -18 q 299 47 413 -18 q 119 231 186 111 q 53 510 53 351 q 120 788 53 668 q 306 972 188 907 q 571 1036 424 1036 q 643 1032 608 1036 q 686 1026 678 1028 q 799 1017 750 1017 q 881 1035 857 1017 q 904 1108 904 1053 q 894 1196 904 1156 l 1081 1196 q 1092 1096 1092 1151 q 1050 935 1092 986 q 904 874 1008 885 m 550 199 q 678 237 622 199 q 765 346 733 275 q 796 510 796 417 q 765 672 796 601 q 678 780 733 742 q 550 818 622 818 q 422 780 478 818 q 334 672 365 742 q 303 510 303 601 q 334 346 303 417 q 422 237 365 275 q 550 199 478 199 z "},"Ớ":{"ha":1100,"x_min":53,"x_max":1092,"o":"m 601 1289 l 833 1289 l 647 1104 l 465 1104 l 601 1289 m 904 874 q 1047 510 1047 739 q 981 231 1047 351 q 800 47 914 111 q 550 -18 686 -18 q 299 47 413 -18 q 119 231 186 111 q 53 510 53 351 q 120 788 53 668 q 306 972 188 907 q 571 1036 424 1036 q 643 1032 608 1036 q 686 1026 678 1028 q 799 1017 750 1017 q 881 1035 857 1017 q 904 1108 904 1053 q 894 1196 904 1156 l 1081 1196 q 1092 1096 1092 1151 q 1050 935 1092 986 q 904 874 1008 885 m 550 199 q 678 237 622 199 q 765 346 733 275 q 796 510 796 417 q 765 672 796 601 q 678 780 733 742 q 550 818 622 818 q 422 780 478 818 q 334 672 365 742 q 303 510 303 601 q 334 346 303 417 q 422 237 365 275 q 550 199 478 199 z "},"Ợ":{"ha":1100,"x_min":53,"x_max":1092,"o":"m 904 874 q 1047 510 1047 739 q 981 231 1047 351 q 800 47 914 111 q 550 -18 686 -18 q 299 47 413 -18 q 119 231 186 111 q 53 510 53 351 q 120 788 53 668 q 306 972 188 907 q 571 1036 424 1036 q 643 1032 608 1036 q 686 1026 678 1028 q 799 1017 750 1017 q 881 1035 857 1017 q 904 1108 904 1053 q 894 1196 904 1156 l 1081 1196 q 1092 1096 1092 1151 q 1050 935 1092 986 q 904 874 1008 885 m 550 199 q 678 237 622 199 q 765 346 733 275 q 796 510 796 417 q 765 672 796 601 q 678 780 733 742 q 550 818 622 818 q 422 780 478 818 q 334 672 365 742 q 303 510 303 601 q 334 346 303 417 q 422 237 365 275 q 550 199 478 199 m 550 -72 q 642 -111 603 -72 q 682 -201 682 -150 q 643 -292 682 -254 q 550 -331 604 -331 q 458 -292 496 -331 q 419 -201 419 -254 q 458 -110 419 -149 q 550 -72 496 -72 z "},"Ờ":{"ha":1100,"x_min":53,"x_max":1092,"o":"m 499 1289 l 635 1104 l 453 1104 l 267 1289 l 499 1289 m 904 874 q 1047 510 1047 739 q 981 231 1047 351 q 800 47 914 111 q 550 -18 686 -18 q 299 47 413 -18 q 119 231 186 111 q 53 510 53 351 q 120 788 53 668 q 306 972 188 907 q 571 1036 424 1036 q 643 1032 608 1036 q 686 1026 678 1028 q 799 1017 750 1017 q 881 1035 857 1017 q 904 1108 904 1053 q 894 1196 904 1156 l 1081 1196 q 1092 1096 1092 1151 q 1050 935 1092 986 q 904 874 1008 885 m 550 199 q 678 237 622 199 q 765 346 733 275 q 796 510 796 417 q 765 672 796 601 q 678 780 733 742 q 550 818 622 818 q 422 780 478 818 q 334 672 365 742 q 303 510 303 601 q 334 346 303 417 q 422 237 365 275 q 550 199 478 199 z "},"Ở":{"ha":1100,"x_min":53,"x_max":1092,"o":"m 504 1201 q 394 1175 451 1201 l 365 1258 q 438 1281 396 1272 q 525 1289 481 1289 q 662 1264 608 1289 q 715 1189 715 1239 q 539 1064 715 1103 l 465 1136 q 535 1156 511 1146 q 558 1178 558 1165 q 544 1195 558 1189 q 504 1201 529 1201 m 904 874 q 1047 510 1047 739 q 981 231 1047 351 q 800 47 914 111 q 550 -18 686 -18 q 299 47 413 -18 q 119 231 186 111 q 53 510 53 351 q 120 788 53 668 q 306 972 188 907 q 571 1036 424 1036 q 643 1032 608 1036 q 686 1026 678 1028 q 799 1017 750 1017 q 881 1035 857 1017 q 904 1108 904 1053 q 894 1196 904 1156 l 1081 1196 q 1092 1096 1092 1151 q 1050 935 1092 986 q 904 874 1008 885 m 550 199 q 678 237 622 199 q 765 346 733 275 q 796 510 796 417 q 765 672 796 601 q 678 780 733 742 q 550 818 622 818 q 422 780 478 818 q 334 672 365 742 q 303 510 303 601 q 334 346 303 417 q 422 237 365 275 q 550 199 478 199 z "},"Ỡ":{"ha":1100,"x_min":53,"x_max":1092,"o":"m 463 1176 q 414 1117 428 1176 l 267 1117 q 319 1241 269 1193 q 449 1289 369 1289 q 528 1275 497 1289 q 588 1238 558 1261 q 615 1218 606 1224 q 638 1213 625 1213 q 686 1271 672 1213 l 833 1271 q 781 1147 831 1194 q 651 1100 732 1100 q 572 1114 603 1100 q 513 1151 542 1128 q 485 1171 494 1165 q 463 1176 475 1176 m 904 874 q 1047 510 1047 739 q 981 231 1047 351 q 800 47 914 111 q 550 -18 686 -18 q 299 47 413 -18 q 119 231 186 111 q 53 510 53 351 q 120 788 53 668 q 306 972 188 907 q 571 1036 424 1036 q 643 1032 608 1036 q 686 1026 678 1028 q 799 1017 750 1017 q 881 1035 857 1017 q 904 1108 904 1053 q 894 1196 904 1156 l 1081 1196 q 1092 1096 1092 1151 q 1050 935 1092 986 q 904 874 1008 885 m 550 199 q 678 237 622 199 q 765 346 733 275 q 796 510 796 417 q 765 672 796 601 q 678 780 733 742 q 550 818 622 818 q 422 780 478 818 q 334 672 365 742 q 303 510 303 601 q 334 346 303 417 q 422 237 365 275 q 550 199 478 199 z "},"Ő":{"ha":1100,"x_min":53,"x_max":1047,"o":"m 340 1103 l 469 1289 l 675 1289 l 496 1103 l 340 1103 m 604 1103 l 733 1289 l 939 1289 l 760 1103 l 604 1103 m 53 510 q 119 790 53 671 q 299 973 185 910 q 550 1036 413 1036 q 801 973 688 1036 q 981 790 914 910 q 1047 510 1047 671 q 981 228 1047 347 q 801 45 914 108 q 550 -18 688 -18 q 298 45 411 -18 q 119 228 185 108 q 53 510 53 347 m 304 510 q 335 346 304 417 q 422 237 367 275 q 550 199 478 199 q 678 237 622 199 q 766 346 735 275 q 797 510 797 417 q 766 672 797 601 q 678 780 735 742 q 550 818 622 818 q 422 780 478 818 q 335 672 367 742 q 304 510 304 601 z "},"Ō":{"ha":1100,"x_min":53,"x_max":1047,"o":"m 306 1142 l 306 1288 l 794 1288 l 794 1142 l 306 1142 m 53 510 q 119 790 53 671 q 299 973 185 910 q 550 1036 413 1036 q 801 973 688 1036 q 981 790 914 910 q 1047 510 1047 671 q 981 228 1047 347 q 801 45 914 108 q 550 -18 688 -18 q 298 45 411 -18 q 119 228 185 108 q 53 510 53 347 m 304 510 q 335 346 304 417 q 422 237 367 275 q 550 199 478 199 q 678 237 622 199 q 766 346 735 275 q 797 510 797 417 q 766 672 797 601 q 678 780 735 742 q 550 818 622 818 q 422 780 478 818 q 335 672 367 742 q 304 510 304 601 z "},"Ø":{"ha":1101,"x_min":54,"x_max":1047,"o":"m 811 1067 l 1047 1067 l 918 876 q 1013 713 979 807 q 1047 510 1047 619 q 981 231 1047 351 q 801 47 914 111 q 551 -18 688 -18 q 340 26 438 -18 l 290 -49 l 54 -49 l 183 142 q 88 306 121 213 q 54 510 54 399 q 121 786 54 667 q 301 971 188 906 q 551 1036 414 1036 q 760 992 663 1036 l 811 1067 m 293 510 q 325 351 293 419 l 632 803 q 551 818 600 818 q 417 780 476 818 q 326 672 358 742 q 293 510 293 601 m 806 510 q 776 665 806 599 l 468 214 q 551 199 503 199 q 684 237 626 199 q 774 346 742 275 q 806 510 806 417 z "},"Ǿ":{"ha":1101,"x_min":54,"x_max":1047,"o":"m 465 1104 l 601 1289 l 833 1289 l 647 1104 l 465 1104 m 811 1067 l 1047 1067 l 918 876 q 1013 713 979 807 q 1047 510 1047 619 q 981 231 1047 351 q 801 47 914 111 q 551 -18 688 -18 q 340 26 438 -18 l 290 -49 l 54 -49 l 183 142 q 88 306 121 213 q 54 510 54 399 q 121 786 54 667 q 301 971 188 906 q 551 1036 414 1036 q 760 992 663 1036 l 811 1067 m 293 510 q 325 351 293 419 l 632 803 q 551 818 600 818 q 417 780 476 818 q 326 672 358 742 q 293 510 293 601 m 806 510 q 776 665 806 599 l 468 214 q 551 199 503 199 q 684 237 626 199 q 774 346 742 275 q 806 510 806 417 z "},"Õ":{"ha":1100,"x_min":53,"x_max":1047,"o":"m 267 1117 q 319 1241 269 1193 q 449 1289 369 1289 q 528 1275 497 1289 q 588 1238 558 1261 q 615 1218 606 1224 q 638 1213 625 1213 q 686 1271 672 1213 l 833 1271 q 781 1147 831 1194 q 651 1100 732 1100 q 572 1114 603 1100 q 513 1151 542 1128 q 485 1171 494 1165 q 463 1176 475 1176 q 414 1117 426 1176 l 267 1117 m 53 510 q 119 790 53 671 q 299 973 185 910 q 550 1036 413 1036 q 801 973 688 1036 q 981 790 914 910 q 1047 510 1047 671 q 981 228 1047 347 q 801 45 914 108 q 550 -18 688 -18 q 298 45 411 -18 q 119 228 185 108 q 53 510 53 347 m 304 510 q 335 346 304 417 q 422 237 367 275 q 550 199 478 199 q 678 237 622 199 q 766 346 735 275 q 797 510 797 417 q 766 672 797 601 q 678 780 735 742 q 550 818 622 818 q 422 780 478 818 q 335 672 367 742 q 304 510 304 601 z "},"Œ":{"ha":1547,"x_min":53,"x_max":1492,"o":"m 1032 410 l 1032 206 l 1492 206 l 1492 0 l 796 0 l 796 86 q 670 9 740 36 q 524 -18 600 -18 q 291 47 399 -18 q 118 233 183 113 q 53 510 53 353 q 118 785 53 665 q 291 971 183 906 q 524 1036 399 1036 q 670 1009 600 1036 q 796 932 740 982 l 796 1017 l 1475 1017 l 1475 813 l 1032 813 l 1032 613 l 1431 613 l 1431 410 l 1032 410 m 550 199 q 678 237 622 199 q 765 346 733 275 q 796 510 796 417 q 765 672 796 601 q 678 780 733 742 q 550 818 622 818 q 422 780 478 818 q 334 672 365 742 q 303 510 303 601 q 334 346 303 417 q 422 237 365 275 q 550 199 478 199 z "},"P":{"ha":913,"x_min":100,"x_max":886,"o":"m 468 1017 q 690 974 596 1017 q 835 854 785 932 q 886 672 886 776 q 835 490 886 568 q 690 370 785 413 q 468 328 596 328 l 338 328 l 338 0 l 100 0 l 100 1017 l 468 1017 m 442 528 q 582 561 528 528 q 636 672 636 594 q 581 783 636 749 q 442 817 526 817 l 338 817 l 338 528 l 442 528 z "},"Þ":{"ha":913,"x_min":100,"x_max":886,"o":"m 468 853 q 690 810 596 853 q 835 690 785 768 q 886 508 886 613 q 835 326 886 404 q 690 207 785 249 q 468 165 596 165 l 338 165 l 338 0 l 100 0 l 100 1017 l 338 1017 l 338 853 l 468 853 m 442 365 q 576 393 517 365 q 636 508 636 421 q 581 622 636 590 q 442 654 525 654 l 338 654 l 338 365 l 442 365 z "},"Q":{"ha":1104,"x_min":53,"x_max":1157,"o":"m 1157 -240 l 835 -240 l 585 -17 q 550 -18 572 -18 q 298 45 411 -18 q 119 228 185 108 q 53 510 53 347 q 119 790 53 671 q 299 973 185 910 q 550 1036 413 1036 q 801 973 688 1036 q 981 790 914 910 q 1047 510 1047 671 q 988 242 1047 357 q 826 60 929 126 l 1157 -240 m 304 510 q 335 346 304 417 q 422 237 367 275 q 550 199 478 199 q 678 237 622 199 q 766 346 735 275 q 797 510 797 417 q 766 672 797 601 q 678 780 735 742 q 550 818 622 818 q 422 780 478 818 q 335 672 367 742 q 304 510 304 601 z "},"R":{"ha":979,"x_min":100,"x_max":979,"o":"m 979 0 l 697 1 l 472 344 l 465 344 l 338 344 l 338 0 l 100 0 l 100 1017 l 469 1017 q 690 975 596 1017 q 833 857 783 933 q 883 681 883 781 q 838 511 883 585 q 706 394 792 438 l 979 0 m 338 817 l 338 543 l 442 543 q 577 574 521 543 q 633 681 633 606 q 442 817 633 817 l 338 817 z "},"Ŕ":{"ha":957,"x_min":100,"x_max":979,"o":"m 346 1106 l 482 1289 l 714 1289 l 528 1106 l 346 1106 m 979 0 l 697 1 l 472 344 l 465 344 l 338 344 l 338 0 l 100 0 l 100 1017 l 469 1017 q 690 975 596 1017 q 833 857 783 933 q 883 681 883 781 q 838 511 883 585 q 706 394 792 438 l 979 0 m 338 817 l 338 543 l 442 543 q 577 574 521 543 q 633 681 633 606 q 442 817 633 817 l 338 817 z "},"Ř":{"ha":957,"x_min":100,"x_max":979,"o":"m 344 1289 l 431 1204 l 515 1289 l 704 1289 l 514 1104 l 346 1104 l 156 1289 l 344 1289 m 979 0 l 697 1 l 472 344 l 465 344 l 338 344 l 338 0 l 100 0 l 100 1017 l 469 1017 q 690 975 596 1017 q 833 857 783 933 q 883 681 883 781 q 838 511 883 585 q 706 394 792 438 l 979 0 m 338 817 l 338 543 l 442 543 q 577 574 521 543 q 633 681 633 606 q 442 817 633 817 l 338 817 z "},"Ŗ":{"ha":957,"x_min":100,"x_max":979,"o":"m 979 0 l 697 1 l 472 344 l 465 344 l 338 344 l 338 0 l 100 0 l 100 1017 l 469 1017 q 690 975 596 1017 q 833 857 783 933 q 883 681 883 781 q 838 511 883 585 q 706 394 792 438 l 979 0 m 442 543 q 577 574 521 543 q 633 681 633 606 q 442 817 633 817 l 338 817 l 338 543 l 442 543 m 521 -42 q 619 -74 582 -42 q 656 -169 656 -106 q 594 -293 656 -249 q 417 -339 533 -337 l 417 -254 q 525 -212 506 -250 l 519 -212 q 435 -190 467 -211 q 404 -131 404 -169 q 437 -66 404 -90 q 521 -42 469 -42 z "},"S":{"ha":835,"x_min":7,"x_max":808,"o":"m 808 299 q 749 115 808 186 q 601 13 690 44 q 419 -18 513 -18 q 163 47 279 -18 q 7 233 46 111 l 199 343 q 288 233 229 272 q 428 194 347 194 q 524 217 488 194 q 561 285 561 240 q 536 344 561 321 q 474 383 511 368 q 368 418 436 399 q 205 476 268 447 q 96 565 142 506 q 50 719 50 624 q 105 896 50 825 q 248 1001 160 967 q 438 1036 336 1036 q 671 975 571 1036 q 800 801 771 914 l 606 692 q 537 789 583 754 q 424 824 490 824 q 331 797 367 824 q 296 729 296 771 q 320 675 296 697 q 381 639 344 653 q 483 604 417 625 q 650 544 586 574 q 761 454 714 514 q 808 299 808 394 z "},"Ś":{"ha":835,"x_min":7,"x_max":808,"o":"m 344 1104 l 481 1289 l 713 1289 l 526 1104 l 344 1104 m 808 299 q 749 115 808 186 q 601 13 690 44 q 419 -18 513 -18 q 163 47 279 -18 q 7 233 46 111 l 199 343 q 288 233 229 272 q 428 194 347 194 q 524 217 488 194 q 561 285 561 240 q 536 344 561 321 q 474 383 511 368 q 368 418 436 399 q 205 476 268 447 q 96 565 142 506 q 50 719 50 624 q 105 896 50 825 q 248 1001 160 967 q 438 1036 336 1036 q 671 975 571 1036 q 800 801 771 914 l 606 692 q 537 789 583 754 q 424 824 490 824 q 331 797 367 824 q 296 729 296 771 q 320 675 296 697 q 381 639 344 653 q 483 604 417 625 q 650 544 586 574 q 761 454 714 514 q 808 299 808 394 z "},"Š":{"ha":835,"x_min":7,"x_max":808,"o":"m 343 1289 l 431 1203 l 515 1289 l 703 1289 l 513 1103 l 346 1103 l 156 1289 l 343 1289 m 808 299 q 749 115 808 186 q 601 13 690 44 q 419 -18 513 -18 q 163 47 279 -18 q 7 233 46 111 l 199 343 q 288 233 229 272 q 428 194 347 194 q 524 217 488 194 q 561 285 561 240 q 536 344 561 321 q 474 383 511 368 q 368 418 436 399 q 205 476 268 447 q 96 565 142 506 q 50 719 50 624 q 105 896 50 825 q 248 1001 160 967 q 438 1036 336 1036 q 671 975 571 1036 q 800 801 771 914 l 606 692 q 537 789 583 754 q 424 824 490 824 q 331 797 367 824 q 296 729 296 771 q 320 675 296 697 q 381 639 344 653 q 483 604 417 625 q 650 544 586 574 q 761 454 714 514 q 808 299 808 394 z "},"Ş":{"ha":835,"x_min":7,"x_max":808,"o":"m 808 299 q 755 122 808 192 q 619 20 701 53 q 444 -17 536 -12 l 417 -78 q 526 -112 483 -79 q 569 -203 569 -144 q 508 -306 569 -274 q 360 -339 447 -339 q 244 -322 301 -339 l 244 -217 q 354 -235 296 -235 q 402 -228 383 -235 q 421 -206 421 -221 q 403 -182 421 -190 q 354 -174 385 -174 q 274 -186 317 -174 l 258 -115 l 308 -7 q 120 76 201 15 q 7 233 39 138 l 199 343 q 288 233 229 272 q 428 194 347 194 q 524 217 488 194 q 561 285 561 240 q 536 344 561 321 q 474 383 511 368 q 368 418 436 399 q 205 476 268 447 q 96 565 142 506 q 50 719 50 624 q 105 896 50 825 q 248 1001 160 967 q 438 1036 336 1036 q 671 975 571 1036 q 800 801 771 914 l 606 692 q 537 789 583 754 q 424 824 490 824 q 331 797 367 824 q 296 729 296 771 q 320 675 296 697 q 381 639 344 653 q 483 604 417 625 q 650 544 586 574 q 761 454 714 514 q 808 299 808 394 z "},"Ŝ":{"ha":835,"x_min":7,"x_max":808,"o":"m 346 1289 l 513 1289 l 703 1103 l 515 1103 l 431 1189 l 343 1103 l 156 1103 l 346 1289 m 808 299 q 749 115 808 186 q 601 13 690 44 q 419 -18 513 -18 q 163 47 279 -18 q 7 233 46 111 l 199 343 q 288 233 229 272 q 428 194 347 194 q 524 217 488 194 q 561 285 561 240 q 536 344 561 321 q 474 383 511 368 q 368 418 436 399 q 205 476 268 447 q 96 565 142 506 q 50 719 50 624 q 105 896 50 825 q 248 1001 160 967 q 438 1036 336 1036 q 671 975 571 1036 q 800 801 771 914 l 606 692 q 537 789 583 754 q 424 824 490 824 q 331 797 367 824 q 296 729 296 771 q 320 675 296 697 q 381 639 344 653 q 483 604 417 625 q 650 544 586 574 q 761 454 714 514 q 808 299 808 394 z "},"Ș":{"ha":835,"x_min":7,"x_max":808,"o":"m 808 299 q 749 115 808 186 q 601 13 690 44 q 419 -18 513 -18 q 163 47 279 -18 q 7 233 46 111 l 199 343 q 288 233 229 272 q 428 194 347 194 q 524 217 488 194 q 561 285 561 240 q 536 344 561 321 q 474 383 511 368 q 368 418 436 399 q 205 476 268 447 q 96 565 142 506 q 50 719 50 624 q 105 896 50 825 q 248 1001 160 967 q 438 1036 336 1036 q 671 975 571 1036 q 800 801 771 914 l 606 692 q 537 789 583 754 q 424 824 490 824 q 331 797 367 824 q 296 729 296 771 q 320 675 296 697 q 381 639 344 653 q 483 604 417 625 q 650 544 586 574 q 761 454 714 514 q 808 299 808 394 m 394 -42 q 492 -74 456 -42 q 529 -169 529 -106 q 467 -292 529 -247 q 290 -339 406 -337 l 290 -254 q 399 -212 379 -250 l 393 -212 q 309 -190 340 -211 q 278 -131 278 -169 q 310 -66 278 -90 q 394 -42 343 -42 z "},"Ə":{"ha":1043,"x_min":63,"x_max":989,"o":"m 508 1036 q 753 977 644 1036 q 926 799 863 918 q 989 506 989 679 q 924 218 989 336 q 749 41 860 100 q 503 -18 639 -18 q 270 38 369 -18 q 117 199 171 94 q 63 446 63 304 q 75 590 63 515 l 735 590 q 660 764 718 703 q 499 825 601 825 q 364 785 419 825 q 265 671 308 746 l 89 790 q 256 973 143 910 q 508 1036 368 1036 m 507 192 q 732 388 696 192 l 313 388 q 366 239 315 286 q 507 192 417 192 z "},"T":{"ha":867,"x_min":10,"x_max":857,"o":"m 10 1017 l 857 1017 l 857 807 l 551 807 l 551 0 l 315 0 l 315 807 l 10 807 l 10 1017 z "},"Ŧ":{"ha":869,"x_min":10,"x_max":857,"o":"m 10 1017 l 857 1017 l 857 807 l 551 807 l 551 571 l 743 571 l 743 363 l 551 363 l 551 0 l 315 0 l 315 363 l 126 363 l 126 571 l 315 571 l 315 807 l 10 807 l 10 1017 z "},"Ť":{"ha":867,"x_min":10,"x_max":857,"o":"m 347 1289 l 433 1203 l 519 1289 l 707 1289 l 517 1103 l 350 1103 l 160 1289 l 347 1289 m 10 1017 l 857 1017 l 857 807 l 551 807 l 551 0 l 315 0 l 315 807 l 10 807 l 10 1017 z "},"Ţ":{"ha":869,"x_min":10,"x_max":857,"o":"m 551 807 l 551 0 l 510 0 l 474 -78 q 583 -112 540 -79 q 626 -203 626 -144 q 565 -306 626 -272 q 418 -339 504 -339 q 301 -322 361 -339 l 301 -217 q 411 -235 356 -235 q 460 -228 442 -235 q 478 -206 478 -221 q 460 -182 478 -190 q 411 -174 442 -174 q 331 -186 375 -174 l 317 -115 l 369 0 l 315 0 l 315 807 l 10 807 l 10 1017 l 857 1017 l 857 807 l 551 807 z "},"Ț":{"ha":867,"x_min":10,"x_max":857,"o":"m 315 807 l 10 807 l 10 1017 l 857 1017 l 857 807 l 551 807 l 551 0 l 315 0 l 315 807 m 429 -42 q 527 -74 490 -42 q 564 -169 564 -106 q 503 -293 564 -249 q 325 -339 442 -337 l 325 -254 q 435 -212 413 -250 l 428 -212 q 344 -190 375 -211 q 313 -131 313 -169 q 345 -66 313 -90 q 429 -42 378 -42 z "},"U":{"ha":1072,"x_min":89,"x_max":983,"o":"m 746 1017 l 983 1017 l 983 411 q 930 183 983 281 q 776 34 876 86 q 536 -18 675 -18 q 297 34 397 -18 q 142 183 196 86 q 89 411 89 281 l 89 1017 l 326 1017 l 326 474 q 382 265 326 332 q 536 199 438 199 q 690 265 635 199 q 746 474 746 332 l 746 1017 z "},"Ú":{"ha":1072,"x_min":89,"x_max":983,"o":"m 451 1104 l 588 1289 l 819 1289 l 633 1104 l 451 1104 m 746 1017 l 983 1017 l 983 411 q 930 183 983 281 q 776 34 876 86 q 536 -18 675 -18 q 297 34 397 -18 q 142 183 196 86 q 89 411 89 281 l 89 1017 l 326 1017 l 326 474 q 382 265 326 332 q 536 199 438 199 q 690 265 635 199 q 746 474 746 332 l 746 1017 z "},"Ŭ":{"ha":1072,"x_min":89,"x_max":983,"o":"m 536 1101 q 349 1152 419 1101 q 278 1289 278 1203 l 447 1289 q 536 1208 458 1208 q 628 1289 617 1208 l 797 1289 q 726 1151 797 1201 q 536 1101 656 1101 m 746 1017 l 983 1017 l 983 411 q 930 183 983 281 q 776 34 876 86 q 536 -18 675 -18 q 297 34 397 -18 q 142 183 196 86 q 89 411 89 281 l 89 1017 l 326 1017 l 326 474 q 382 265 326 332 q 536 199 438 199 q 690 265 635 199 q 746 474 746 332 l 746 1017 z "},"Ǔ":{"ha":1072,"x_min":89,"x_max":983,"o":"m 450 1289 l 536 1203 l 622 1289 l 810 1289 l 619 1103 l 453 1103 l 263 1289 l 450 1289 m 746 1017 l 983 1017 l 983 411 q 930 183 983 281 q 776 34 876 86 q 536 -18 675 -18 q 297 34 397 -18 q 142 183 196 86 q 89 411 89 281 l 89 1017 l 326 1017 l 326 474 q 382 265 326 332 q 536 199 438 199 q 690 265 635 199 q 746 474 746 332 l 746 1017 z "},"Û":{"ha":1072,"x_min":89,"x_max":983,"o":"m 453 1289 l 619 1289 l 810 1103 l 622 1103 l 536 1189 l 450 1103 l 263 1103 l 453 1289 m 746 1017 l 983 1017 l 983 411 q 930 183 983 281 q 776 34 876 86 q 536 -18 675 -18 q 297 34 397 -18 q 142 183 196 86 q 89 411 89 281 l 89 1017 l 326 1017 l 326 474 q 382 265 326 332 q 536 199 438 199 q 690 265 635 199 q 746 474 746 332 l 746 1017 z "},"Ü":{"ha":1072,"x_min":89,"x_max":983,"o":"m 372 1096 q 292 1124 325 1096 q 258 1193 258 1153 q 292 1260 258 1232 q 372 1289 325 1289 q 456 1260 422 1289 q 490 1193 490 1232 q 456 1124 490 1153 q 372 1096 422 1096 m 697 1096 q 615 1125 649 1096 q 582 1193 582 1154 q 615 1260 582 1232 q 697 1289 649 1289 q 778 1260 744 1289 q 813 1193 813 1232 q 778 1124 813 1153 q 697 1096 744 1096 m 746 1017 l 983 1017 l 983 411 q 930 183 983 281 q 776 34 876 86 q 536 -18 675 -18 q 297 34 397 -18 q 142 183 196 86 q 89 411 89 281 l 89 1017 l 326 1017 l 326 474 q 382 265 326 332 q 536 199 438 199 q 690 265 635 199 q 746 474 746 332 l 746 1017 z "},"Ǘ":{"ha":1072,"x_min":89,"x_max":983,"o":"m 450 1203 l 586 1289 l 818 1289 l 632 1203 l 450 1203 m 372 1065 q 292 1083 325 1065 q 258 1125 258 1101 q 292 1169 258 1151 q 372 1188 325 1188 q 456 1169 422 1188 q 490 1125 490 1151 q 456 1083 490 1101 q 372 1065 422 1065 m 697 1065 q 615 1083 649 1065 q 582 1125 582 1101 q 615 1169 582 1151 q 697 1188 649 1188 q 779 1169 746 1188 q 813 1125 813 1151 q 778 1083 813 1101 q 697 1065 744 1065 m 746 1017 l 983 1017 l 983 411 q 930 183 983 281 q 776 34 876 86 q 536 -18 675 -18 q 297 34 397 -18 q 142 183 196 86 q 89 411 89 281 l 89 1017 l 326 1017 l 326 474 q 382 265 326 332 q 536 199 438 199 q 690 265 635 199 q 746 474 746 332 l 746 1017 z "},"Ǚ":{"ha":1072,"x_min":89,"x_max":983,"o":"m 808 1289 l 618 1201 l 451 1201 l 261 1289 l 460 1289 l 535 1254 l 610 1289 l 808 1289 m 372 1065 q 292 1083 325 1065 q 258 1125 258 1101 q 292 1169 258 1151 q 372 1188 325 1188 q 456 1169 422 1188 q 490 1125 490 1151 q 456 1083 490 1101 q 372 1065 422 1065 m 697 1065 q 615 1083 649 1065 q 582 1125 582 1101 q 615 1169 582 1151 q 697 1188 649 1188 q 779 1169 746 1188 q 813 1125 813 1151 q 778 1083 813 1101 q 697 1065 744 1065 m 746 1017 l 983 1017 l 983 411 q 930 183 983 281 q 776 34 876 86 q 536 -18 675 -18 q 297 34 397 -18 q 142 183 196 86 q 89 411 89 281 l 89 1017 l 326 1017 l 326 474 q 382 265 326 332 q 536 199 438 199 q 690 265 635 199 q 746 474 746 332 l 746 1017 z "},"Ǜ":{"ha":1072,"x_min":89,"x_max":983,"o":"m 253 1289 l 485 1289 l 621 1203 l 439 1203 l 253 1289 m 372 1065 q 292 1083 325 1065 q 258 1125 258 1101 q 292 1169 258 1151 q 372 1188 325 1188 q 456 1169 422 1188 q 490 1125 490 1151 q 456 1083 490 1101 q 372 1065 422 1065 m 697 1065 q 615 1083 649 1065 q 582 1125 582 1101 q 615 1169 582 1151 q 697 1188 649 1188 q 779 1169 746 1188 q 813 1125 813 1151 q 778 1083 813 1101 q 697 1065 744 1065 m 746 1017 l 983 1017 l 983 411 q 930 183 983 281 q 776 34 876 86 q 536 -18 675 -18 q 297 34 397 -18 q 142 183 196 86 q 89 411 89 281 l 89 1017 l 326 1017 l 326 474 q 382 265 326 332 q 536 199 438 199 q 690 265 635 199 q 746 474 746 332 l 746 1017 z "},"Ǖ":{"ha":1072,"x_min":89,"x_max":983,"o":"m 290 1218 l 290 1289 l 779 1289 l 779 1218 l 290 1218 m 372 1065 q 292 1084 325 1065 q 258 1129 258 1103 q 292 1175 258 1156 q 372 1194 325 1194 q 456 1176 422 1194 q 490 1129 490 1157 q 456 1084 490 1103 q 372 1065 422 1065 m 697 1065 q 615 1084 649 1065 q 582 1129 582 1103 q 615 1176 582 1157 q 697 1194 649 1194 q 778 1176 744 1194 q 813 1129 813 1157 q 778 1084 813 1103 q 697 1065 744 1065 m 746 1017 l 983 1017 l 983 411 q 930 183 983 281 q 776 34 876 86 q 536 -18 675 -18 q 297 34 397 -18 q 142 183 196 86 q 89 411 89 281 l 89 1017 l 326 1017 l 326 474 q 382 265 326 332 q 536 199 438 199 q 690 265 635 199 q 746 474 746 332 l 746 1017 z "},"Ụ":{"ha":1072,"x_min":89,"x_max":983,"o":"m 746 1017 l 983 1017 l 983 411 q 930 183 983 281 q 776 34 876 86 q 536 -18 675 -18 q 297 34 397 -18 q 142 183 196 86 q 89 411 89 281 l 89 1017 l 326 1017 l 326 474 q 382 265 326 332 q 536 199 438 199 q 690 265 635 199 q 746 474 746 332 l 746 1017 m 536 -331 q 444 -292 482 -331 q 406 -201 406 -254 q 444 -110 406 -149 q 536 -72 482 -72 q 628 -111 589 -72 q 668 -201 668 -150 q 629 -292 668 -254 q 536 -331 590 -331 z "},"Ù":{"ha":1072,"x_min":89,"x_max":983,"o":"m 254 1289 l 486 1289 l 622 1104 l 440 1104 l 254 1289 m 746 1017 l 983 1017 l 983 411 q 930 183 983 281 q 776 34 876 86 q 536 -18 675 -18 q 297 34 397 -18 q 142 183 196 86 q 89 411 89 281 l 89 1017 l 326 1017 l 326 474 q 382 265 326 332 q 536 199 438 199 q 690 265 635 199 q 746 474 746 332 l 746 1017 z "},"Ủ":{"ha":1072,"x_min":89,"x_max":983,"o":"m 353 1258 q 511 1289 417 1289 q 648 1264 594 1289 q 701 1189 701 1239 q 525 1064 701 1101 l 451 1136 q 521 1156 497 1146 q 544 1178 544 1165 q 530 1195 544 1189 q 490 1201 515 1201 q 381 1175 440 1201 l 353 1258 m 746 1017 l 983 1017 l 983 411 q 930 183 983 281 q 776 34 876 86 q 536 -18 675 -18 q 297 34 397 -18 q 142 183 196 86 q 89 411 89 281 l 89 1017 l 326 1017 l 326 474 q 382 265 326 332 q 536 199 438 199 q 690 265 635 199 q 746 474 746 332 l 746 1017 z "},"Ư":{"ha":1072,"x_min":89,"x_max":1194,"o":"m 1194 1096 q 1175 974 1194 1019 q 1110 903 1156 928 q 983 872 1064 879 l 983 411 q 930 183 983 281 q 776 34 876 86 q 536 -18 675 -18 q 297 34 397 -18 q 142 183 196 86 q 89 411 89 281 l 89 1017 l 326 1017 l 326 474 q 382 265 326 332 q 536 199 438 199 q 690 265 635 199 q 746 474 746 332 l 746 1017 l 853 1017 q 953 1022 922 1017 q 996 1047 983 1028 q 1008 1107 1008 1065 q 999 1196 1008 1153 l 1183 1196 q 1194 1096 1194 1151 z "},"Ứ":{"ha":1072,"x_min":89,"x_max":1194,"o":"m 451 1104 l 588 1289 l 819 1289 l 633 1104 l 451 1104 m 1194 1096 q 1175 974 1194 1019 q 1110 903 1156 928 q 983 872 1064 879 l 983 411 q 930 183 983 281 q 776 34 876 86 q 536 -18 675 -18 q 297 34 397 -18 q 142 183 196 86 q 89 411 89 281 l 89 1017 l 326 1017 l 326 474 q 382 265 326 332 q 536 199 438 199 q 690 265 635 199 q 746 474 746 332 l 746 1017 l 853 1017 q 953 1022 922 1017 q 996 1047 983 1028 q 1008 1107 1008 1065 q 999 1196 1008 1153 l 1183 1196 q 1194 1096 1194 1151 z "},"Ự":{"ha":1072,"x_min":89,"x_max":1194,"o":"m 1194 1096 q 1175 974 1194 1019 q 1110 903 1156 928 q 983 872 1064 879 l 983 411 q 930 183 983 281 q 776 34 876 86 q 536 -18 675 -18 q 297 34 397 -18 q 142 183 196 86 q 89 411 89 281 l 89 1017 l 326 1017 l 326 474 q 382 265 326 332 q 536 199 438 199 q 690 265 635 199 q 746 474 746 332 l 746 1017 l 853 1017 q 953 1022 922 1017 q 996 1047 983 1028 q 1008 1107 1008 1065 q 999 1196 1008 1153 l 1183 1196 q 1194 1096 1194 1151 m 536 -331 q 444 -292 482 -331 q 406 -201 406 -254 q 444 -110 406 -149 q 536 -72 482 -72 q 628 -111 589 -72 q 668 -201 668 -150 q 629 -292 668 -254 q 536 -331 590 -331 z "},"Ừ":{"ha":1072,"x_min":89,"x_max":1194,"o":"m 254 1289 l 486 1289 l 622 1104 l 440 1104 l 254 1289 m 1194 1096 q 1175 974 1194 1019 q 1110 903 1156 928 q 983 872 1064 879 l 983 411 q 930 183 983 281 q 776 34 876 86 q 536 -18 675 -18 q 297 34 397 -18 q 142 183 196 86 q 89 411 89 281 l 89 1017 l 326 1017 l 326 474 q 382 265 326 332 q 536 199 438 199 q 690 265 635 199 q 746 474 746 332 l 746 1017 l 853 1017 q 953 1022 922 1017 q 996 1047 983 1028 q 1008 1107 1008 1065 q 999 1196 1008 1153 l 1183 1196 q 1194 1096 1194 1151 z "},"Ử":{"ha":1072,"x_min":89,"x_max":1194,"o":"m 353 1258 q 511 1289 417 1289 q 648 1264 594 1289 q 701 1189 701 1239 q 525 1064 701 1101 l 451 1136 q 521 1156 497 1146 q 544 1178 544 1165 q 530 1195 544 1189 q 490 1201 515 1201 q 381 1175 440 1201 l 353 1258 m 1194 1096 q 1175 974 1194 1019 q 1110 903 1156 928 q 983 872 1064 879 l 983 411 q 930 183 983 281 q 776 34 876 86 q 536 -18 675 -18 q 297 34 397 -18 q 142 183 196 86 q 89 411 89 281 l 89 1017 l 326 1017 l 326 474 q 382 265 326 332 q 536 199 438 199 q 690 265 635 199 q 746 474 746 332 l 746 1017 l 853 1017 q 953 1022 922 1017 q 996 1047 983 1028 q 1008 1107 1008 1065 q 999 1196 1008 1153 l 1183 1196 q 1194 1096 1194 1151 z "},"Ữ":{"ha":1072,"x_min":89,"x_max":1194,"o":"m 253 1117 q 306 1241 256 1193 q 436 1289 356 1289 q 514 1275 483 1289 q 574 1238 544 1261 q 601 1219 590 1225 q 625 1213 613 1213 q 672 1271 658 1213 l 819 1271 q 767 1147 817 1194 q 638 1100 718 1100 q 560 1114 590 1100 q 499 1151 531 1128 q 471 1171 481 1165 q 449 1176 461 1176 q 401 1117 414 1176 l 253 1117 m 1194 1096 q 1175 974 1194 1019 q 1110 903 1156 928 q 983 872 1064 879 l 983 411 q 930 183 983 281 q 776 34 876 86 q 536 -18 675 -18 q 297 34 397 -18 q 142 183 196 86 q 89 411 89 281 l 89 1017 l 326 1017 l 326 474 q 382 265 326 332 q 536 199 438 199 q 690 265 635 199 q 746 474 746 332 l 746 1017 l 853 1017 q 953 1022 922 1017 q 996 1047 983 1028 q 1008 1107 1008 1065 q 999 1196 1008 1153 l 1183 1196 q 1194 1096 1194 1151 z "},"Ű":{"ha":1072,"x_min":89,"x_max":983,"o":"m 326 1103 l 456 1289 l 661 1289 l 482 1103 l 326 1103 m 590 1103 l 719 1289 l 925 1289 l 746 1103 l 590 1103 m 746 1017 l 983 1017 l 983 411 q 930 183 983 281 q 776 34 876 86 q 536 -18 675 -18 q 297 34 397 -18 q 142 183 196 86 q 89 411 89 281 l 89 1017 l 326 1017 l 326 474 q 382 265 326 332 q 536 199 438 199 q 690 265 635 199 q 746 474 746 332 l 746 1017 z "},"Ū":{"ha":1072,"x_min":89,"x_max":983,"o":"m 292 1142 l 292 1288 l 781 1288 l 781 1142 l 292 1142 m 746 1017 l 983 1017 l 983 411 q 930 183 983 281 q 776 34 876 86 q 536 -18 675 -18 q 297 34 397 -18 q 142 183 196 86 q 89 411 89 281 l 89 1017 l 326 1017 l 326 474 q 382 265 326 332 q 536 199 438 199 q 690 265 635 199 q 746 474 746 332 l 746 1017 z "},"Ų":{"ha":1072,"x_min":89,"x_max":983,"o":"m 983 411 q 935 192 983 286 q 794 44 886 99 q 651 -139 651 -44 q 672 -195 651 -176 q 724 -214 692 -214 q 821 -165 771 -214 l 892 -267 q 810 -321 854 -303 q 704 -339 765 -339 q 554 -298 610 -339 q 499 -168 499 -257 q 551 -18 499 -82 l 536 -18 q 297 34 397 -18 q 142 183 196 86 q 89 411 89 281 l 89 1017 l 326 1017 l 326 474 q 382 265 326 332 q 536 199 438 199 q 690 265 635 199 q 746 474 746 332 l 746 1017 l 983 1017 l 983 411 z "},"Ů":{"ha":1072,"x_min":89,"x_max":983,"o":"m 361 1188 q 412 1260 361 1231 q 536 1289 463 1289 q 660 1260 611 1289 q 708 1188 708 1232 q 660 1113 708 1142 q 536 1085 611 1085 q 412 1114 463 1085 q 361 1188 361 1143 m 475 1188 q 492 1159 475 1169 q 536 1149 508 1149 q 578 1159 563 1149 q 594 1188 594 1169 q 578 1215 594 1204 q 536 1225 563 1225 q 492 1214 510 1225 q 475 1188 475 1203 m 746 1017 l 983 1017 l 983 411 q 930 183 983 281 q 776 34 876 86 q 536 -18 675 -18 q 297 34 397 -18 q 142 183 196 86 q 89 411 89 281 l 89 1017 l 326 1017 l 326 474 q 382 265 326 332 q 536 199 438 199 q 690 265 635 199 q 746 474 746 332 l 746 1017 z "},"Ũ":{"ha":1072,"x_min":89,"x_max":983,"o":"m 253 1117 q 306 1241 256 1193 q 436 1289 356 1289 q 514 1275 483 1289 q 574 1238 544 1261 q 601 1219 590 1225 q 625 1213 613 1213 q 672 1271 658 1213 l 819 1271 q 767 1147 817 1194 q 638 1100 718 1100 q 560 1114 590 1100 q 499 1151 531 1128 q 471 1171 481 1165 q 449 1176 461 1176 q 401 1117 414 1176 l 253 1117 m 746 1017 l 983 1017 l 983 411 q 930 183 983 281 q 776 34 876 86 q 536 -18 675 -18 q 297 34 397 -18 q 142 183 196 86 q 89 411 89 281 l 89 1017 l 326 1017 l 326 474 q 382 265 326 332 q 536 199 438 199 q 690 265 635 199 q 746 474 746 332 l 746 1017 z "},"V":{"ha":1032,"x_min":8,"x_max":1024,"o":"m 279 1017 l 528 336 l 767 1017 l 1024 1017 l 622 0 l 421 0 l 8 1017 l 279 1017 z "},"W":{"ha":1424,"x_min":8,"x_max":1414,"o":"m 813 1017 l 1007 392 l 1186 1017 l 1414 1017 l 1093 0 l 911 0 l 714 607 l 522 0 l 342 0 l 8 1017 l 253 1017 l 443 392 l 626 1017 l 813 1017 z "},"Ẃ":{"ha":1424,"x_min":8,"x_max":1414,"o":"m 635 1104 l 771 1289 l 1003 1289 l 817 1104 l 635 1104 m 813 1017 l 1007 392 l 1186 1017 l 1414 1017 l 1093 0 l 911 0 l 714 607 l 522 0 l 342 0 l 8 1017 l 253 1017 l 443 392 l 626 1017 l 813 1017 z "},"Ŵ":{"ha":1424,"x_min":8,"x_max":1414,"o":"m 636 1289 l 803 1289 l 993 1103 l 806 1103 l 719 1189 l 633 1103 l 444 1103 l 636 1289 m 813 1017 l 1007 392 l 1186 1017 l 1414 1017 l 1093 0 l 911 0 l 714 607 l 522 0 l 342 0 l 8 1017 l 253 1017 l 443 392 l 626 1017 l 813 1017 z "},"Ẅ":{"ha":1424,"x_min":8,"x_max":1414,"o":"m 556 1096 q 475 1124 508 1096 q 442 1193 442 1153 q 475 1260 442 1232 q 556 1289 508 1289 q 640 1260 606 1289 q 674 1193 674 1232 q 640 1124 674 1153 q 556 1096 606 1096 m 881 1096 q 799 1125 832 1096 q 765 1193 765 1154 q 799 1260 765 1232 q 881 1289 832 1289 q 962 1260 928 1289 q 996 1193 996 1232 q 962 1124 996 1153 q 881 1096 928 1096 m 813 1017 l 1007 392 l 1186 1017 l 1414 1017 l 1093 0 l 911 0 l 714 607 l 522 0 l 342 0 l 8 1017 l 253 1017 l 443 392 l 626 1017 l 813 1017 z "},"Ẁ":{"ha":1424,"x_min":8,"x_max":1414,"o":"m 438 1289 l 668 1289 l 804 1104 l 622 1104 l 438 1289 m 813 1017 l 1007 392 l 1186 1017 l 1414 1017 l 1093 0 l 911 0 l 714 607 l 522 0 l 342 0 l 8 1017 l 253 1017 l 443 392 l 626 1017 l 813 1017 z "},"X":{"ha":1029,"x_min":3,"x_max":1025,"o":"m 1007 1017 l 651 524 l 1025 0 l 732 0 l 506 331 l 275 0 l 3 0 l 376 518 l 21 1017 l 311 1017 l 521 711 l 733 1017 l 1007 1017 z "},"Y":{"ha":982,"x_min":8,"x_max":972,"o":"m 504 619 l 717 1017 l 972 1017 l 617 386 l 617 0 l 379 0 l 379 385 l 8 1017 l 285 1017 l 504 619 z "},"Ý":{"ha":982,"x_min":8,"x_max":972,"o":"m 417 1104 l 553 1289 l 785 1289 l 599 1104 l 417 1104 m 504 619 l 717 1017 l 972 1017 l 617 386 l 617 0 l 379 0 l 379 385 l 8 1017 l 285 1017 l 504 619 z "},"Ŷ":{"ha":982,"x_min":8,"x_max":972,"o":"m 417 1289 l 585 1289 l 775 1103 l 586 1103 l 501 1189 l 415 1103 l 226 1103 l 417 1289 m 504 619 l 717 1017 l 972 1017 l 617 386 l 617 0 l 379 0 l 379 385 l 8 1017 l 285 1017 l 504 619 z "},"Ÿ":{"ha":982,"x_min":8,"x_max":972,"o":"m 338 1096 q 257 1124 290 1096 q 224 1193 224 1153 q 257 1260 224 1232 q 338 1289 290 1289 q 420 1260 386 1289 q 454 1193 454 1232 q 421 1124 454 1153 q 338 1096 388 1096 m 661 1096 q 580 1125 613 1096 q 547 1193 547 1154 q 580 1260 547 1232 q 661 1289 613 1289 q 744 1260 710 1289 q 778 1193 778 1232 q 744 1124 778 1153 q 661 1096 710 1096 m 504 619 l 717 1017 l 972 1017 l 617 386 l 617 0 l 379 0 l 379 385 l 8 1017 l 285 1017 l 504 619 z "},"Ỵ":{"ha":982,"x_min":8,"x_max":972,"o":"m 504 619 l 717 1017 l 972 1017 l 617 386 l 617 0 l 379 0 l 379 385 l 8 1017 l 285 1017 l 504 619 m 499 -331 q 406 -292 444 -331 q 368 -201 368 -254 q 406 -110 368 -149 q 499 -72 444 -72 q 591 -111 551 -72 q 631 -201 631 -150 q 592 -292 631 -254 q 499 -331 553 -331 z "},"Ỳ":{"ha":982,"x_min":8,"x_max":972,"o":"m 218 1289 l 450 1289 l 586 1104 l 404 1104 l 218 1289 m 504 619 l 717 1017 l 972 1017 l 617 386 l 617 0 l 379 0 l 379 385 l 8 1017 l 285 1017 l 504 619 z "},"Ỷ":{"ha":982,"x_min":8,"x_max":972,"o":"m 317 1258 q 390 1281 347 1272 q 476 1289 432 1289 q 613 1264 558 1289 q 667 1189 667 1239 q 490 1064 667 1103 l 417 1136 q 486 1156 463 1146 q 510 1178 510 1165 q 495 1195 510 1189 q 456 1201 481 1201 q 346 1175 403 1201 l 317 1258 m 504 619 l 717 1017 l 972 1017 l 617 386 l 617 0 l 379 0 l 379 385 l 8 1017 l 285 1017 l 504 619 z "},"Ỹ":{"ha":982,"x_min":8,"x_max":972,"o":"m 218 1118 q 271 1241 221 1193 q 400 1289 321 1289 q 479 1275 449 1289 q 539 1238 510 1261 q 567 1218 557 1224 q 589 1213 576 1213 q 638 1271 624 1213 l 785 1271 q 732 1148 782 1196 q 603 1100 682 1100 q 524 1114 554 1100 q 464 1151 493 1128 q 436 1171 446 1165 q 414 1176 426 1176 q 365 1118 379 1176 l 218 1118 m 504 619 l 717 1017 l 972 1017 l 617 386 l 617 0 l 379 0 l 379 385 l 8 1017 l 285 1017 l 504 619 z "},"Z":{"ha":831,"x_min":18,"x_max":808,"o":"m 789 1017 l 789 882 l 349 211 l 808 211 l 808 0 l 18 0 l 18 135 l 461 807 l 61 807 l 61 1017 l 789 1017 z "},"Ź":{"ha":831,"x_min":18,"x_max":808,"o":"m 340 1106 l 476 1289 l 708 1289 l 522 1106 l 340 1106 m 789 1017 l 789 882 l 349 211 l 808 211 l 808 0 l 18 0 l 18 135 l 461 807 l 61 807 l 61 1017 l 789 1017 z "},"Ž":{"ha":831,"x_min":18,"x_max":808,"o":"m 339 1289 l 425 1204 l 510 1289 l 699 1289 l 508 1104 l 340 1104 l 150 1289 l 339 1289 m 789 1017 l 789 882 l 349 211 l 808 211 l 808 0 l 18 0 l 18 135 l 461 807 l 61 807 l 61 1017 l 789 1017 z "},"Ż":{"ha":831,"x_min":18,"x_max":808,"o":"m 424 1097 q 343 1126 376 1097 q 310 1193 310 1154 q 343 1260 310 1232 q 424 1289 376 1289 q 508 1260 474 1289 q 542 1193 542 1232 q 508 1126 542 1154 q 424 1097 474 1097 m 789 1017 l 789 882 l 349 211 l 808 211 l 808 0 l 18 0 l 18 135 l 461 807 l 61 807 l 61 1017 l 789 1017 z "},"a":{"ha":794,"x_min":47,"x_max":724,"o":"m 399 738 q 639 651 554 738 q 724 406 724 564 l 724 0 l 533 0 q 524 78 526 58 q 443 6 490 29 q 324 -18 396 -18 q 184 9 247 -18 q 84 87 121 36 q 47 207 47 138 q 88 334 47 279 q 199 418 129 389 q 350 447 268 447 q 500 421 426 447 q 376 557 490 557 q 238 468 281 557 l 78 561 q 202 690 118 643 q 399 738 286 738 m 500 281 q 397 294 446 294 q 307 274 340 294 q 274 218 274 253 q 299 168 274 186 q 363 150 324 150 q 458 181 415 150 q 500 263 500 211 l 500 281 z "},"á":{"ha":794,"x_min":47,"x_max":724,"o":"m 422 1040 l 646 1040 l 465 804 l 293 804 l 422 1040 m 399 738 q 639 651 554 738 q 724 406 724 564 l 724 0 l 533 0 q 524 78 526 58 q 443 6 490 29 q 324 -18 396 -18 q 184 9 247 -18 q 84 87 121 36 q 47 207 47 138 q 88 334 47 279 q 199 418 129 389 q 350 447 268 447 q 500 421 426 447 q 376 557 490 557 q 238 468 281 557 l 78 561 q 202 690 118 643 q 399 738 286 738 m 500 281 q 397 294 446 294 q 307 274 340 294 q 274 218 274 253 q 299 168 274 186 q 363 150 324 150 q 458 181 415 150 q 500 263 500 211 l 500 281 z "},"ă":{"ha":794,"x_min":47,"x_max":724,"o":"m 390 804 q 202 868 274 804 q 131 1040 131 932 l 301 1040 q 390 938 310 938 q 482 1040 471 938 l 651 1040 q 581 868 651 932 q 390 804 510 804 m 399 738 q 639 651 554 738 q 724 406 724 564 l 724 0 l 533 0 q 524 78 526 58 q 443 6 490 29 q 324 -18 396 -18 q 184 9 247 -18 q 84 87 121 36 q 47 207 47 138 q 88 334 47 279 q 199 418 129 389 q 350 447 268 447 q 500 421 426 447 q 376 557 490 557 q 238 468 281 557 l 78 561 q 202 690 118 643 q 399 738 286 738 m 500 281 q 397 294 446 294 q 307 274 340 294 q 274 218 274 253 q 299 168 274 186 q 363 150 324 150 q 458 181 415 150 q 500 263 500 211 l 500 281 z "},"ắ":{"ha":794,"x_min":47,"x_max":724,"o":"m 410 1285 l 626 1285 l 465 1086 l 293 1086 l 410 1285 m 390 804 q 202 867 274 804 q 131 1039 131 931 l 301 1039 q 390 936 310 936 q 482 1039 471 936 l 651 1039 q 581 867 651 931 q 390 804 510 804 m 399 738 q 639 651 554 738 q 724 406 724 564 l 724 0 l 533 0 q 524 78 526 58 q 443 6 490 29 q 324 -18 396 -18 q 184 9 247 -18 q 84 87 121 36 q 47 207 47 138 q 88 334 47 279 q 199 418 129 389 q 350 447 268 447 q 500 421 426 447 q 376 557 490 557 q 238 468 281 557 l 78 561 q 202 690 118 643 q 399 738 286 738 m 500 281 q 397 294 446 294 q 307 274 340 294 q 274 218 274 253 q 299 168 274 186 q 363 150 324 150 q 458 181 415 150 q 500 263 500 211 l 500 281 z "},"ặ":{"ha":794,"x_min":47,"x_max":724,"o":"m 390 804 q 202 868 274 804 q 131 1040 131 932 l 301 1040 q 390 938 310 938 q 482 1040 471 938 l 651 1040 q 581 868 651 932 q 390 804 510 804 m 399 738 q 639 651 554 738 q 724 406 724 564 l 724 0 l 533 0 q 524 78 526 58 q 443 6 490 29 q 324 -18 396 -18 q 184 9 247 -18 q 84 87 121 36 q 47 207 47 138 q 88 334 47 279 q 198 418 129 389 q 349 447 267 447 q 499 421 425 447 q 376 557 489 557 q 238 468 281 557 l 78 561 q 202 690 118 643 q 399 738 286 738 m 500 281 q 397 294 446 294 q 307 274 340 294 q 274 218 274 253 q 299 168 274 186 q 363 150 324 150 q 458 181 415 150 q 500 263 500 211 l 500 281 m 396 -72 q 488 -111 449 -72 q 528 -201 528 -150 q 489 -292 528 -254 q 396 -331 450 -331 q 303 -292 342 -331 q 265 -201 265 -254 q 303 -110 265 -149 q 396 -72 342 -72 z "},"ằ":{"ha":794,"x_min":47,"x_max":724,"o":"m 371 1285 l 489 1086 l 315 1086 l 154 1285 l 371 1285 m 390 804 q 202 867 274 804 q 131 1039 131 931 l 301 1039 q 390 936 310 936 q 482 1039 471 936 l 651 1039 q 581 867 651 931 q 390 804 510 804 m 399 738 q 639 651 554 738 q 724 406 724 564 l 724 0 l 533 0 q 524 78 526 58 q 443 6 490 29 q 324 -18 396 -18 q 184 9 247 -18 q 84 87 121 36 q 47 207 47 138 q 88 334 47 279 q 199 418 129 389 q 350 447 268 447 q 500 421 426 447 q 376 557 490 557 q 238 468 281 557 l 78 561 q 202 690 118 643 q 399 738 286 738 m 500 281 q 397 294 446 294 q 307 274 340 294 q 274 218 274 253 q 299 168 274 186 q 363 150 324 150 q 458 181 415 150 q 500 263 500 211 l 500 281 z "},"ẳ":{"ha":794,"x_min":47,"x_max":724,"o":"m 343 1186 q 235 1154 296 1186 l 207 1251 q 279 1279 238 1269 q 365 1289 321 1289 q 502 1258 449 1289 q 556 1167 556 1226 q 379 1013 556 1060 l 306 1096 q 399 1154 399 1121 q 384 1178 399 1169 q 343 1186 369 1186 m 390 804 q 202 858 274 804 q 131 1003 131 913 l 301 1003 q 328 938 306 961 q 390 915 350 915 q 482 1003 471 915 l 651 1003 q 581 858 651 911 q 390 804 510 804 m 399 738 q 639 651 554 738 q 724 406 724 564 l 724 0 l 533 0 q 524 78 526 58 q 443 6 490 29 q 324 -18 396 -18 q 184 9 247 -18 q 84 87 121 36 q 47 207 47 138 q 88 334 47 279 q 199 418 129 389 q 350 447 268 447 q 500 421 426 447 q 376 557 490 557 q 238 468 281 557 l 78 561 q 202 690 118 643 q 399 738 286 738 m 500 281 q 397 294 446 294 q 307 274 340 294 q 274 218 274 253 q 299 168 274 186 q 363 150 324 150 q 458 181 415 150 q 500 263 500 211 l 500 281 z "},"ẵ":{"ha":794,"x_min":47,"x_max":724,"o":"m 303 1153 q 256 1083 268 1153 l 107 1083 q 160 1230 110 1174 q 290 1286 210 1286 q 368 1270 338 1286 q 428 1226 399 1254 q 456 1204 446 1211 q 479 1197 467 1197 q 526 1265 514 1197 l 674 1265 q 622 1120 671 1176 q 492 1064 572 1064 q 414 1080 444 1064 q 353 1124 383 1096 q 326 1146 336 1139 q 303 1153 315 1153 m 390 926 q 482 1021 471 926 l 651 1021 q 581 863 651 921 q 390 804 510 804 q 202 863 274 804 q 131 1021 131 921 l 301 1021 q 328 951 306 976 q 390 926 350 926 m 399 738 q 639 651 554 738 q 724 406 724 564 l 724 0 l 533 0 q 524 78 526 58 q 443 6 490 29 q 324 -18 396 -18 q 184 9 247 -18 q 84 87 121 36 q 47 207 47 138 q 88 334 47 279 q 199 418 129 389 q 350 447 268 447 q 500 421 426 447 q 376 557 490 557 q 238 468 281 557 l 78 561 q 202 690 118 643 q 399 738 286 738 m 500 281 q 397 294 446 294 q 307 274 340 294 q 274 218 274 253 q 299 168 274 186 q 363 150 324 150 q 458 181 415 150 q 500 263 500 211 l 500 281 z "},"ǎ":{"ha":794,"x_min":47,"x_max":724,"o":"m 657 1040 l 469 804 l 311 804 l 124 1040 l 311 1040 l 390 938 l 469 1040 l 657 1040 m 399 738 q 639 651 554 738 q 724 406 724 564 l 724 0 l 533 0 q 524 78 526 58 q 443 6 490 29 q 324 -18 396 -18 q 184 9 247 -18 q 84 87 121 36 q 47 207 47 138 q 88 334 47 279 q 199 418 129 389 q 350 447 268 447 q 500 421 426 447 q 376 557 490 557 q 238 468 281 557 l 78 561 q 202 690 118 643 q 399 738 286 738 m 500 281 q 397 294 446 294 q 307 274 340 294 q 274 218 274 253 q 299 168 274 186 q 363 150 324 150 q 458 181 415 150 q 500 263 500 211 l 500 281 z "},"â":{"ha":794,"x_min":47,"x_max":724,"o":"m 469 804 l 390 906 l 311 804 l 124 804 l 310 1040 l 469 1040 l 657 804 l 469 804 m 399 738 q 639 651 554 738 q 724 406 724 564 l 724 0 l 533 0 q 524 78 526 58 q 443 6 490 29 q 324 -18 396 -18 q 184 9 247 -18 q 84 87 121 36 q 47 207 47 138 q 88 334 47 279 q 199 418 129 389 q 350 447 268 447 q 500 421 426 447 q 376 557 490 557 q 238 468 281 557 l 78 561 q 202 690 118 643 q 399 738 286 738 m 500 281 q 397 294 446 294 q 307 274 340 294 q 274 218 274 253 q 299 168 274 186 q 363 150 324 150 q 458 181 415 150 q 500 263 500 211 l 500 281 z "},"ấ":{"ha":794,"x_min":47,"x_max":810,"o":"m 592 1276 l 810 1276 l 649 1076 l 475 1076 l 592 1276 m 464 804 l 386 906 l 306 804 l 118 804 l 306 1040 l 464 1040 l 651 804 l 464 804 m 399 738 q 639 651 554 738 q 724 406 724 564 l 724 0 l 533 0 q 524 78 526 58 q 443 6 490 29 q 324 -18 396 -18 q 184 9 247 -18 q 84 87 121 36 q 47 207 47 138 q 88 334 47 279 q 199 418 129 389 q 350 447 268 447 q 500 421 426 447 q 376 557 490 557 q 238 468 281 557 l 78 561 q 202 690 118 643 q 399 738 286 738 m 500 281 q 397 294 446 294 q 307 274 340 294 q 274 218 274 253 q 299 168 274 186 q 363 150 324 150 q 458 181 415 150 q 500 263 500 211 l 500 281 z "},"ậ":{"ha":794,"x_min":47,"x_max":724,"o":"m 469 804 l 390 906 l 311 804 l 124 804 l 310 1040 l 469 1040 l 657 804 l 469 804 m 399 738 q 639 651 554 738 q 724 406 724 564 l 724 0 l 533 0 q 524 78 526 58 q 443 6 490 29 q 324 -18 396 -18 q 184 9 247 -18 q 84 87 121 36 q 47 207 47 138 q 88 334 47 279 q 198 418 129 389 q 349 447 267 447 q 499 421 425 447 q 376 557 489 557 q 238 468 281 557 l 78 561 q 202 690 118 643 q 399 738 286 738 m 500 281 q 397 294 446 294 q 307 274 340 294 q 274 218 274 253 q 299 168 274 186 q 363 150 324 150 q 458 181 415 150 q 500 263 500 211 l 500 281 m 396 -72 q 488 -111 449 -72 q 528 -201 528 -150 q 489 -292 528 -254 q 396 -331 450 -331 q 303 -292 342 -331 q 265 -201 265 -254 q 303 -110 265 -149 q 396 -72 342 -72 z "},"ầ":{"ha":794,"x_min":47,"x_max":724,"o":"m 554 1276 l 671 1076 l 497 1076 l 336 1276 l 554 1276 m 464 804 l 386 906 l 306 804 l 118 804 l 306 1040 l 464 1040 l 651 804 l 464 804 m 399 738 q 639 651 554 738 q 724 406 724 564 l 724 0 l 533 0 q 524 78 526 58 q 443 6 490 29 q 324 -18 396 -18 q 184 9 247 -18 q 84 87 121 36 q 47 207 47 138 q 88 334 47 279 q 199 418 129 389 q 350 447 268 447 q 500 421 426 447 q 376 557 490 557 q 238 468 281 557 l 78 561 q 202 690 118 643 q 399 738 286 738 m 500 281 q 397 294 446 294 q 307 274 340 294 q 274 218 274 253 q 299 168 274 186 q 363 150 324 150 q 458 181 415 150 q 500 263 500 211 l 500 281 z "},"ẩ":{"ha":794,"x_min":47,"x_max":756,"o":"m 543 1175 q 435 1139 497 1175 l 406 1244 q 477 1276 435 1265 q 565 1288 519 1288 q 702 1253 649 1288 q 756 1151 756 1219 q 708 1049 756 1089 q 579 982 660 1008 l 506 1074 q 599 1139 599 1103 q 583 1165 599 1154 q 543 1175 568 1175 m 464 804 l 386 900 l 306 804 l 118 804 l 306 1025 l 464 1025 l 651 804 l 464 804 m 399 738 q 639 651 554 738 q 724 406 724 564 l 724 0 l 533 0 q 524 78 526 58 q 443 6 490 29 q 324 -18 396 -18 q 184 9 247 -18 q 84 87 121 36 q 47 207 47 138 q 88 334 47 279 q 199 418 129 389 q 350 447 268 447 q 500 421 426 447 q 376 557 490 557 q 238 468 281 557 l 78 561 q 202 690 118 643 q 399 738 286 738 m 500 281 q 397 294 446 294 q 307 274 340 294 q 274 218 274 253 q 299 168 274 186 q 363 150 324 150 q 458 181 415 150 q 500 263 500 211 l 500 281 z "},"ẫ":{"ha":794,"x_min":47,"x_max":724,"o":"m 301 1149 q 254 1078 264 1149 l 106 1078 q 158 1228 108 1171 q 289 1286 208 1286 q 367 1269 336 1286 q 426 1225 397 1253 q 454 1202 443 1210 q 478 1194 465 1194 q 525 1265 513 1194 l 672 1265 q 620 1115 669 1172 q 490 1057 571 1057 q 413 1073 443 1057 q 351 1118 383 1089 q 324 1142 333 1135 q 301 1149 314 1149 m 124 804 l 310 1026 l 469 1026 l 656 804 l 468 804 l 390 900 l 311 804 l 124 804 m 399 738 q 639 651 554 738 q 724 406 724 564 l 724 0 l 533 0 q 524 78 526 58 q 443 6 490 29 q 324 -18 396 -18 q 184 9 247 -18 q 84 87 121 36 q 47 207 47 138 q 88 334 47 279 q 199 418 129 389 q 350 447 268 447 q 500 421 426 447 q 376 557 490 557 q 238 468 281 557 l 78 561 q 202 690 118 643 q 399 738 286 738 m 500 281 q 397 294 446 294 q 307 274 340 294 q 274 218 274 253 q 299 168 274 186 q 363 150 324 150 q 458 181 415 150 q 500 263 500 211 l 500 281 z "},"ä":{"ha":794,"x_min":47,"x_max":724,"o":"m 228 803 q 147 838 181 803 q 114 922 114 874 q 147 1006 114 971 q 228 1040 181 1040 q 312 1006 278 1040 q 346 922 346 971 q 312 838 346 872 q 228 803 278 803 m 553 803 q 471 838 504 803 q 438 922 438 874 q 471 1006 438 971 q 553 1040 504 1040 q 634 1006 600 1040 q 668 922 668 971 q 634 838 668 874 q 553 803 600 803 m 399 738 q 639 651 554 738 q 724 406 724 564 l 724 0 l 533 0 q 524 78 526 58 q 443 6 490 29 q 324 -18 396 -18 q 184 9 247 -18 q 84 87 121 36 q 47 207 47 138 q 88 334 47 279 q 199 418 129 389 q 350 447 268 447 q 500 421 426 447 q 376 557 490 557 q 238 468 281 557 l 78 561 q 202 690 118 643 q 399 738 286 738 m 500 281 q 397 294 446 294 q 307 274 340 294 q 274 218 274 253 q 299 168 274 186 q 363 150 324 150 q 458 181 415 150 q 500 263 500 211 l 500 281 z "},"ạ":{"ha":794,"x_min":47,"x_max":724,"o":"m 399 738 q 639 651 554 738 q 724 406 724 564 l 724 0 l 533 0 q 524 78 526 58 q 443 6 490 29 q 324 -18 396 -18 q 184 9 247 -18 q 84 87 121 36 q 47 207 47 138 q 88 334 47 279 q 198 418 129 389 q 349 447 267 447 q 499 421 425 447 q 376 557 489 557 q 238 468 281 557 l 78 561 q 202 690 118 643 q 399 738 286 738 m 500 281 q 397 294 446 294 q 307 274 340 294 q 274 218 274 253 q 299 168 274 186 q 363 150 324 150 q 458 181 415 150 q 500 263 500 211 l 500 281 m 396 -72 q 488 -111 449 -72 q 528 -201 528 -150 q 489 -292 528 -254 q 396 -331 450 -331 q 303 -292 342 -331 q 265 -201 265 -254 q 303 -110 265 -149 q 396 -72 342 -72 z "},"à":{"ha":794,"x_min":47,"x_max":724,"o":"m 358 1040 l 489 804 l 315 804 l 136 1040 l 358 1040 m 399 738 q 639 651 554 738 q 724 406 724 564 l 724 0 l 533 0 q 524 78 526 58 q 443 6 490 29 q 324 -18 396 -18 q 184 9 247 -18 q 84 87 121 36 q 47 207 47 138 q 88 334 47 279 q 199 418 129 389 q 350 447 268 447 q 500 421 426 447 q 376 557 490 557 q 238 468 281 557 l 78 561 q 202 690 118 643 q 399 738 286 738 m 500 281 q 397 294 446 294 q 307 274 340 294 q 274 218 274 253 q 299 168 274 186 q 363 150 324 150 q 458 181 415 150 q 500 263 500 211 l 500 281 z "},"ả":{"ha":794,"x_min":47,"x_max":724,"o":"m 343 971 q 235 932 296 971 l 207 1047 q 279 1081 238 1069 q 365 1093 321 1093 q 502 1056 449 1093 q 556 947 556 1019 q 379 767 556 822 l 306 864 q 375 896 351 879 q 399 933 399 913 q 384 961 399 951 q 343 971 369 971 m 399 738 q 639 651 554 738 q 724 406 724 564 l 724 0 l 533 0 q 524 78 526 58 q 443 6 490 29 q 324 -18 396 -18 q 184 9 247 -18 q 84 87 121 36 q 47 207 47 138 q 88 334 47 279 q 199 418 129 389 q 350 447 268 447 q 500 421 426 447 q 376 557 490 557 q 238 468 281 557 l 78 561 q 202 690 118 643 q 399 738 286 738 m 500 281 q 397 294 446 294 q 307 274 340 294 q 274 218 274 253 q 299 168 274 186 q 363 150 324 150 q 458 181 415 150 q 500 263 500 211 l 500 281 z "},"ɑ":{"ha":888,"x_min":42,"x_max":806,"o":"m 806 718 l 806 0 l 604 0 q 594 101 601 60 q 497 12 554 42 q 368 -18 439 -18 q 203 27 278 -18 q 85 158 129 72 q 42 360 42 243 q 85 563 42 478 q 203 693 129 649 q 368 738 278 738 q 498 708 440 738 q 594 617 556 678 q 604 718 601 663 l 806 718 m 426 172 q 535 221 490 172 q 579 360 579 269 q 535 494 579 449 q 426 539 492 539 q 317 491 358 539 q 275 360 275 443 q 317 224 275 275 q 426 172 358 172 z "},"ā":{"ha":794,"x_min":47,"x_max":724,"o":"m 146 990 l 635 990 l 635 846 l 146 846 l 146 990 m 399 738 q 639 651 554 738 q 724 406 724 564 l 724 0 l 533 0 q 524 78 526 58 q 443 6 490 29 q 324 -18 396 -18 q 184 9 247 -18 q 84 87 121 36 q 47 207 47 138 q 88 334 47 279 q 199 418 129 389 q 350 447 268 447 q 500 421 426 447 q 376 557 490 557 q 238 468 281 557 l 78 561 q 202 690 118 643 q 399 738 286 738 m 500 281 q 397 294 446 294 q 307 274 340 294 q 274 218 274 253 q 299 168 274 186 q 363 150 324 150 q 458 181 415 150 q 500 263 500 211 l 500 281 z "},"ą":{"ha":794,"x_min":47,"x_max":814,"o":"m 814 -261 q 731 -319 776 -300 q 622 -339 686 -339 q 477 -298 533 -339 q 421 -178 421 -257 q 532 10 421 -74 q 528 42 531 21 q 524 78 526 64 q 443 6 490 29 q 324 -18 396 -17 q 184 9 247 -18 q 84 87 121 36 q 47 207 47 138 q 88 334 47 279 q 198 418 129 389 q 349 447 267 447 q 499 421 425 447 q 376 557 489 557 q 238 468 281 557 l 78 561 q 202 690 118 643 q 399 738 286 738 q 639 651 554 738 q 724 406 724 564 l 724 0 q 610 -74 647 -37 q 574 -150 574 -110 q 639 -204 574 -204 q 746 -156 696 -204 l 814 -261 m 500 281 q 397 294 446 294 q 307 274 340 294 q 274 218 274 253 q 299 168 274 186 q 363 150 324 150 q 458 181 415 150 q 500 263 500 211 l 500 281 z "},"å":{"ha":794,"x_min":47,"x_max":724,"o":"m 390 786 q 266 835 317 786 q 215 960 215 883 q 266 1083 215 1033 q 390 1132 317 1132 q 514 1083 465 1132 q 563 960 563 1035 q 514 835 563 883 q 390 786 465 786 m 390 1024 q 347 1006 364 1024 q 329 960 329 988 q 347 914 329 932 q 390 896 364 896 q 433 913 417 896 q 449 960 449 931 q 433 1006 449 989 q 390 1024 417 1024 m 399 738 q 639 651 554 738 q 724 406 724 564 l 724 0 l 533 0 q 524 78 526 58 q 443 6 490 29 q 324 -18 396 -18 q 184 9 247 -18 q 84 87 121 36 q 47 207 47 138 q 88 334 47 279 q 199 418 129 389 q 350 447 268 447 q 500 421 426 447 q 376 557 490 557 q 238 468 281 557 l 78 561 q 202 690 118 643 q 399 738 286 738 m 500 281 q 397 294 446 294 q 307 274 340 294 q 274 218 274 253 q 299 168 274 186 q 363 150 324 150 q 458 181 415 150 q 500 263 500 211 l 500 281 z "},"ǻ":{"ha":794,"x_min":47,"x_max":724,"o":"m 417 1289 l 633 1289 l 471 1118 l 297 1118 l 417 1289 m 390 785 q 276 826 322 785 q 229 928 229 867 q 276 1029 229 989 q 390 1069 322 1069 q 504 1030 460 1069 q 549 928 549 990 q 504 825 549 865 q 390 785 460 785 m 390 979 q 350 965 365 979 q 335 928 335 951 q 350 889 335 904 q 390 874 365 874 q 430 889 415 874 q 444 928 444 904 q 430 965 444 951 q 390 979 415 979 m 399 738 q 639 651 554 738 q 724 406 724 564 l 724 0 l 533 0 q 524 78 526 58 q 443 6 490 29 q 324 -18 396 -18 q 184 9 247 -18 q 84 87 121 36 q 47 207 47 138 q 88 334 47 279 q 199 418 129 389 q 350 447 268 447 q 500 421 426 447 q 376 557 490 557 q 238 468 281 557 l 78 561 q 202 690 118 643 q 399 738 286 738 m 500 281 q 397 294 446 294 q 307 274 340 294 q 274 218 274 253 q 299 168 274 186 q 363 150 324 150 q 458 181 415 150 q 500 263 500 211 l 500 281 z "},"ḁ":{"ha":794,"x_min":47,"x_max":724,"o":"m 399 738 q 639 651 554 738 q 724 406 724 564 l 724 0 l 533 0 q 524 78 526 58 q 443 6 490 29 q 324 -18 396 -18 q 184 9 247 -18 q 84 87 121 36 q 47 207 47 138 q 88 334 47 279 q 198 418 129 389 q 349 447 267 447 q 499 421 425 447 q 376 557 489 557 q 238 468 281 557 l 78 561 q 202 690 118 643 q 399 738 286 738 m 500 281 q 397 294 446 294 q 307 274 340 294 q 274 218 274 253 q 299 168 274 186 q 363 150 324 150 q 458 181 415 150 q 500 263 500 211 l 500 281 m 394 -43 q 519 -84 471 -43 q 568 -190 568 -125 q 519 -299 568 -258 q 394 -339 471 -339 q 269 -299 319 -339 q 219 -190 219 -258 q 269 -84 219 -125 q 394 -43 319 -43 m 394 -240 q 438 -226 422 -240 q 454 -190 454 -212 q 438 -154 454 -168 q 394 -140 422 -140 q 351 -154 367 -140 q 335 -190 335 -168 q 351 -226 335 -212 q 394 -240 367 -240 z "},"ã":{"ha":794,"x_min":47,"x_max":724,"o":"m 303 897 q 256 822 268 897 l 107 822 q 160 982 110 921 q 290 1043 210 1043 q 368 1026 338 1043 q 428 979 399 1008 q 456 955 444 963 q 479 947 467 947 q 526 1022 514 947 l 674 1022 q 622 863 671 924 q 492 801 572 801 q 415 818 444 801 q 353 865 385 835 q 326 890 336 882 q 303 897 315 897 m 399 738 q 639 651 554 738 q 724 406 724 564 l 724 0 l 533 0 q 524 78 526 58 q 443 6 490 29 q 324 -18 396 -18 q 184 9 247 -18 q 84 87 121 36 q 47 207 47 138 q 88 334 47 279 q 199 418 129 389 q 350 447 268 447 q 500 421 426 447 q 376 557 490 557 q 238 468 281 557 l 78 561 q 202 690 118 643 q 399 738 286 738 m 500 281 q 397 294 446 294 q 307 274 340 294 q 274 218 274 253 q 299 168 274 186 q 363 150 324 150 q 458 181 415 150 q 500 263 500 211 l 500 281 z "},"æ":{"ha":1238,"x_min":47,"x_max":1203,"o":"m 879 738 q 1048 695 975 738 q 1162 575 1121 653 q 1203 393 1203 497 q 1194 294 1203 347 l 735 294 q 787 202 749 235 q 879 169 825 169 q 959 190 924 169 q 1011 251 994 211 l 1176 153 q 1062 27 1147 72 q 871 -18 976 -18 q 722 13 789 -18 q 613 104 656 43 q 513 12 574 42 q 357 -18 451 -18 q 134 42 221 -18 q 47 207 47 103 q 88 334 47 279 q 197 418 128 389 q 347 447 265 447 q 501 421 426 447 q 461 524 494 490 q 372 557 428 557 q 291 533 325 557 q 238 468 257 508 l 78 561 q 190 690 108 643 q 379 738 271 738 q 624 625 546 738 q 737 709 671 681 q 879 738 803 738 m 975 449 q 938 529 968 501 q 863 557 907 557 q 783 528 815 557 q 736 449 750 500 l 975 449 m 503 281 q 393 294 443 294 q 305 275 336 294 q 274 221 274 256 q 301 169 274 188 q 369 150 328 150 q 463 181 422 150 q 503 263 503 211 l 503 281 z "},"ǽ":{"ha":1238,"x_min":47,"x_max":1203,"o":"m 661 1040 l 885 1040 l 704 804 l 532 804 l 661 1040 m 879 738 q 1048 695 975 738 q 1162 575 1121 653 q 1203 393 1203 497 q 1194 294 1203 347 l 735 294 q 787 202 749 235 q 879 169 825 169 q 959 190 924 169 q 1011 251 994 211 l 1176 153 q 1062 27 1147 72 q 871 -18 976 -18 q 722 13 789 -18 q 613 104 656 43 q 513 12 574 42 q 357 -18 451 -18 q 134 42 221 -18 q 47 207 47 103 q 88 334 47 279 q 197 418 128 389 q 347 447 265 447 q 501 421 426 447 q 461 524 494 490 q 372 557 428 557 q 291 533 325 557 q 238 468 257 508 l 78 561 q 190 690 108 643 q 379 738 271 738 q 624 625 546 738 q 737 709 671 681 q 879 738 803 738 m 975 449 q 938 529 968 501 q 863 557 907 557 q 783 528 815 557 q 736 449 750 500 l 975 449 m 503 281 q 393 294 443 294 q 305 275 336 294 q 274 221 274 256 q 301 169 274 188 q 369 150 328 150 q 463 181 422 150 q 503 263 503 211 l 503 281 z "},"b":{"ha":889,"x_min":82,"x_max":846,"o":"m 521 738 q 684 693 610 738 q 802 563 758 649 q 846 360 846 478 q 802 158 846 243 q 684 27 758 72 q 521 -18 610 -18 q 390 12 449 -18 q 293 101 332 42 q 283 0 286 49 l 82 0 l 82 1057 l 308 1057 l 308 639 q 521 738 385 738 m 463 172 q 571 224 529 172 q 613 360 613 275 q 572 491 613 443 q 463 539 531 539 q 353 494 397 539 q 308 360 308 449 q 353 221 308 269 q 463 172 397 172 z "},"c":{"ha":701,"x_min":42,"x_max":707,"o":"m 415 178 q 485 197 457 178 q 536 251 514 215 l 707 153 q 594 26 674 69 q 415 -18 515 -18 q 234 24 319 -18 q 95 152 149 67 q 42 360 42 238 q 95 567 42 482 q 234 695 149 653 q 415 738 319 738 q 594 694 515 738 q 707 568 674 650 l 536 468 q 484 524 513 504 q 415 543 456 543 q 313 492 351 543 q 275 360 275 442 q 313 228 275 278 q 415 178 351 178 z "},"ć":{"ha":701,"x_min":42,"x_max":707,"o":"m 296 804 l 425 1040 l 649 1040 l 469 804 l 296 804 m 415 178 q 485 197 457 178 q 536 251 514 215 l 707 153 q 594 26 674 69 q 415 -18 515 -18 q 234 24 319 -18 q 95 152 149 67 q 42 360 42 238 q 95 567 42 482 q 234 695 149 653 q 415 738 319 738 q 594 694 515 738 q 707 568 674 650 l 536 468 q 484 524 513 504 q 415 543 456 543 q 313 492 351 543 q 275 360 275 442 q 313 228 275 278 q 415 178 351 178 z "},"č":{"ha":701,"x_min":42,"x_max":707,"o":"m 314 1040 l 393 938 l 472 1040 l 660 1040 l 472 804 l 314 804 l 126 1040 l 314 1040 m 415 178 q 485 197 457 178 q 536 251 514 215 l 707 153 q 594 26 674 69 q 415 -18 515 -18 q 234 24 319 -18 q 95 152 149 67 q 42 360 42 238 q 95 567 42 482 q 234 695 149 653 q 415 738 319 738 q 594 694 515 738 q 707 568 674 650 l 536 468 q 484 524 513 504 q 415 543 456 543 q 313 492 351 543 q 275 360 275 442 q 313 228 275 278 q 415 178 351 178 z "},"ç":{"ha":701,"x_min":42,"x_max":707,"o":"m 415 178 q 485 197 457 178 q 536 251 514 215 l 707 153 q 615 40 679 82 q 467 -14 551 -3 l 439 -79 q 549 -112 506 -81 q 592 -203 592 -143 q 531 -306 592 -274 q 383 -339 471 -339 q 267 -321 324 -339 l 267 -217 q 376 -235 318 -235 q 443 -206 443 -235 q 425 -183 443 -192 q 379 -174 407 -174 q 296 -189 344 -174 l 281 -117 l 331 -8 q 124 111 207 17 q 42 360 42 206 q 95 567 42 482 q 234 695 149 653 q 415 738 319 738 q 594 694 515 738 q 707 568 674 650 l 536 468 q 484 524 513 504 q 415 543 456 543 q 313 492 351 543 q 275 360 275 442 q 313 228 275 278 q 415 178 351 178 z "},"ĉ":{"ha":701,"x_min":42,"x_max":707,"o":"m 314 1040 l 472 1040 l 660 804 l 472 804 l 393 906 l 314 804 l 126 804 l 314 1040 m 415 178 q 485 197 457 178 q 536 251 514 215 l 707 153 q 594 26 674 69 q 415 -18 515 -18 q 234 24 319 -18 q 95 152 149 67 q 42 360 42 238 q 95 567 42 482 q 234 695 149 653 q 415 738 319 738 q 594 694 515 738 q 707 568 674 650 l 536 468 q 484 524 513 504 q 415 543 456 543 q 313 492 351 543 q 275 360 275 442 q 313 228 275 278 q 415 178 351 178 z "},"ċ":{"ha":701,"x_min":42,"x_max":707,"o":"m 393 794 q 301 834 339 794 q 263 928 263 874 q 301 1023 263 983 q 393 1063 339 1063 q 487 1023 447 1063 q 526 928 526 983 q 487 834 526 874 q 393 794 447 794 m 415 178 q 485 197 457 178 q 536 251 514 215 l 707 153 q 594 26 674 69 q 415 -18 515 -18 q 234 24 319 -18 q 95 152 149 67 q 42 360 42 238 q 95 567 42 482 q 234 695 149 653 q 415 738 319 738 q 594 694 515 738 q 707 568 674 650 l 536 468 q 484 524 513 504 q 415 543 456 543 q 313 492 351 543 q 275 360 275 442 q 313 228 275 278 q 415 178 351 178 z "},"d":{"ha":888,"x_min":42,"x_max":806,"o":"m 579 1057 l 806 1057 l 806 0 l 604 0 q 594 101 601 60 q 497 12 554 42 q 368 -18 439 -18 q 203 27 278 -18 q 85 158 129 72 q 42 360 42 243 q 85 563 42 478 q 203 693 129 649 q 368 738 278 738 q 579 639 503 738 l 579 1057 m 426 172 q 535 221 490 172 q 579 360 579 269 q 535 494 579 449 q 426 539 492 539 q 317 491 358 539 q 275 360 275 443 q 317 224 275 275 q 426 172 358 172 z "},"ð":{"ha":839,"x_min":42,"x_max":797,"o":"m 572 888 q 740 660 683 788 q 797 389 797 532 q 745 165 797 257 q 608 27 693 72 q 421 -18 522 -18 q 233 25 319 -18 q 94 151 146 68 q 42 344 42 233 q 94 535 42 453 q 231 660 146 617 q 408 704 315 704 q 489 692 451 704 q 392 786 447 744 l 194 678 l 133 796 l 261 868 q 139 921 213 893 l 244 1076 q 456 976 368 1032 l 636 1076 l 700 958 l 572 888 m 421 165 q 522 213 482 165 q 563 342 563 261 q 522 470 563 422 q 421 518 482 518 q 317 470 358 518 q 275 342 275 422 q 317 213 275 261 q 421 165 358 165 z "},"ď":{"ha":974,"x_min":42,"x_max":1042,"o":"m 940 1058 q 1013 1026 985 1058 q 1042 924 1042 994 q 990 774 1042 829 q 854 708 939 719 l 854 797 q 910 817 889 803 q 939 857 931 831 l 936 857 q 871 885 897 857 q 844 960 844 914 q 872 1032 844 1006 q 940 1058 899 1058 m 579 1057 l 806 1057 l 806 0 l 604 0 q 594 101 601 60 q 497 12 554 42 q 368 -18 439 -18 q 203 27 278 -18 q 85 158 129 72 q 42 360 42 243 q 85 563 42 478 q 203 693 129 649 q 368 738 278 738 q 579 639 503 738 l 579 1057 m 426 172 q 535 221 490 172 q 579 360 579 269 q 535 494 579 449 q 426 539 492 539 q 317 491 358 539 q 275 360 275 443 q 317 224 275 275 q 426 172 358 172 z "},"đ":{"ha":888,"x_min":42,"x_max":906,"o":"m 806 940 l 906 940 l 906 786 l 806 786 l 806 0 l 604 0 q 594 101 601 60 q 497 12 554 42 q 368 -18 439 -18 q 203 27 278 -18 q 85 158 129 72 q 42 360 42 243 q 85 563 42 478 q 203 693 129 649 q 368 738 278 738 q 579 639 503 738 l 579 786 l 425 786 l 425 940 l 579 940 l 579 1057 l 806 1057 l 806 940 m 426 172 q 535 221 490 172 q 579 360 579 269 q 535 494 579 449 q 426 539 492 539 q 317 491 358 539 q 275 360 275 443 q 317 224 275 275 q 426 172 358 172 z "},"e":{"ha":781,"x_min":42,"x_max":746,"o":"m 413 738 q 587 695 511 738 q 704 574 663 653 q 746 389 746 494 q 738 294 746 344 l 278 294 q 331 202 293 235 q 422 169 368 169 q 502 190 467 169 q 554 251 538 211 l 719 153 q 604 26 689 71 q 414 -18 519 -18 q 231 25 317 -18 q 94 154 146 68 q 42 363 42 240 q 94 568 42 483 q 231 695 146 653 q 413 738 315 738 m 406 557 q 326 528 358 557 q 278 449 293 500 l 517 449 q 481 529 511 501 q 406 557 450 557 z "},"é":{"ha":781,"x_min":42,"x_max":746,"o":"m 307 804 l 436 1040 l 660 1040 l 479 804 l 307 804 m 413 738 q 587 695 511 738 q 704 574 663 653 q 746 389 746 494 q 738 294 746 344 l 278 294 q 331 202 293 235 q 422 169 368 169 q 502 190 467 169 q 554 251 538 211 l 719 153 q 604 26 689 71 q 414 -18 519 -18 q 231 25 317 -18 q 94 154 146 68 q 42 363 42 240 q 94 568 42 483 q 231 695 146 653 q 413 738 315 738 m 406 557 q 326 528 358 557 q 278 449 293 500 l 517 449 q 481 529 511 501 q 406 557 450 557 z "},"ĕ":{"ha":781,"x_min":42,"x_max":746,"o":"m 404 804 q 216 868 288 804 q 144 1040 144 932 l 315 1040 q 404 938 324 938 q 496 1040 485 938 l 665 1040 q 594 868 665 932 q 404 804 524 804 m 413 738 q 587 695 511 738 q 704 574 663 653 q 746 389 746 494 q 738 294 746 344 l 278 294 q 331 202 293 235 q 422 169 368 169 q 502 190 467 169 q 554 251 538 211 l 719 153 q 604 26 689 71 q 414 -18 519 -18 q 231 25 317 -18 q 94 154 146 68 q 42 363 42 240 q 94 568 42 483 q 231 695 146 653 q 413 738 315 738 m 406 557 q 326 528 358 557 q 278 449 293 500 l 517 449 q 481 529 511 501 q 406 557 450 557 z "},"ě":{"ha":781,"x_min":42,"x_max":746,"o":"m 325 1040 l 404 938 l 483 1040 l 671 1040 l 483 804 l 324 804 l 138 1040 l 325 1040 m 413 738 q 587 695 511 738 q 704 574 663 653 q 746 389 746 494 q 738 294 746 344 l 278 294 q 331 202 293 235 q 422 169 368 169 q 502 190 467 169 q 554 251 538 211 l 719 153 q 604 26 689 71 q 414 -18 519 -18 q 231 25 317 -18 q 94 154 146 68 q 42 363 42 240 q 94 568 42 483 q 231 695 146 653 q 413 738 315 738 m 406 557 q 326 528 358 557 q 278 449 293 500 l 517 449 q 481 529 511 501 q 406 557 450 557 z "},"ê":{"ha":781,"x_min":42,"x_max":746,"o":"m 324 1040 l 483 1040 l 671 804 l 483 804 l 404 906 l 325 804 l 138 804 l 324 1040 m 413 738 q 587 695 511 738 q 704 574 663 653 q 746 389 746 494 q 738 294 746 344 l 278 294 q 331 202 293 235 q 422 169 368 169 q 502 190 467 169 q 554 251 538 211 l 719 153 q 604 26 689 71 q 414 -18 519 -18 q 231 25 317 -18 q 94 154 146 68 q 42 363 42 240 q 94 568 42 483 q 231 695 146 653 q 413 738 315 738 m 406 557 q 326 528 358 557 q 278 449 293 500 l 517 449 q 481 529 511 501 q 406 557 450 557 z "},"ế":{"ha":781,"x_min":42,"x_max":842,"o":"m 489 1063 l 618 1288 l 842 1288 l 663 1063 l 489 1063 m 319 1029 l 478 1029 l 665 804 l 478 804 l 399 901 l 319 804 l 132 804 l 319 1029 m 413 738 q 587 695 511 738 q 704 574 663 653 q 746 389 746 494 q 738 294 746 344 l 278 294 q 331 202 293 235 q 422 169 368 169 q 502 190 467 169 q 554 251 538 211 l 719 153 q 604 26 689 71 q 414 -18 519 -18 q 231 25 317 -18 q 94 154 146 68 q 42 363 42 240 q 94 568 42 483 q 231 695 146 653 q 413 738 315 738 m 406 557 q 326 528 358 557 q 278 449 293 500 l 517 449 q 481 529 511 501 q 406 557 450 557 z "},"ệ":{"ha":781,"x_min":42,"x_max":746,"o":"m 324 1040 l 483 1040 l 671 804 l 483 804 l 404 906 l 325 804 l 138 804 l 324 1040 m 413 738 q 587 695 511 738 q 704 574 663 653 q 746 389 746 494 q 738 294 746 344 l 278 294 q 331 202 293 235 q 422 169 368 169 q 502 190 467 169 q 554 251 538 211 l 719 153 q 604 26 689 71 q 414 -18 519 -18 q 231 25 317 -18 q 94 154 146 68 q 42 363 42 240 q 94 568 42 483 q 231 695 146 653 q 413 738 315 738 m 406 557 q 326 528 358 557 q 278 449 293 500 l 517 449 q 481 529 511 501 q 406 557 450 557 m 414 -331 q 322 -292 360 -331 q 283 -201 283 -254 q 322 -110 283 -149 q 414 -72 360 -72 q 506 -111 467 -72 q 546 -201 546 -150 q 507 -292 546 -254 q 414 -331 468 -331 z "},"ề":{"ha":781,"x_min":42,"x_max":746,"o":"m 332 1288 l 556 1288 l 685 1063 l 511 1063 l 332 1288 m 319 1029 l 478 1029 l 665 804 l 478 804 l 399 901 l 319 804 l 132 804 l 319 1029 m 413 738 q 587 695 511 738 q 704 574 663 653 q 746 389 746 494 q 738 294 746 344 l 278 294 q 331 202 293 235 q 422 169 368 169 q 502 190 467 169 q 554 251 538 211 l 719 153 q 604 26 689 71 q 414 -18 519 -18 q 231 25 317 -18 q 94 154 146 68 q 42 363 42 240 q 94 568 42 483 q 231 695 146 653 q 413 738 315 738 m 406 557 q 326 528 358 557 q 278 449 293 500 l 517 449 q 481 529 511 501 q 406 557 450 557 z "},"ể":{"ha":781,"x_min":42,"x_max":769,"o":"m 419 1244 q 491 1276 449 1265 q 579 1288 533 1288 q 715 1253 661 1288 q 769 1151 769 1219 q 722 1049 769 1089 q 592 982 674 1008 l 519 1074 q 613 1139 613 1103 q 597 1165 613 1154 q 557 1175 582 1175 q 449 1139 511 1175 l 419 1244 m 319 1025 l 478 1025 l 665 804 l 478 804 l 399 900 l 319 804 l 132 804 l 319 1025 m 413 738 q 587 695 511 738 q 704 574 663 653 q 746 389 746 494 q 738 294 746 344 l 278 294 q 331 202 293 235 q 422 169 368 169 q 502 190 467 169 q 554 251 538 211 l 719 153 q 604 26 689 71 q 414 -18 519 -18 q 231 25 317 -18 q 94 154 146 68 q 42 363 42 240 q 94 568 42 483 q 231 695 146 653 q 413 738 315 738 m 406 557 q 326 528 358 557 q 278 449 293 500 l 517 449 q 481 529 511 501 q 406 557 450 557 z "},"ễ":{"ha":781,"x_min":42,"x_max":746,"o":"m 315 1149 q 267 1078 279 1149 l 119 1078 q 172 1228 122 1169 q 301 1286 222 1286 q 381 1269 350 1286 q 440 1225 411 1253 q 468 1201 458 1208 q 490 1194 478 1194 q 539 1265 526 1194 l 686 1265 q 634 1115 683 1172 q 504 1057 585 1057 q 425 1074 456 1057 q 365 1118 394 1090 q 338 1142 347 1135 q 315 1149 328 1149 m 324 1026 l 483 1026 l 669 804 l 482 804 l 404 900 l 324 804 l 138 804 l 324 1026 m 413 738 q 587 695 511 738 q 704 574 663 653 q 746 389 746 494 q 738 294 746 344 l 278 294 q 331 202 293 235 q 422 169 368 169 q 502 190 467 169 q 554 251 538 211 l 719 153 q 604 26 689 71 q 414 -18 519 -18 q 231 25 317 -18 q 94 154 146 68 q 42 363 42 240 q 94 568 42 483 q 231 695 146 653 q 413 738 315 738 m 406 557 q 326 528 358 557 q 278 449 293 500 l 517 449 q 481 529 511 501 q 406 557 450 557 z "},"ë":{"ha":781,"x_min":42,"x_max":746,"o":"m 242 803 q 161 838 194 803 q 128 922 128 874 q 161 1006 128 971 q 242 1040 194 1040 q 326 1006 292 1040 q 360 922 360 971 q 326 838 360 872 q 242 803 292 803 m 565 803 q 484 838 517 803 q 451 922 451 874 q 484 1006 451 971 q 565 1040 517 1040 q 648 1006 614 1040 q 682 922 682 971 q 648 838 682 874 q 565 803 614 803 m 413 738 q 587 695 511 738 q 704 574 663 653 q 746 389 746 494 q 738 294 746 344 l 278 294 q 331 202 293 235 q 422 169 368 169 q 502 190 467 169 q 554 251 538 211 l 719 153 q 604 26 689 71 q 414 -18 519 -18 q 231 25 317 -18 q 94 154 146 68 q 42 363 42 240 q 94 568 42 483 q 231 695 146 653 q 413 738 315 738 m 406 557 q 326 528 358 557 q 278 449 293 500 l 517 449 q 481 529 511 501 q 406 557 450 557 z "},"ė":{"ha":781,"x_min":42,"x_max":746,"o":"m 404 794 q 312 834 350 794 q 274 928 274 874 q 312 1023 274 983 q 404 1063 350 1063 q 497 1023 457 1063 q 536 928 536 983 q 497 834 536 874 q 404 794 458 794 m 413 738 q 587 695 511 738 q 704 574 663 653 q 746 389 746 494 q 738 294 746 344 l 278 294 q 331 202 293 235 q 422 169 368 169 q 502 190 467 169 q 554 251 538 211 l 719 153 q 604 26 689 71 q 414 -18 519 -18 q 231 25 317 -18 q 94 154 146 68 q 42 363 42 240 q 94 568 42 483 q 231 695 146 653 q 413 738 315 738 m 406 557 q 326 528 358 557 q 278 449 293 500 l 517 449 q 481 529 511 501 q 406 557 450 557 z "},"ẹ":{"ha":781,"x_min":42,"x_max":746,"o":"m 413 738 q 587 695 511 738 q 704 574 663 653 q 746 389 746 494 q 738 294 746 344 l 278 294 q 331 202 293 235 q 422 169 368 169 q 502 190 467 169 q 554 251 538 211 l 719 153 q 604 26 689 71 q 414 -18 519 -18 q 231 25 317 -18 q 94 154 146 68 q 42 363 42 240 q 94 568 42 483 q 231 695 146 653 q 413 738 315 738 m 406 557 q 326 528 358 557 q 278 449 293 500 l 517 449 q 481 529 511 501 q 406 557 450 557 m 414 -331 q 322 -292 360 -331 q 283 -201 283 -254 q 322 -110 283 -149 q 414 -72 360 -72 q 506 -111 467 -72 q 546 -201 546 -150 q 507 -292 546 -254 q 414 -331 468 -331 z "},"è":{"ha":781,"x_min":42,"x_max":746,"o":"m 150 1040 l 372 1040 l 503 804 l 329 804 l 150 1040 m 413 738 q 587 695 511 738 q 704 574 663 653 q 746 389 746 494 q 738 294 746 344 l 278 294 q 331 202 293 235 q 422 169 368 169 q 502 190 467 169 q 554 251 538 211 l 719 153 q 604 26 689 71 q 414 -18 519 -18 q 231 25 317 -18 q 94 154 146 68 q 42 363 42 240 q 94 568 42 483 q 231 695 146 653 q 413 738 315 738 m 406 557 q 326 528 358 557 q 278 449 293 500 l 517 449 q 481 529 511 501 q 406 557 450 557 z "},"ẻ":{"ha":781,"x_min":42,"x_max":746,"o":"m 221 1047 q 293 1081 251 1069 q 379 1093 335 1093 q 516 1056 463 1093 q 569 947 569 1019 q 393 767 569 822 l 319 864 q 389 896 365 879 q 413 933 413 913 q 397 961 413 951 q 357 971 382 971 q 249 932 310 971 l 221 1047 m 413 738 q 587 695 511 738 q 704 574 663 653 q 746 389 746 494 q 738 294 746 344 l 278 294 q 331 202 293 235 q 422 169 368 169 q 502 190 467 169 q 554 251 538 211 l 719 153 q 604 26 689 71 q 414 -18 519 -18 q 231 25 317 -18 q 94 154 146 68 q 42 363 42 240 q 94 568 42 483 q 231 695 146 653 q 413 738 315 738 m 406 557 q 326 528 358 557 q 278 449 293 500 l 517 449 q 481 529 511 501 q 406 557 450 557 z "},"ē":{"ha":781,"x_min":42,"x_max":746,"o":"m 160 846 l 160 990 l 649 990 l 649 846 l 160 846 m 413 738 q 587 695 511 738 q 704 574 663 653 q 746 389 746 494 q 738 294 746 344 l 278 294 q 331 202 293 235 q 422 169 368 169 q 502 190 467 169 q 554 251 538 211 l 719 153 q 604 26 689 71 q 414 -18 519 -18 q 231 25 317 -18 q 94 154 146 68 q 42 363 42 240 q 94 568 42 483 q 231 695 146 653 q 413 738 315 738 m 406 557 q 326 528 358 557 q 278 449 293 500 l 517 449 q 481 529 511 501 q 406 557 450 557 z "},"ę":{"ha":781,"x_min":42,"x_max":746,"o":"m 413 738 q 587 695 511 738 q 704 574 663 653 q 746 389 746 494 q 738 294 746 344 l 278 294 q 331 202 293 235 q 422 169 368 169 q 502 190 467 169 q 554 251 538 211 l 719 153 q 631 42 696 90 q 496 -69 531 -32 q 461 -144 461 -106 q 529 -204 461 -204 q 631 -157 579 -204 l 701 -261 q 617 -319 663 -300 q 510 -339 572 -339 q 364 -301 419 -339 q 308 -182 308 -262 q 328 -97 308 -136 q 388 -18 349 -57 q 217 32 296 -12 q 90 161 138 76 q 42 363 42 246 q 94 568 42 483 q 231 695 146 653 q 413 738 315 738 m 517 449 q 481 529 511 501 q 406 557 450 557 q 326 528 358 557 q 278 449 293 500 l 517 449 z "},"ẽ":{"ha":781,"x_min":42,"x_max":746,"o":"m 121 822 q 174 982 124 921 q 304 1043 224 1043 q 382 1026 351 1043 q 442 979 413 1008 q 469 955 458 963 q 493 947 481 947 q 540 1022 528 947 l 688 1022 q 635 863 685 924 q 506 801 586 801 q 428 818 458 801 q 367 865 399 835 q 340 890 350 882 q 317 897 329 897 q 269 822 279 897 l 121 822 m 413 738 q 587 695 511 738 q 704 574 663 653 q 746 389 746 494 q 738 294 746 344 l 278 294 q 331 202 293 235 q 422 169 368 169 q 502 190 467 169 q 554 251 538 211 l 719 153 q 604 26 689 71 q 414 -18 519 -18 q 231 25 317 -18 q 94 154 146 68 q 42 363 42 240 q 94 568 42 483 q 231 695 146 653 q 413 738 315 738 m 406 557 q 326 528 358 557 q 278 449 293 500 l 517 449 q 481 529 511 501 q 406 557 450 557 z "},"ə":{"ha":781,"x_min":36,"x_max":739,"o":"m 367 738 q 549 694 464 738 q 687 565 635 651 q 739 357 739 479 q 687 151 739 236 q 551 24 635 67 q 369 -18 467 -18 q 195 24 271 -18 q 78 145 119 67 q 36 328 36 224 q 44 425 36 375 l 503 425 q 451 517 489 485 q 358 550 413 550 q 280 529 315 550 q 226 469 244 508 l 61 567 q 176 693 92 649 q 367 738 261 738 m 375 163 q 455 192 422 163 q 503 272 488 221 l 264 272 q 300 190 269 218 q 375 163 331 163 z "},"ʒ":{"ha":722,"x_min":-40,"x_max":701,"o":"m 435 315 q 631 207 560 289 q 701 1 701 125 q 649 -183 701 -107 q 507 -299 596 -260 q 313 -339 418 -339 q 92 -279 185 -339 q -40 -104 0 -219 l 133 -4 q 206 -110 158 -72 q 319 -147 253 -147 q 428 -108 389 -147 q 467 -4 467 -68 q 416 106 467 67 q 275 144 365 144 q 169 133 221 144 l 169 303 l 375 532 l 25 532 l 25 718 l 668 718 l 668 556 l 435 315 z "},"ǯ":{"ha":722,"x_min":-40,"x_max":701,"o":"m 269 1040 l 350 938 l 428 1040 l 615 1040 l 428 804 l 269 804 l 82 1040 l 269 1040 m 435 315 q 631 207 560 289 q 701 1 701 125 q 649 -183 701 -107 q 507 -299 596 -260 q 313 -339 418 -339 q 92 -279 185 -339 q -40 -104 0 -219 l 133 -4 q 206 -110 158 -72 q 319 -147 253 -147 q 428 -108 389 -147 q 467 -4 467 -68 q 416 106 467 67 q 275 144 365 144 q 169 133 221 144 l 169 303 l 375 532 l 25 532 l 25 718 l 668 718 l 668 556 l 435 315 z "},"f":{"ha":556,"x_min":6,"x_max":635,"o":"m 453 882 q 354 726 354 882 l 354 718 l 543 718 l 543 529 l 354 529 l 354 0 l 128 0 l 128 529 l 6 529 l 6 718 l 128 718 l 128 735 q 212 991 128 906 q 432 1076 296 1076 q 552 1056 500 1076 q 635 1001 604 1036 l 549 843 q 453 882 506 882 z "},"g":{"ha":878,"x_min":42,"x_max":806,"o":"m 806 718 l 806 86 q 691 -237 806 -136 q 403 -339 576 -339 q 188 -287 279 -339 q 56 -144 96 -235 l 226 -44 q 403 -144 279 -144 q 538 -92 500 -144 q 579 75 575 -39 q 382 -18 508 -18 q 214 27 292 -18 q 89 158 136 72 q 42 360 42 243 q 89 563 42 476 q 214 693 136 649 q 382 738 292 738 q 594 621 524 738 q 604 718 601 657 l 806 718 m 426 172 q 535 221 490 172 q 579 360 579 269 q 535 494 579 449 q 426 539 492 539 q 317 491 358 539 q 275 360 275 443 q 317 224 275 275 q 426 172 358 172 z "},"ğ":{"ha":878,"x_min":42,"x_max":806,"o":"m 422 804 q 233 868 304 804 q 163 1040 163 932 l 332 1040 q 422 938 343 938 q 513 1040 504 938 l 683 1040 q 612 868 683 932 q 422 804 540 804 m 806 718 l 806 86 q 691 -237 806 -136 q 403 -339 576 -339 q 188 -287 279 -339 q 56 -144 96 -235 l 226 -44 q 403 -144 279 -144 q 538 -92 500 -144 q 579 75 575 -39 q 382 -18 508 -18 q 214 27 292 -18 q 89 158 136 72 q 42 360 42 243 q 89 563 42 476 q 214 693 136 649 q 382 738 292 738 q 594 621 524 738 q 604 718 601 657 l 806 718 m 426 172 q 535 221 490 172 q 579 360 579 269 q 535 494 579 449 q 426 539 492 539 q 317 491 358 539 q 275 360 275 443 q 317 224 275 275 q 426 172 358 172 z "},"ǧ":{"ha":878,"x_min":42,"x_max":806,"o":"m 688 1040 l 501 804 l 342 804 l 154 1040 l 342 1040 l 422 938 l 500 1040 l 688 1040 m 806 718 l 806 86 q 691 -237 806 -136 q 403 -339 576 -339 q 188 -287 279 -339 q 56 -144 96 -235 l 226 -44 q 403 -144 279 -144 q 538 -92 500 -144 q 579 75 575 -39 q 382 -18 508 -18 q 214 27 292 -18 q 89 158 136 72 q 42 360 42 243 q 89 563 42 476 q 214 693 136 649 q 382 738 292 738 q 594 621 524 738 q 604 718 601 657 l 806 718 m 426 172 q 535 221 490 172 q 579 360 579 269 q 535 494 579 449 q 426 539 492 539 q 317 491 358 539 q 275 360 275 443 q 317 224 275 275 q 426 172 358 172 z "},"ĝ":{"ha":878,"x_min":42,"x_max":806,"o":"m 500 804 l 422 906 l 342 804 l 154 804 l 342 1040 l 501 1040 l 688 804 l 500 804 m 806 718 l 806 86 q 691 -237 806 -136 q 403 -339 576 -339 q 188 -287 279 -339 q 56 -144 96 -235 l 226 -44 q 403 -144 279 -144 q 538 -92 500 -144 q 579 75 575 -39 q 382 -18 508 -18 q 214 27 292 -18 q 89 158 136 72 q 42 360 42 243 q 89 563 42 476 q 214 693 136 649 q 382 738 292 738 q 594 621 524 738 q 604 718 601 657 l 806 718 m 426 172 q 535 221 490 172 q 579 360 579 269 q 535 494 579 449 q 426 539 492 539 q 317 491 358 539 q 275 360 275 443 q 317 224 275 275 q 426 172 358 172 z "},"ģ":{"ha":878,"x_min":42,"x_max":806,"o":"m 425 794 q 329 838 368 794 q 290 964 290 882 q 357 1144 290 1072 q 529 1229 424 1215 l 529 1118 q 458 1095 485 1113 q 419 1044 431 1078 l 425 1044 q 508 1008 475 1043 q 542 921 542 972 q 508 831 542 868 q 425 794 475 794 m 806 718 l 806 86 q 691 -237 806 -136 q 403 -339 576 -339 q 188 -287 279 -339 q 56 -144 96 -235 l 226 -44 q 403 -144 279 -144 q 538 -92 500 -144 q 579 75 575 -39 q 382 -18 508 -18 q 214 27 292 -18 q 89 158 136 72 q 42 360 42 243 q 89 563 42 476 q 214 693 136 649 q 382 738 292 738 q 594 621 524 738 q 604 718 601 657 l 806 718 m 426 172 q 535 221 490 172 q 579 360 579 269 q 535 494 579 449 q 426 539 492 539 q 317 491 358 539 q 275 360 275 443 q 317 224 275 275 q 426 172 358 172 z "},"ġ":{"ha":878,"x_min":42,"x_max":806,"o":"m 422 794 q 330 834 368 794 q 292 928 292 874 q 330 1023 292 983 q 422 1063 368 1063 q 515 1022 475 1063 q 554 928 554 982 q 515 834 554 874 q 422 794 476 794 m 806 718 l 806 86 q 691 -237 806 -136 q 403 -339 576 -339 q 188 -287 279 -339 q 56 -144 96 -235 l 226 -44 q 403 -144 279 -144 q 538 -92 500 -144 q 579 75 575 -39 q 382 -18 508 -18 q 214 27 292 -18 q 89 158 136 72 q 42 360 42 243 q 89 563 42 476 q 214 693 136 649 q 382 738 292 738 q 594 621 524 738 q 604 718 601 657 l 806 718 m 426 172 q 535 221 490 172 q 579 360 579 269 q 535 494 579 449 q 426 539 492 539 q 317 491 358 539 q 275 360 275 443 q 317 224 275 275 q 426 172 358 172 z "},"ɡ":{"ha":878,"x_min":42,"x_max":806,"o":"m 806 718 l 806 86 q 691 -237 806 -136 q 403 -339 576 -339 q 188 -287 279 -339 q 56 -144 96 -235 l 226 -44 q 403 -144 279 -144 q 538 -92 500 -144 q 579 75 575 -39 q 382 -18 508 -18 q 214 27 292 -18 q 89 158 136 72 q 42 360 42 243 q 89 563 42 476 q 214 693 136 649 q 382 738 292 738 q 594 621 524 738 q 604 718 601 657 l 806 718 m 426 172 q 535 221 490 172 q 579 360 579 269 q 535 494 579 449 q 426 539 492 539 q 317 491 358 539 q 275 360 275 443 q 317 224 275 275 q 426 172 358 172 z "},"ǥ":{"ha":951,"x_min":42,"x_max":931,"o":"m 806 444 l 931 444 l 931 274 l 806 274 l 806 86 q 691 -237 806 -136 q 403 -339 576 -339 q 188 -287 279 -339 q 56 -144 96 -235 l 226 -44 q 403 -144 279 -144 q 538 -92 500 -144 q 579 75 575 -39 q 382 -18 508 -18 q 214 27 292 -18 q 89 158 136 72 q 42 360 42 243 q 89 563 42 476 q 214 693 136 649 q 382 738 292 738 q 594 621 524 738 q 604 718 601 657 l 806 718 l 806 444 m 426 172 q 510 198 472 172 q 565 275 547 224 l 435 275 l 435 446 l 564 446 q 509 516 546 493 q 426 539 472 539 q 317 491 358 539 q 275 360 275 443 q 317 224 275 275 q 426 172 358 172 z "},"h":{"ha":856,"x_min":82,"x_max":783,"o":"m 524 738 q 715 658 646 738 q 783 425 783 579 l 783 0 l 557 0 l 557 349 q 530 489 557 439 q 440 539 503 539 q 343 486 378 539 q 308 339 308 433 l 308 0 l 82 0 l 82 1057 l 308 1057 l 308 629 q 524 738 378 738 z "},"ħ":{"ha":872,"x_min":-1,"x_max":800,"o":"m 540 738 q 731 658 663 738 q 800 425 800 579 l 800 0 l 571 0 l 571 349 q 545 490 571 440 q 457 539 519 539 q 360 486 394 539 q 325 339 325 433 l 325 0 l 99 0 l 99 786 l -1 786 l -1 940 l 99 940 l 99 1057 l 325 1057 l 325 940 l 510 940 l 510 786 l 325 786 l 325 629 q 540 738 394 738 z "},"ȟ":{"ha":856,"x_min":-71,"x_max":783,"o":"m 117 1289 l 196 1218 l 275 1289 l 463 1289 l 275 1122 l 117 1122 l -71 1289 l 117 1289 m 524 738 q 715 658 646 738 q 783 425 783 579 l 783 0 l 557 0 l 557 349 q 530 489 557 439 q 440 539 503 539 q 343 486 378 539 q 308 339 308 433 l 308 0 l 82 0 l 82 1057 l 308 1057 l 308 629 q 524 738 378 738 z "},"ĥ":{"ha":856,"x_min":-71,"x_max":783,"o":"m 117 1289 l 275 1289 l 463 1122 l 275 1122 l 196 1193 l 117 1122 l -71 1122 l 117 1289 m 524 738 q 715 658 646 738 q 783 425 783 579 l 783 0 l 557 0 l 557 349 q 530 489 557 439 q 440 539 503 539 q 343 486 378 539 q 308 339 308 433 l 308 0 l 82 0 l 82 1057 l 308 1057 l 308 629 q 524 738 378 738 z "},"i":{"ha":389,"x_min":63,"x_max":326,"o":"m 194 794 q 101 834 140 794 q 63 928 63 874 q 101 1023 63 983 q 194 1063 139 1063 q 287 1022 247 1063 q 326 928 326 982 q 288 834 326 874 q 194 794 249 794 m 308 0 l 82 0 l 82 718 l 308 718 l 308 0 z "},"ı":{"ha":392,"x_min":82,"x_max":308,"o":"m 82 0 l 82 718 l 308 718 l 308 0 l 82 0 z "},"í":{"ha":392,"x_min":82,"x_max":451,"o":"m 99 804 l 228 1040 l 451 1040 l 271 804 l 99 804 m 82 0 l 82 718 l 308 718 l 308 0 l 82 0 z "},"ĭ":{"ha":392,"x_min":-64,"x_max":457,"o":"m 196 804 q 8 868 79 804 q -64 1040 -64 932 l 107 1040 q 196 938 115 938 q 288 1040 276 938 l 457 1040 q 386 868 457 932 q 196 804 315 804 m 82 0 l 82 718 l 308 718 l 308 0 l 82 0 z "},"ǐ":{"ha":392,"x_min":-71,"x_max":463,"o":"m 117 1040 l 196 938 l 275 1040 l 463 1040 l 275 804 l 117 804 l -71 1040 l 117 1040 m 82 0 l 82 718 l 308 718 l 308 0 l 82 0 z "},"î":{"ha":392,"x_min":-71,"x_max":463,"o":"m 115 1040 l 275 1040 l 463 804 l 275 804 l 196 906 l 117 804 l -71 804 l 115 1040 m 82 0 l 82 718 l 308 718 l 308 0 l 82 0 z "},"ï":{"ha":392,"x_min":-81,"x_max":474,"o":"m 33 803 q -47 838 -14 803 q -81 922 -81 874 q -47 1006 -81 971 q 33 1040 -14 1040 q 117 1006 83 1040 q 151 922 151 971 q 117 838 151 874 q 33 803 83 803 m 358 803 q 276 838 310 803 q 243 922 243 874 q 276 1006 243 971 q 358 1040 310 1040 q 440 1006 406 1040 q 474 922 474 971 q 440 838 474 874 q 358 803 406 803 m 82 0 l 82 718 l 308 718 l 308 0 l 82 0 z "},"ị":{"ha":389,"x_min":63,"x_max":328,"o":"m 194 794 q 101 834 140 794 q 63 928 63 874 q 101 1023 63 983 q 194 1063 139 1063 q 287 1022 247 1063 q 326 928 326 982 q 288 834 326 874 q 194 794 249 794 m 308 0 l 82 0 l 82 718 l 308 718 l 308 0 m 196 -331 q 103 -292 142 -331 q 65 -201 65 -254 q 103 -110 65 -149 q 196 -72 142 -72 q 288 -111 249 -72 q 328 -201 328 -150 q 289 -292 328 -254 q 196 -331 250 -331 z "},"ì":{"ha":392,"x_min":-58,"x_max":308,"o":"m -58 1040 l 164 1040 l 294 804 l 121 804 l -58 1040 m 82 0 l 82 718 l 308 718 l 308 0 l 82 0 z "},"ỉ":{"ha":392,"x_min":13,"x_max":361,"o":"m 13 1047 q 85 1081 43 1069 q 171 1093 126 1093 q 308 1056 254 1093 q 361 947 361 1019 q 185 767 361 822 l 111 864 q 181 896 157 879 q 204 933 204 913 q 190 961 204 951 q 149 971 175 971 q 40 933 104 971 l 13 1047 m 82 0 l 82 718 l 308 718 l 308 0 l 82 0 z "},"ĳ":{"ha":776,"x_min":63,"x_max":714,"o":"m 194 794 q 101 834 140 794 q 63 928 63 874 q 101 1023 63 983 q 194 1063 139 1063 q 287 1022 247 1063 q 326 928 326 982 q 288 834 326 874 q 194 794 249 794 m 581 794 q 490 834 528 794 q 451 928 451 874 q 490 1023 451 983 q 581 1063 528 1063 q 674 1023 635 1063 q 714 928 714 983 q 674 834 714 874 q 581 794 635 794 m 308 0 l 82 0 l 82 718 l 308 718 l 308 0 m 389 -339 q 263 -317 324 -339 q 164 -253 203 -296 l 283 -101 q 368 -146 318 -146 q 446 -104 422 -146 q 469 22 469 -62 l 469 718 l 697 718 l 697 0 q 655 -189 697 -112 q 542 -302 613 -265 q 389 -339 472 -339 z "},"ī":{"ha":392,"x_min":-49,"x_max":440,"o":"m -49 846 l -49 990 l 440 990 l 440 846 l -49 846 m 82 0 l 82 718 l 308 718 l 308 0 l 82 0 z "},"į":{"ha":392,"x_min":7,"x_max":400,"o":"m 196 794 q 103 834 142 794 q 65 928 65 874 q 103 1023 65 983 q 196 1063 142 1063 q 288 1023 249 1063 q 328 928 328 983 q 289 834 328 874 q 196 794 250 794 m 400 -261 q 315 -319 361 -300 q 207 -339 269 -339 q 63 -298 118 -339 q 7 -178 7 -257 q 33 -82 7 -125 q 106 0 58 -39 l 82 0 l 82 718 l 308 718 l 308 0 q 197 -74 233 -37 q 160 -150 160 -110 q 224 -204 160 -204 q 278 -193 253 -204 q 332 -156 304 -182 l 400 -261 z "},"ĩ":{"ha":392,"x_min":-87,"x_max":479,"o":"m -87 824 q -35 983 -85 921 q 96 1044 15 1044 q 174 1027 144 1044 q 233 979 204 1010 q 262 955 251 963 q 285 947 272 947 q 332 1022 319 947 l 479 1022 q 427 863 476 924 q 297 801 378 801 q 220 818 250 801 q 158 865 190 835 q 131 890 142 882 q 108 897 121 897 q 61 824 74 897 l -87 824 m 82 0 l 82 718 l 308 718 l 308 0 l 82 0 z "},"j":{"ha":388,"x_min":-225,"x_max":326,"o":"m 193 794 q 102 834 140 794 q 64 928 64 874 q 102 1023 64 983 q 193 1063 140 1063 q 287 1023 247 1063 q 326 928 326 983 q 287 834 326 874 q 193 794 247 794 m 1 -339 q -124 -317 -64 -339 q -225 -253 -185 -296 l -104 -101 q -19 -146 -69 -146 q 58 -104 35 -146 q 82 22 82 -62 l 82 718 l 308 718 l 308 0 q 266 -189 308 -112 q 154 -302 224 -265 q 1 -339 85 -339 z "},"ȷ":{"ha":388,"x_min":-225,"x_max":308,"o":"m 1 -339 q -124 -317 -64 -339 q -225 -253 -185 -296 l -104 -101 q -19 -146 -69 -146 q 58 -104 35 -146 q 82 22 82 -62 l 82 718 l 308 718 l 308 0 q 266 -189 308 -112 q 154 -302 224 -265 q 1 -339 85 -339 z "},"ǰ":{"ha":388,"x_min":-225,"x_max":461,"o":"m 115 1040 l 194 938 l 274 1040 l 461 1040 l 274 804 l 115 804 l -72 1040 l 115 1040 m 1 -339 q -124 -317 -64 -339 q -225 -253 -185 -296 l -104 -101 q -19 -146 -69 -146 q 58 -104 35 -146 q 82 22 82 -62 l 82 718 l 308 718 l 308 0 q 266 -189 308 -112 q 154 -302 224 -265 q 1 -339 85 -339 z "},"ĵ":{"ha":388,"x_min":-225,"x_max":461,"o":"m 115 1040 l 274 1040 l 461 804 l 274 804 l 194 906 l 115 804 l -72 804 l 115 1040 m 1 -339 q -124 -317 -64 -339 q -225 -253 -185 -296 l -104 -101 q -19 -146 -69 -146 q 58 -104 35 -146 q 82 22 82 -62 l 82 718 l 308 718 l 308 0 q 266 -189 308 -112 q 154 -302 224 -265 q 1 -339 85 -339 z "},"k":{"ha":842,"x_min":82,"x_max":850,"o":"m 563 436 l 850 0 l 581 0 l 411 267 l 308 154 l 308 0 l 82 0 l 82 1057 l 308 1057 l 308 426 l 557 718 l 817 718 l 563 436 z "},"ǩ":{"ha":842,"x_min":-71,"x_max":850,"o":"m 117 1289 l 196 1218 l 275 1289 l 463 1289 l 275 1122 l 117 1122 l -71 1289 l 117 1289 m 563 436 l 850 0 l 581 0 l 411 267 l 308 154 l 308 0 l 82 0 l 82 1057 l 308 1057 l 308 426 l 557 718 l 817 718 l 563 436 z "},"ķ":{"ha":844,"x_min":82,"x_max":853,"o":"m 558 718 l 819 718 l 564 436 l 853 0 l 582 0 l 411 267 l 310 154 l 310 0 l 82 0 l 82 1057 l 310 1057 l 310 426 l 558 718 m 443 -42 q 541 -74 504 -42 q 578 -169 578 -106 q 516 -292 578 -247 q 339 -339 454 -337 l 339 -254 q 447 -212 428 -250 l 442 -212 q 358 -190 389 -211 q 326 -131 326 -169 q 359 -66 326 -90 q 443 -42 392 -42 z "},"ĸ":{"ha":842,"x_min":82,"x_max":850,"o":"m 563 436 l 850 0 l 581 0 l 411 267 l 308 154 l 308 0 l 82 0 l 82 718 l 308 718 l 308 426 l 557 718 l 817 718 l 563 436 z "},"l":{"ha":392,"x_min":82,"x_max":308,"o":"m 308 0 l 82 0 l 82 1057 l 308 1057 l 308 0 z "},"ĺ":{"ha":392,"x_min":82,"x_max":479,"o":"m 111 1124 l 247 1289 l 479 1289 l 293 1124 l 111 1124 m 308 0 l 82 0 l 82 1057 l 308 1057 l 308 0 z "},"ľ":{"ha":478,"x_min":82,"x_max":546,"o":"m 444 1058 q 517 1026 489 1058 q 546 924 546 994 q 494 774 546 829 q 358 708 443 719 l 358 797 q 414 817 393 803 q 443 857 435 831 l 439 857 q 374 885 400 857 q 349 960 349 914 q 375 1033 349 1007 q 444 1058 401 1058 m 308 0 l 82 0 l 82 1057 l 308 1057 l 308 0 z "},"ļ":{"ha":392,"x_min":75,"x_max":326,"o":"m 82 0 l 82 1057 l 308 1057 l 308 0 l 82 0 m 192 -42 q 290 -74 253 -42 q 326 -169 326 -106 q 265 -293 326 -249 q 88 -339 204 -337 l 88 -254 q 196 -212 176 -250 l 190 -212 q 106 -190 138 -211 q 75 -131 75 -169 q 108 -66 75 -90 q 192 -42 140 -42 z "},"ŀ":{"ha":525,"x_min":82,"x_max":575,"o":"m 308 0 l 82 0 l 82 1057 l 308 1057 l 308 0 m 457 410 q 374 442 407 410 q 342 531 342 474 q 374 621 342 589 q 457 653 407 653 q 542 621 508 653 q 575 531 575 589 q 542 442 575 474 q 457 410 508 410 z "},"ł":{"ha":456,"x_min":15,"x_max":442,"o":"m 342 1057 l 342 715 l 442 776 l 442 547 l 342 486 l 342 0 l 115 0 l 115 347 l 15 288 l 15 517 l 115 576 l 115 1057 l 342 1057 z "},"m":{"ha":1225,"x_min":82,"x_max":1154,"o":"m 918 738 q 1089 657 1024 738 q 1154 425 1154 576 l 1154 0 l 935 0 l 935 349 q 913 488 935 436 q 838 539 892 539 q 757 486 785 539 q 729 339 729 433 l 729 0 l 508 0 l 508 349 q 487 488 508 436 q 413 539 465 539 q 331 486 360 539 q 303 339 303 433 l 303 0 l 82 0 l 82 718 l 276 718 q 289 615 283 644 q 492 738 358 738 q 617 700 563 738 q 701 590 672 663 q 918 738 771 738 z "},"ḿ":{"ha":1225,"x_min":82,"x_max":1154,"o":"m 540 804 l 671 1040 l 894 1040 l 714 804 l 540 804 m 918 738 q 1089 657 1024 738 q 1154 425 1154 576 l 1154 0 l 935 0 l 935 349 q 913 488 935 436 q 838 539 892 539 q 757 486 785 539 q 729 339 729 433 l 729 0 l 508 0 l 508 349 q 487 488 508 436 q 413 539 465 539 q 331 486 360 539 q 303 339 303 433 l 303 0 l 82 0 l 82 718 l 276 718 q 289 615 283 644 q 492 738 358 738 q 617 700 563 738 q 701 590 672 663 q 918 738 771 738 z "},"n":{"ha":856,"x_min":82,"x_max":783,"o":"m 524 738 q 715 658 646 738 q 783 425 783 579 l 783 0 l 557 0 l 557 349 q 530 489 557 439 q 440 539 503 539 q 343 486 378 539 q 308 339 308 433 l 308 0 l 82 0 l 82 718 l 283 718 q 296 607 286 649 q 524 738 365 738 z "},"ń":{"ha":856,"x_min":82,"x_max":783,"o":"m 338 804 l 468 1040 l 690 1040 l 511 804 l 338 804 m 524 738 q 715 658 646 738 q 783 425 783 579 l 783 0 l 557 0 l 557 349 q 530 489 557 439 q 440 539 503 539 q 343 486 378 539 q 308 339 308 433 l 308 0 l 82 0 l 82 718 l 283 718 q 296 607 286 649 q 524 738 365 738 z "},"ŉ":{"ha":856,"x_min":-10,"x_max":783,"o":"m 1 818 q 67 838 43 824 q 103 878 92 851 l 101 878 q 22 906 54 878 q -10 976 -10 935 q 21 1047 -10 1018 q 97 1076 51 1076 q 186 1042 150 1076 q 222 942 222 1007 q 160 799 222 856 q 1 731 99 742 l 1 818 m 524 738 q 715 658 646 738 q 783 425 783 579 l 783 0 l 554 0 l 554 349 q 528 490 554 440 q 440 539 503 539 q 343 486 378 539 q 308 339 308 433 l 308 0 l 82 0 l 82 718 l 283 718 q 296 607 286 649 q 524 738 365 738 z "},"ň":{"ha":856,"x_min":82,"x_max":783,"o":"m 356 1040 l 436 938 l 514 1040 l 701 1040 l 515 804 l 356 804 l 169 1040 l 356 1040 m 524 738 q 715 658 646 738 q 783 425 783 579 l 783 0 l 557 0 l 557 349 q 530 489 557 439 q 440 539 503 539 q 343 486 378 539 q 308 339 308 433 l 308 0 l 82 0 l 82 718 l 283 718 q 296 607 286 649 q 524 738 365 738 z "},"ņ":{"ha":856,"x_min":82,"x_max":783,"o":"m 524 738 q 715 658 646 738 q 783 425 783 579 l 783 0 l 557 0 l 557 349 q 530 489 557 439 q 440 539 503 539 q 343 486 378 539 q 308 339 308 433 l 308 0 l 82 0 l 82 718 l 283 718 q 296 607 286 649 q 524 738 365 738 m 428 -42 q 526 -74 489 -42 q 564 -169 564 -106 q 502 -292 564 -247 q 324 -339 440 -337 l 324 -256 q 433 -212 415 -249 l 426 -212 q 344 -190 375 -211 q 313 -131 313 -169 q 345 -66 313 -90 q 428 -42 378 -42 z "},"ǹ":{"ha":856,"x_min":82,"x_max":783,"o":"m 181 1040 l 404 1040 l 535 804 l 361 804 l 181 1040 m 524 738 q 715 658 646 738 q 783 425 783 579 l 783 0 l 557 0 l 557 349 q 530 489 557 439 q 440 539 503 539 q 343 486 378 539 q 308 339 308 433 l 308 0 l 82 0 l 82 718 l 283 718 q 296 607 286 649 q 524 738 365 738 z "},"ŋ":{"ha":856,"x_min":82,"x_max":783,"o":"m 524 738 q 715 658 646 738 q 783 425 783 579 l 783 -1 q 744 -190 783 -114 q 637 -302 704 -265 q 486 -339 569 -339 q 296 -274 375 -339 l 381 -115 q 463 -146 421 -146 q 536 -101 515 -146 q 557 19 557 -57 l 557 349 q 530 489 557 439 q 440 539 503 539 q 343 486 378 539 q 308 339 308 433 l 308 0 l 82 0 l 82 718 l 283 718 q 296 607 286 649 q 524 738 365 738 z "},"ñ":{"ha":856,"x_min":82,"x_max":783,"o":"m 153 824 q 205 983 156 922 q 335 1044 254 1044 q 413 1027 383 1044 q 474 979 443 1010 q 501 955 490 963 q 524 947 511 947 q 572 1022 560 947 l 719 1022 q 667 863 717 924 q 538 801 617 801 q 458 819 489 801 q 399 865 428 836 q 372 890 382 882 q 349 897 361 897 q 300 824 313 897 l 153 824 m 524 738 q 715 658 646 738 q 783 425 783 579 l 783 0 l 557 0 l 557 349 q 530 489 557 439 q 440 539 503 539 q 343 486 378 539 q 308 339 308 433 l 308 0 l 82 0 l 82 718 l 283 718 q 296 607 286 649 q 524 738 365 738 z "},"o":{"ha":840,"x_min":42,"x_max":797,"o":"m 42 360 q 94 560 42 474 q 233 692 146 646 q 421 738 321 738 q 608 692 521 738 q 746 560 694 646 q 797 360 797 474 q 746 159 797 244 q 608 28 694 74 q 421 -18 522 -18 q 233 28 319 -18 q 94 159 146 74 q 42 360 42 244 m 275 360 q 316 226 275 275 q 419 176 357 176 q 522 226 481 176 q 563 360 563 275 q 522 494 563 444 q 419 544 481 544 q 316 494 357 544 q 275 360 275 444 z "},"ó":{"ha":840,"x_min":42,"x_max":797,"o":"m 322 804 l 453 1040 l 676 1040 l 496 804 l 322 804 m 42 360 q 94 560 42 474 q 233 692 146 646 q 421 738 321 738 q 608 692 521 738 q 746 560 694 646 q 797 360 797 474 q 746 159 797 244 q 608 28 694 74 q 421 -18 522 -18 q 233 28 319 -18 q 94 159 146 74 q 42 360 42 244 m 275 360 q 316 226 275 275 q 419 176 357 176 q 522 226 481 176 q 563 360 563 275 q 522 494 563 444 q 419 544 481 544 q 316 494 357 544 q 275 360 275 444 z "},"ŏ":{"ha":840,"x_min":42,"x_max":797,"o":"m 421 804 q 232 868 303 804 q 161 1040 161 932 l 331 1040 q 421 938 342 938 q 513 1040 501 938 l 682 1040 q 611 868 682 932 q 421 804 540 804 m 42 360 q 94 560 42 474 q 233 692 146 646 q 421 738 321 738 q 608 692 521 738 q 746 560 694 646 q 797 360 797 474 q 746 159 797 244 q 608 28 694 74 q 421 -18 522 -18 q 233 28 319 -18 q 94 159 146 74 q 42 360 42 244 m 275 360 q 316 226 275 275 q 419 176 357 176 q 522 226 481 176 q 563 360 563 275 q 522 494 563 444 q 419 544 481 544 q 316 494 357 544 q 275 360 275 444 z "},"ǒ":{"ha":840,"x_min":42,"x_max":797,"o":"m 342 1040 l 421 938 l 500 1040 l 686 1040 l 500 804 l 340 804 l 154 1040 l 342 1040 m 42 360 q 94 560 42 474 q 233 692 146 646 q 421 738 321 738 q 608 692 521 738 q 746 560 694 646 q 797 360 797 474 q 746 159 797 244 q 608 28 694 74 q 421 -18 522 -18 q 233 28 319 -18 q 94 159 146 74 q 42 360 42 244 m 275 360 q 316 226 275 275 q 419 176 357 176 q 522 226 481 176 q 563 360 563 275 q 522 494 563 444 q 419 544 481 544 q 316 494 357 544 q 275 360 275 444 z "},"ô":{"ha":840,"x_min":42,"x_max":797,"o":"m 340 1040 l 500 1040 l 686 804 l 500 804 l 421 906 l 342 804 l 154 804 l 340 1040 m 42 360 q 94 560 42 474 q 233 692 146 646 q 421 738 321 738 q 608 692 521 738 q 746 560 694 646 q 797 360 797 474 q 746 159 797 244 q 608 28 694 74 q 421 -18 522 -18 q 233 28 319 -18 q 94 159 146 74 q 42 360 42 244 m 275 360 q 316 226 275 275 q 419 176 357 176 q 522 226 481 176 q 563 360 563 275 q 522 494 563 444 q 419 544 481 544 q 316 494 357 544 q 275 360 275 444 z "},"ố":{"ha":840,"x_min":42,"x_max":839,"o":"m 506 1076 l 622 1276 l 839 1276 l 678 1076 l 506 1076 m 336 1040 l 494 1040 l 682 804 l 494 804 l 415 906 l 336 804 l 149 804 l 336 1040 m 42 360 q 94 560 42 474 q 233 692 146 646 q 421 738 321 738 q 608 692 521 738 q 746 560 694 646 q 797 360 797 474 q 746 159 797 244 q 608 28 694 74 q 421 -18 522 -18 q 233 28 319 -18 q 94 159 146 74 q 42 360 42 244 m 275 360 q 316 226 275 275 q 419 176 357 176 q 522 226 481 176 q 563 360 563 275 q 522 494 563 444 q 419 544 481 544 q 316 494 357 544 q 275 360 275 444 z "},"ộ":{"ha":840,"x_min":42,"x_max":797,"o":"m 340 1040 l 500 1040 l 686 804 l 500 804 l 421 906 l 342 804 l 154 804 l 340 1040 m 42 360 q 94 560 42 474 q 233 692 146 646 q 421 738 321 738 q 608 692 521 738 q 746 560 694 646 q 797 360 797 474 q 746 159 797 244 q 608 28 694 74 q 421 -18 522 -18 q 233 28 319 -18 q 94 159 146 74 q 42 360 42 244 m 275 360 q 316 226 275 275 q 419 176 357 176 q 522 226 481 176 q 563 360 563 275 q 522 494 563 444 q 419 544 481 544 q 316 494 357 544 q 275 360 275 444 m 421 -331 q 328 -292 367 -331 q 290 -201 290 -254 q 328 -110 290 -149 q 421 -72 367 -72 q 513 -111 474 -72 q 553 -201 553 -150 q 514 -292 553 -254 q 421 -331 475 -331 z "},"ồ":{"ha":840,"x_min":42,"x_max":797,"o":"m 367 1276 l 583 1276 l 701 1076 l 528 1076 l 367 1276 m 336 1040 l 494 1040 l 682 804 l 494 804 l 415 906 l 336 804 l 149 804 l 336 1040 m 42 360 q 94 560 42 474 q 233 692 146 646 q 421 738 321 738 q 608 692 521 738 q 746 560 694 646 q 797 360 797 474 q 746 159 797 244 q 608 28 694 74 q 421 -18 522 -18 q 233 28 319 -18 q 94 159 146 74 q 42 360 42 244 m 275 360 q 316 226 275 275 q 419 176 357 176 q 522 226 481 176 q 563 360 563 275 q 522 494 563 444 q 419 544 481 544 q 316 494 357 544 q 275 360 275 444 z "},"ổ":{"ha":840,"x_min":42,"x_max":797,"o":"m 436 1244 q 596 1288 496 1288 q 731 1253 678 1288 q 785 1151 785 1219 q 738 1048 785 1089 q 608 982 690 1007 l 535 1074 q 628 1139 628 1103 q 613 1165 628 1154 q 574 1175 599 1175 q 465 1139 528 1175 l 436 1244 m 336 1025 l 494 1025 l 682 804 l 494 804 l 415 900 l 336 804 l 149 804 l 336 1025 m 42 360 q 94 560 42 474 q 233 692 146 646 q 421 738 321 738 q 608 692 521 738 q 746 560 694 646 q 797 360 797 474 q 746 159 797 244 q 608 28 694 74 q 421 -18 522 -18 q 233 28 319 -18 q 94 159 146 74 q 42 360 42 244 m 275 360 q 316 226 275 275 q 419 176 357 176 q 522 226 481 176 q 563 360 563 275 q 522 494 563 444 q 419 544 481 544 q 316 494 357 544 q 275 360 275 444 z "},"ỗ":{"ha":840,"x_min":42,"x_max":797,"o":"m 332 1149 q 283 1078 296 1149 l 136 1078 q 189 1228 139 1169 q 318 1286 239 1286 q 397 1269 367 1286 q 457 1225 428 1253 q 485 1201 475 1208 q 507 1194 494 1194 q 556 1265 543 1194 l 703 1265 q 650 1115 700 1174 q 521 1057 600 1057 q 442 1074 472 1057 q 382 1118 411 1090 q 354 1142 364 1135 q 332 1149 344 1149 m 340 1026 l 500 1026 l 686 804 l 499 804 l 421 900 l 340 804 l 153 804 l 340 1026 m 42 360 q 94 560 42 474 q 233 692 146 646 q 421 738 321 738 q 608 692 521 738 q 746 560 694 646 q 797 360 797 474 q 746 159 797 244 q 608 28 694 74 q 421 -18 522 -18 q 233 28 319 -18 q 94 159 146 74 q 42 360 42 244 m 275 360 q 316 226 275 275 q 419 176 357 176 q 522 226 481 176 q 563 360 563 275 q 522 494 563 444 q 419 544 481 544 q 316 494 357 544 q 275 360 275 444 z "},"ö":{"ha":840,"x_min":42,"x_max":797,"o":"m 258 803 q 178 838 211 803 q 144 922 144 874 q 178 1006 144 971 q 258 1040 211 1040 q 342 1006 308 1040 q 375 922 375 971 q 342 838 375 872 q 258 803 308 803 m 582 803 q 501 838 533 803 q 468 922 468 874 q 501 1006 468 971 q 582 1040 533 1040 q 665 1006 631 1040 q 699 922 699 971 q 665 838 699 874 q 582 803 631 803 m 42 360 q 94 560 42 474 q 233 692 146 646 q 421 738 321 738 q 608 692 521 738 q 746 560 694 646 q 797 360 797 474 q 746 159 797 244 q 608 28 694 74 q 421 -18 522 -18 q 233 28 319 -18 q 94 159 146 74 q 42 360 42 244 m 275 360 q 316 226 275 275 q 419 176 357 176 q 522 226 481 176 q 563 360 563 275 q 522 494 563 444 q 419 544 481 544 q 316 494 357 544 q 275 360 275 444 z "},"ọ":{"ha":840,"x_min":42,"x_max":797,"o":"m 42 360 q 94 560 42 474 q 233 692 146 646 q 421 738 321 738 q 608 692 521 738 q 746 560 694 646 q 797 360 797 474 q 746 159 797 244 q 608 28 694 74 q 421 -18 522 -18 q 233 28 319 -18 q 94 159 146 74 q 42 360 42 244 m 275 360 q 316 226 275 275 q 419 176 357 176 q 522 226 481 176 q 563 360 563 275 q 522 494 563 444 q 419 544 481 544 q 316 494 357 544 q 275 360 275 444 m 421 -331 q 328 -292 367 -331 q 290 -201 290 -254 q 328 -110 290 -149 q 421 -72 367 -72 q 513 -111 474 -72 q 553 -201 553 -150 q 514 -292 553 -254 q 421 -331 475 -331 z "},"ò":{"ha":840,"x_min":42,"x_max":797,"o":"m 167 1040 l 389 1040 l 519 804 l 346 804 l 167 1040 m 42 360 q 94 560 42 474 q 233 692 146 646 q 421 738 321 738 q 608 692 521 738 q 746 560 694 646 q 797 360 797 474 q 746 159 797 244 q 608 28 694 74 q 421 -18 522 -18 q 233 28 319 -18 q 94 159 146 74 q 42 360 42 244 m 275 360 q 316 226 275 275 q 419 176 357 176 q 522 226 481 176 q 563 360 563 275 q 522 494 563 444 q 419 544 481 544 q 316 494 357 544 q 275 360 275 444 z "},"ỏ":{"ha":840,"x_min":42,"x_max":797,"o":"m 236 1047 q 309 1081 267 1069 q 396 1093 351 1093 q 533 1056 479 1093 q 586 947 586 1019 q 410 767 586 822 l 336 864 q 406 896 382 879 q 429 933 429 913 q 414 961 429 951 q 374 971 399 971 q 265 932 325 971 l 236 1047 m 42 360 q 94 560 42 474 q 233 692 146 646 q 421 738 321 738 q 608 692 521 738 q 746 560 694 646 q 797 360 797 474 q 746 159 797 244 q 608 28 694 74 q 421 -18 522 -18 q 233 28 319 -18 q 94 159 146 74 q 42 360 42 244 m 275 360 q 316 226 275 275 q 419 176 357 176 q 522 226 481 176 q 563 360 563 275 q 522 494 563 444 q 419 544 481 544 q 316 494 357 544 q 275 360 275 444 z "},"ơ":{"ha":876,"x_min":42,"x_max":882,"o":"m 882 797 q 844 634 882 685 q 719 575 807 583 q 797 349 797 479 q 745 156 797 239 q 607 27 693 72 q 421 -18 521 -18 q 233 28 319 -18 q 94 159 146 74 q 42 360 42 244 q 95 560 42 475 q 239 692 149 646 q 439 738 329 738 q 550 726 486 738 q 628 718 603 718 q 680 735 665 718 q 694 808 694 753 q 685 897 694 854 l 871 897 q 882 797 882 853 m 421 176 q 522 226 482 176 q 563 360 563 275 q 522 494 563 444 q 421 544 482 544 q 317 494 358 544 q 275 360 275 444 q 316 226 275 275 q 421 176 357 176 z "},"ớ":{"ha":876,"x_min":42,"x_max":882,"o":"m 453 1040 l 676 1040 l 496 804 l 322 804 l 453 1040 m 882 797 q 844 634 882 685 q 719 575 807 583 q 797 349 797 479 q 745 156 797 239 q 607 27 693 72 q 421 -18 521 -18 q 233 28 319 -18 q 94 159 146 74 q 42 360 42 244 q 95 560 42 475 q 239 692 149 646 q 439 738 329 738 q 550 726 486 738 q 628 718 603 718 q 680 735 665 718 q 694 808 694 753 q 685 897 694 854 l 871 897 q 882 797 882 853 m 421 176 q 522 226 482 176 q 563 360 563 275 q 522 494 563 444 q 421 544 482 544 q 317 494 358 544 q 275 360 275 444 q 316 226 275 275 q 421 176 357 176 z "},"ợ":{"ha":876,"x_min":42,"x_max":882,"o":"m 882 797 q 844 634 882 685 q 719 575 807 583 q 797 349 797 479 q 745 156 797 239 q 607 27 693 72 q 421 -18 521 -18 q 233 28 319 -18 q 94 159 146 74 q 42 360 42 244 q 95 560 42 475 q 239 692 149 646 q 439 738 329 738 q 550 726 486 738 q 628 718 603 718 q 680 735 665 718 q 694 808 694 753 q 685 897 694 854 l 871 897 q 882 797 882 853 m 421 176 q 522 226 482 176 q 563 360 563 275 q 522 494 563 444 q 421 544 482 544 q 317 494 358 544 q 275 360 275 444 q 316 226 275 275 q 421 176 357 176 m 421 -72 q 513 -111 474 -72 q 553 -201 553 -150 q 514 -292 553 -254 q 421 -331 475 -331 q 328 -292 367 -331 q 290 -201 290 -254 q 328 -110 290 -149 q 421 -72 367 -72 z "},"ờ":{"ha":876,"x_min":42,"x_max":882,"o":"m 389 1040 l 519 804 l 346 804 l 167 1040 l 389 1040 m 882 797 q 844 634 882 685 q 719 575 807 583 q 797 349 797 479 q 745 156 797 239 q 607 27 693 72 q 421 -18 521 -18 q 233 28 319 -18 q 94 159 146 74 q 42 360 42 244 q 95 560 42 475 q 239 692 149 646 q 439 738 329 738 q 550 726 486 738 q 628 718 603 718 q 680 735 665 718 q 694 808 694 753 q 685 897 694 854 l 871 897 q 882 797 882 853 m 421 176 q 522 226 482 176 q 563 360 563 275 q 522 494 563 444 q 421 544 482 544 q 317 494 358 544 q 275 360 275 444 q 316 226 275 275 q 421 176 357 176 z "},"ở":{"ha":876,"x_min":42,"x_max":882,"o":"m 374 971 q 265 932 325 971 l 236 1047 q 309 1081 267 1069 q 396 1093 351 1093 q 533 1056 479 1093 q 586 947 586 1019 q 410 767 586 822 l 336 864 q 406 896 382 879 q 429 933 429 913 q 414 961 429 951 q 374 971 399 971 m 882 797 q 844 634 882 685 q 719 575 807 583 q 797 349 797 479 q 745 156 797 239 q 607 27 693 72 q 421 -18 521 -18 q 233 28 319 -18 q 94 159 146 74 q 42 360 42 244 q 95 560 42 475 q 239 692 149 646 q 439 738 329 738 q 550 726 486 738 q 628 718 603 718 q 680 735 665 718 q 694 808 694 753 q 685 897 694 854 l 871 897 q 882 797 882 853 m 421 176 q 522 226 482 176 q 563 360 563 275 q 522 494 563 444 q 421 544 482 544 q 317 494 358 544 q 275 360 275 444 q 316 226 275 275 q 421 176 357 176 z "},"ỡ":{"ha":876,"x_min":42,"x_max":882,"o":"m 333 897 q 285 822 297 897 l 138 822 q 190 982 140 921 q 319 1043 240 1043 q 399 1026 368 1043 q 458 979 429 1008 q 485 955 475 963 q 508 947 496 947 q 557 1022 544 947 l 704 1022 q 652 863 701 924 q 522 801 603 801 q 443 819 474 801 q 383 865 413 836 q 356 890 367 882 q 333 897 346 897 m 882 797 q 844 634 882 685 q 719 575 807 583 q 797 349 797 479 q 745 156 797 239 q 607 27 693 72 q 421 -18 521 -18 q 233 28 319 -18 q 94 159 146 74 q 42 360 42 244 q 95 560 42 475 q 239 692 149 646 q 439 738 329 738 q 550 726 486 738 q 628 718 603 718 q 680 735 665 718 q 694 808 694 753 q 685 897 694 854 l 871 897 q 882 797 882 853 m 421 176 q 522 226 482 176 q 563 360 563 275 q 522 494 563 444 q 421 544 482 544 q 317 494 358 544 q 275 360 275 444 q 316 226 275 275 q 421 176 357 176 z "},"ő":{"ha":840,"x_min":42,"x_max":810,"o":"m 211 804 l 340 1040 l 546 1040 l 367 804 l 211 804 m 475 804 l 604 1040 l 810 1040 l 631 804 l 475 804 m 42 360 q 94 560 42 474 q 233 692 146 646 q 421 738 321 738 q 608 692 521 738 q 746 560 694 646 q 797 360 797 474 q 746 159 797 244 q 608 28 694 74 q 421 -18 522 -18 q 233 28 319 -18 q 94 159 146 74 q 42 360 42 244 m 275 360 q 316 226 275 275 q 419 176 357 176 q 522 226 481 176 q 563 360 563 275 q 522 494 563 444 q 419 544 481 544 q 316 494 357 544 q 275 360 275 444 z "},"ō":{"ha":840,"x_min":42,"x_max":797,"o":"m 176 846 l 176 990 l 665 990 l 665 846 l 176 846 m 42 360 q 94 560 42 474 q 233 692 146 646 q 421 738 321 738 q 608 692 521 738 q 746 560 694 646 q 797 360 797 474 q 746 159 797 244 q 608 28 694 74 q 421 -18 522 -18 q 233 28 319 -18 q 94 159 146 74 q 42 360 42 244 m 275 360 q 316 226 275 275 q 419 176 357 176 q 522 226 481 176 q 563 360 563 275 q 522 494 563 444 q 419 544 481 544 q 316 494 357 544 q 275 360 275 444 z "},"ø":{"ha":832,"x_min":42,"x_max":797,"o":"m 615 768 l 797 768 l 696 624 q 797 360 797 519 q 746 159 797 244 q 608 28 694 74 q 421 -18 522 -18 q 268 13 342 -18 l 225 -49 l 42 -49 l 143 96 q 42 360 42 200 q 94 560 42 474 q 233 692 146 646 q 421 738 321 738 q 574 708 494 738 l 615 768 m 260 360 q 272 281 260 324 l 454 539 q 421 544 442 544 q 306 494 351 544 q 260 360 260 444 m 579 360 q 565 438 579 406 l 386 182 q 421 176 401 176 q 534 226 489 176 q 579 360 579 275 z "},"ǿ":{"ha":832,"x_min":42,"x_max":797,"o":"m 322 804 l 453 1040 l 676 1040 l 496 804 l 322 804 m 615 768 l 797 768 l 696 624 q 797 360 797 519 q 746 159 797 244 q 608 28 694 74 q 421 -18 522 -18 q 268 13 342 -18 l 225 -49 l 42 -49 l 143 96 q 42 360 42 200 q 94 560 42 474 q 233 692 146 646 q 421 738 321 738 q 574 708 494 738 l 615 768 m 260 360 q 272 281 260 324 l 454 539 q 421 544 442 544 q 306 494 351 544 q 260 360 260 444 m 579 360 q 565 438 579 406 l 386 182 q 421 176 401 176 q 534 226 489 176 q 579 360 579 275 z "},"õ":{"ha":840,"x_min":42,"x_max":797,"o":"m 138 822 q 190 982 140 921 q 319 1043 240 1043 q 399 1026 368 1043 q 458 979 429 1008 q 485 955 475 963 q 508 947 496 947 q 557 1022 544 947 l 704 1022 q 652 863 701 924 q 522 801 603 801 q 443 819 474 801 q 383 865 413 836 q 356 890 367 882 q 333 897 346 897 q 285 822 297 897 l 138 822 m 42 360 q 94 560 42 474 q 233 692 146 646 q 421 738 321 738 q 608 692 521 738 q 746 560 694 646 q 797 360 797 474 q 746 159 797 244 q 608 28 694 74 q 421 -18 522 -18 q 233 28 319 -18 q 94 159 146 74 q 42 360 42 244 m 275 360 q 316 226 275 275 q 419 176 357 176 q 522 226 481 176 q 563 360 563 275 q 522 494 563 444 q 419 544 481 544 q 316 494 357 544 q 275 360 275 444 z "},"œ":{"ha":1301,"x_min":42,"x_max":1267,"o":"m 939 738 q 1109 694 1035 738 q 1225 573 1183 651 q 1267 389 1267 494 q 1258 294 1267 344 l 799 294 q 851 202 814 235 q 943 169 889 169 q 1023 190 988 169 q 1075 251 1058 211 l 1240 153 q 1128 26 1210 71 q 946 -18 1046 -18 q 790 16 860 -18 q 674 119 719 50 q 562 17 631 53 q 411 -18 493 -18 q 231 28 315 -18 q 94 160 146 74 q 42 360 42 246 q 94 560 42 474 q 231 692 146 646 q 411 738 315 738 q 563 703 494 738 q 674 601 631 668 q 786 703 717 669 q 939 738 856 738 m 926 557 q 847 528 879 557 q 799 449 814 500 l 1038 449 q 1001 529 1032 501 q 926 557 971 557 m 421 176 q 522 226 482 176 q 563 360 563 275 q 522 494 563 444 q 421 544 482 544 q 317 494 358 544 q 275 360 275 444 q 316 226 275 275 q 421 176 357 176 z "},"p":{"ha":889,"x_min":82,"x_max":846,"o":"m 521 738 q 684 693 610 738 q 802 563 758 649 q 846 360 846 478 q 802 158 846 243 q 684 27 758 72 q 521 -18 610 -18 q 308 81 385 -18 l 308 -322 l 82 -322 l 82 718 l 283 718 q 293 617 289 640 q 390 708 332 678 q 521 738 449 738 m 463 181 q 571 228 529 181 q 613 360 613 276 q 571 496 613 444 q 463 547 529 547 q 353 499 397 547 q 308 360 308 450 q 352 225 308 269 q 463 181 396 181 z "},"þ":{"ha":889,"x_min":82,"x_max":846,"o":"m 521 738 q 684 693 610 738 q 802 563 758 649 q 846 360 846 478 q 802 158 846 243 q 684 27 758 72 q 521 -18 610 -18 q 308 81 385 -18 l 308 -322 l 82 -322 l 82 1057 l 308 1057 l 308 639 q 521 738 385 738 m 463 181 q 571 228 529 181 q 613 360 613 276 q 571 496 613 444 q 463 547 529 547 q 353 499 397 547 q 308 360 308 450 q 352 225 308 269 q 463 181 396 181 z "},"q":{"ha":888,"x_min":42,"x_max":806,"o":"m 806 718 l 806 -322 l 579 -322 l 579 81 q 368 -18 503 -18 q 203 27 278 -18 q 85 158 129 72 q 42 360 42 243 q 85 563 42 478 q 203 693 129 649 q 368 738 278 738 q 498 708 440 738 q 594 618 556 678 q 604 718 603 676 l 806 718 m 426 181 q 535 225 492 181 q 579 360 579 269 q 535 499 579 450 q 426 547 492 547 q 317 496 360 547 q 275 360 275 444 q 317 228 275 276 q 426 181 358 181 z "},"r":{"ha":633,"x_min":82,"x_max":644,"o":"m 501 738 q 585 724 546 738 q 644 688 625 710 l 557 515 q 468 544 513 544 q 351 483 394 544 q 308 318 308 422 l 308 0 l 82 0 l 82 718 l 283 718 q 296 607 286 650 q 381 704 328 671 q 501 738 435 738 z "},"ŕ":{"ha":633,"x_min":82,"x_max":644,"o":"m 253 804 l 383 1040 l 606 1040 l 426 804 l 253 804 m 501 738 q 585 724 546 738 q 644 688 625 710 l 557 515 q 468 544 513 544 q 351 483 394 544 q 308 318 308 422 l 308 0 l 82 0 l 82 718 l 283 718 q 296 607 286 650 q 381 704 328 671 q 501 738 435 738 z "},"ř":{"ha":633,"x_min":82,"x_max":644,"o":"m 271 1040 l 351 938 l 429 1040 l 617 1040 l 431 804 l 271 804 l 83 1040 l 271 1040 m 501 738 q 585 724 546 738 q 644 688 625 710 l 557 515 q 468 544 513 544 q 351 483 394 544 q 308 318 308 422 l 308 0 l 82 0 l 82 718 l 283 718 q 296 607 286 650 q 381 704 328 671 q 501 738 435 738 z "},"ŗ":{"ha":633,"x_min":75,"x_max":644,"o":"m 501 738 q 585 724 546 738 q 644 688 625 710 l 557 515 q 468 544 513 544 q 351 483 394 544 q 308 318 308 422 l 308 0 l 82 0 l 82 718 l 283 718 q 296 607 286 650 q 381 704 328 671 q 501 738 435 738 m 192 -42 q 290 -74 253 -42 q 326 -169 326 -106 q 265 -292 326 -247 q 88 -339 204 -337 l 88 -256 q 159 -242 132 -253 q 196 -212 186 -232 l 190 -212 q 106 -190 138 -211 q 75 -131 75 -169 q 108 -66 75 -90 q 192 -42 140 -42 z "},"s":{"ha":658,"x_min":7,"x_max":638,"o":"m 638 217 q 551 44 638 106 q 328 -18 464 -18 q 125 32 211 -18 q 7 169 39 82 l 171 265 q 231 190 189 217 q 329 163 274 163 q 385 174 364 163 q 406 208 406 186 q 376 250 406 235 q 278 286 346 265 q 156 328 204 307 q 74 390 108 349 q 39 496 39 431 q 81 626 39 571 q 192 709 122 681 q 343 738 261 738 q 535 689 457 738 q 633 561 613 640 l 469 469 q 342 557 429 557 q 290 544 308 557 q 271 510 271 531 q 299 469 271 483 q 393 436 328 456 q 515 394 465 417 q 601 329 565 372 q 638 217 638 286 z "},"ś":{"ha":658,"x_min":7,"x_max":638,"o":"m 239 804 l 369 1040 l 592 1040 l 413 804 l 239 804 m 638 217 q 551 44 638 106 q 328 -18 464 -18 q 125 32 211 -18 q 7 169 39 82 l 171 265 q 231 190 189 217 q 329 163 274 163 q 385 174 364 163 q 406 208 406 186 q 376 250 406 235 q 278 286 346 265 q 156 328 204 307 q 74 390 108 349 q 39 496 39 431 q 81 626 39 571 q 192 709 122 681 q 343 738 261 738 q 535 689 457 738 q 633 561 613 640 l 469 469 q 342 557 429 557 q 290 544 308 557 q 271 510 271 531 q 299 469 271 483 q 393 436 328 456 q 515 394 465 417 q 601 329 565 372 q 638 217 638 286 z "},"š":{"ha":658,"x_min":7,"x_max":638,"o":"m 257 1040 l 338 938 l 415 1040 l 603 1040 l 415 804 l 257 804 l 69 1040 l 257 1040 m 638 217 q 551 44 638 106 q 328 -18 464 -18 q 125 32 211 -18 q 7 169 39 82 l 171 265 q 231 190 189 217 q 329 163 274 163 q 385 174 364 163 q 406 208 406 186 q 376 250 406 235 q 278 286 346 265 q 156 328 204 307 q 74 390 108 349 q 39 496 39 431 q 81 626 39 571 q 192 709 122 681 q 343 738 261 738 q 535 689 457 738 q 633 561 613 640 l 469 469 q 342 557 429 557 q 290 544 308 557 q 271 510 271 531 q 299 469 271 483 q 393 436 328 456 q 515 394 465 417 q 601 329 565 372 q 638 217 638 286 z "},"ş":{"ha":658,"x_min":7,"x_max":638,"o":"m 638 217 q 565 55 638 115 q 372 -15 492 -6 l 343 -79 q 453 -112 410 -81 q 496 -204 496 -144 q 435 -306 496 -274 q 288 -339 375 -339 q 171 -321 228 -339 l 171 -218 q 281 -235 228 -235 q 349 -206 349 -235 q 331 -183 349 -192 q 283 -175 313 -175 q 200 -189 243 -175 l 186 -117 l 235 -8 q 92 54 151 8 q 7 169 32 100 l 171 265 q 231 190 189 217 q 329 163 274 163 q 385 174 364 163 q 406 208 406 186 q 376 250 406 235 q 278 286 346 265 q 156 328 204 307 q 74 390 108 349 q 39 496 39 431 q 81 626 39 571 q 192 709 122 681 q 343 738 261 738 q 535 689 457 738 q 633 561 613 640 l 469 469 q 342 557 429 557 q 290 544 308 557 q 271 510 271 531 q 299 469 271 483 q 393 436 328 456 q 515 394 465 417 q 601 329 565 372 q 638 217 638 286 z "},"ŝ":{"ha":658,"x_min":7,"x_max":638,"o":"m 257 1040 l 415 1040 l 603 804 l 415 804 l 338 906 l 257 804 l 69 804 l 257 1040 m 638 217 q 551 44 638 106 q 328 -18 464 -18 q 125 32 211 -18 q 7 169 39 82 l 171 265 q 231 190 189 217 q 329 163 274 163 q 385 174 364 163 q 406 208 406 186 q 376 250 406 235 q 278 286 346 265 q 156 328 204 307 q 74 390 108 349 q 39 496 39 431 q 81 626 39 571 q 192 709 122 681 q 343 738 261 738 q 535 689 457 738 q 633 561 613 640 l 469 469 q 342 557 429 557 q 290 544 308 557 q 271 510 271 531 q 299 469 271 483 q 393 436 328 456 q 515 394 465 417 q 601 329 565 372 q 638 217 638 286 z "},"ș":{"ha":658,"x_min":7,"x_max":638,"o":"m 271 510 q 299 469 271 483 q 393 436 328 456 q 515 394 465 417 q 601 329 565 372 q 638 217 638 286 q 551 44 638 106 q 328 -18 464 -18 q 125 32 211 -18 q 7 169 39 82 l 171 265 q 231 190 189 217 q 329 163 274 163 q 385 174 364 163 q 406 208 406 186 q 376 250 406 235 q 278 286 346 265 q 156 328 204 307 q 74 390 108 349 q 39 496 39 431 q 81 626 39 571 q 192 709 122 681 q 343 738 261 738 q 535 689 457 738 q 633 561 613 640 l 469 469 q 342 557 429 557 q 290 544 308 557 q 271 510 271 531 m 321 -42 q 419 -74 382 -42 q 456 -169 456 -106 q 394 -292 456 -247 q 217 -339 333 -337 l 217 -256 q 288 -242 261 -253 q 325 -212 315 -232 l 319 -212 q 235 -190 267 -211 q 204 -131 204 -169 q 237 -66 204 -90 q 321 -42 269 -42 z "},"ß":{"ha":888,"x_min":82,"x_max":857,"o":"m 661 536 q 803 449 749 510 q 857 281 857 388 q 764 60 857 138 q 517 -18 671 -18 q 375 6 429 -18 l 375 201 q 424 183 393 190 q 485 176 454 176 q 584 208 544 176 q 624 304 624 239 q 567 406 624 381 q 447 432 511 432 l 393 432 l 393 621 l 418 621 q 524 651 488 621 q 561 749 561 681 q 533 842 561 810 q 450 875 504 875 q 339 805 369 875 q 308 621 308 735 l 308 0 l 82 0 l 82 640 q 131 885 82 788 q 265 1028 181 982 q 457 1075 350 1075 q 633 1035 556 1075 q 753 926 710 996 q 796 765 796 856 q 661 536 796 604 z "},"ſ":{"ha":556,"x_min":6,"x_max":635,"o":"m 438 1076 q 553 1056 503 1076 q 635 1001 604 1036 l 549 843 q 457 882 507 882 q 381 840 408 882 q 354 713 354 799 l 354 0 l 125 0 l 125 529 l 6 529 l 6 718 l 125 718 l 125 735 q 167 926 125 849 q 281 1040 210 1003 q 438 1076 351 1076 z "},"t":{"ha":622,"x_min":1,"x_max":632,"o":"m 632 51 q 413 -18 554 -18 q 210 48 286 -18 q 133 282 133 114 l 133 528 l 1 528 l 1 718 l 133 718 l 133 949 l 360 949 l 360 718 l 579 718 l 579 528 l 360 528 l 360 322 q 381 215 360 253 q 460 176 401 176 q 553 208 507 176 l 632 51 z "},"ŧ":{"ha":622,"x_min":1,"x_max":632,"o":"m 632 51 q 413 -18 554 -18 q 209 49 286 -18 q 132 286 132 115 l 1 286 l 1 457 l 132 457 l 132 547 l 1 547 l 1 718 l 132 718 l 132 949 l 360 949 l 360 718 l 579 718 l 579 547 l 360 547 l 360 457 l 579 457 l 579 286 l 361 286 q 388 205 365 233 q 460 176 410 176 q 553 208 507 176 l 632 51 z "},"ť":{"ha":622,"x_min":1,"x_max":668,"o":"m 532 1224 q 628 1180 589 1224 q 668 1054 668 1136 q 601 874 668 946 q 428 789 535 803 l 428 900 q 538 974 517 911 l 533 974 q 450 1010 483 975 q 417 1097 417 1046 q 449 1187 417 1150 q 532 1224 482 1224 m 460 176 q 553 208 507 176 l 632 51 q 413 -18 554 -18 q 210 48 286 -18 q 133 282 133 114 l 133 528 l 1 528 l 1 718 l 133 718 l 133 949 l 360 949 l 360 718 l 579 718 l 579 528 l 360 528 l 360 322 q 381 215 360 253 q 460 176 401 176 z "},"ţ":{"ha":622,"x_min":1,"x_max":632,"o":"m 390 -81 q 500 -115 457 -83 q 543 -204 543 -146 q 483 -306 543 -274 q 335 -339 422 -339 q 218 -321 275 -339 l 218 -218 q 328 -236 281 -236 q 376 -229 358 -236 q 394 -207 394 -222 q 377 -185 394 -193 q 331 -176 360 -176 q 247 -190 290 -176 l 233 -118 l 288 0 q 133 282 133 56 l 133 528 l 1 528 l 1 718 l 133 718 l 133 949 l 360 949 l 360 718 l 579 718 l 579 528 l 360 528 l 360 322 q 381 215 360 253 q 460 176 401 176 q 553 208 507 176 l 632 51 q 418 -18 556 -17 l 390 -81 z "},"ț":{"ha":622,"x_min":1,"x_max":632,"o":"m 632 51 q 413 -18 554 -18 q 210 48 286 -18 q 133 282 133 114 l 133 528 l 1 528 l 1 718 l 133 718 l 133 949 l 360 949 l 360 718 l 579 718 l 579 528 l 360 528 l 360 322 q 381 215 360 253 q 460 176 401 176 q 553 208 507 176 l 632 51 m 367 -42 q 465 -74 428 -42 q 501 -169 501 -106 q 440 -292 501 -247 q 263 -339 379 -337 l 263 -256 q 334 -242 307 -253 q 371 -212 361 -232 l 365 -212 q 281 -190 313 -211 q 250 -131 250 -169 q 283 -66 250 -90 q 367 -42 315 -42 z "},"u":{"ha":854,"x_min":71,"x_max":771,"o":"m 544 718 l 771 718 l 771 0 l 571 0 l 568 31 q 558 111 563 93 q 333 -18 488 -18 q 141 61 211 -18 q 71 294 71 140 l 71 718 l 297 718 l 297 371 q 322 233 297 285 q 411 181 346 181 q 510 233 475 181 q 544 381 544 286 l 544 718 z "},"ú":{"ha":854,"x_min":71,"x_max":771,"o":"m 325 804 l 456 1040 l 679 1040 l 499 804 l 325 804 m 544 718 l 771 718 l 771 0 l 571 0 l 568 31 q 558 111 563 93 q 333 -18 488 -18 q 141 61 211 -18 q 71 294 71 140 l 71 718 l 297 718 l 297 371 q 322 233 297 285 q 411 181 346 181 q 510 233 475 181 q 544 381 544 286 l 544 718 z "},"ŭ":{"ha":854,"x_min":71,"x_max":771,"o":"m 424 804 q 235 868 306 804 q 164 1040 164 932 l 333 1040 q 424 938 344 938 q 515 1040 504 938 l 685 1040 q 614 868 685 932 q 424 804 543 804 m 544 718 l 771 718 l 771 0 l 571 0 l 568 31 q 558 111 563 93 q 333 -18 488 -18 q 141 61 211 -18 q 71 294 71 140 l 71 718 l 297 718 l 297 371 q 322 233 297 285 q 411 181 346 181 q 510 233 475 181 q 544 381 544 286 l 544 718 z "},"ǔ":{"ha":854,"x_min":71,"x_max":771,"o":"m 344 1040 l 424 938 l 503 1040 l 689 1040 l 503 804 l 343 804 l 157 1040 l 344 1040 m 544 718 l 771 718 l 771 0 l 571 0 l 568 31 q 558 111 563 93 q 333 -18 488 -18 q 141 61 211 -18 q 71 294 71 140 l 71 718 l 297 718 l 297 371 q 322 233 297 285 q 411 181 346 181 q 510 233 475 181 q 544 381 544 286 l 544 718 z "},"û":{"ha":854,"x_min":71,"x_max":771,"o":"m 343 1040 l 503 1040 l 689 804 l 503 804 l 424 906 l 344 804 l 157 804 l 343 1040 m 544 718 l 771 718 l 771 0 l 571 0 l 568 31 q 558 111 563 93 q 333 -18 488 -18 q 141 61 211 -18 q 71 294 71 140 l 71 718 l 297 718 l 297 371 q 322 233 297 285 q 411 181 346 181 q 510 233 475 181 q 544 381 544 286 l 544 718 z "},"ü":{"ha":854,"x_min":71,"x_max":771,"o":"m 261 803 q 181 838 214 803 q 147 922 147 874 q 181 1006 147 971 q 261 1040 214 1040 q 344 1006 311 1040 q 378 922 378 971 q 344 838 378 874 q 261 803 310 803 m 585 803 q 503 838 536 803 q 471 922 471 874 q 503 1006 471 971 q 585 1040 536 1040 q 667 1006 633 1040 q 701 922 701 971 q 667 838 701 874 q 585 803 633 803 m 544 718 l 771 718 l 771 0 l 571 0 l 568 31 q 558 111 563 93 q 333 -18 488 -18 q 141 61 211 -18 q 71 294 71 140 l 71 718 l 297 718 l 297 371 q 322 233 297 285 q 411 181 346 181 q 510 233 475 181 q 544 381 544 286 l 544 718 z "},"ǘ":{"ha":854,"x_min":71,"x_max":771,"o":"m 325 1076 l 443 1276 l 660 1276 l 499 1076 l 325 1076 m 261 803 q 181 838 214 803 q 147 922 147 874 q 181 1006 147 971 q 261 1040 214 1040 q 344 1006 311 1040 q 378 922 378 971 q 344 838 378 874 q 261 803 310 803 m 585 803 q 503 838 536 803 q 471 922 471 874 q 503 1006 471 971 q 585 1040 536 1040 q 667 1006 633 1040 q 701 922 701 971 q 667 838 701 874 q 585 803 633 803 m 544 718 l 771 718 l 771 0 l 571 0 l 568 31 q 558 111 563 93 q 333 -18 488 -18 q 141 61 211 -18 q 71 294 71 140 l 71 718 l 297 718 l 297 371 q 322 233 297 285 q 411 181 346 181 q 510 233 475 181 q 544 381 544 286 l 544 718 z "},"ǚ":{"ha":854,"x_min":71,"x_max":771,"o":"m 344 1276 l 424 1190 l 501 1276 l 689 1276 l 503 1076 l 343 1076 l 157 1276 l 344 1276 m 261 803 q 181 838 214 803 q 147 922 147 874 q 181 1006 147 971 q 261 1040 214 1040 q 344 1006 311 1040 q 378 922 378 971 q 344 838 378 874 q 261 803 310 803 m 585 803 q 503 838 536 803 q 471 922 471 874 q 503 1006 471 971 q 585 1040 536 1040 q 667 1006 633 1040 q 701 922 701 971 q 667 838 701 874 q 585 803 633 803 m 544 718 l 771 718 l 771 0 l 571 0 l 568 31 q 558 111 563 93 q 333 -18 488 -18 q 141 61 211 -18 q 71 294 71 140 l 71 718 l 297 718 l 297 371 q 322 233 297 285 q 411 181 346 181 q 510 233 475 181 q 544 381 544 286 l 544 718 z "},"ǜ":{"ha":854,"x_min":71,"x_max":771,"o":"m 188 1276 l 404 1276 l 522 1076 l 349 1076 l 188 1276 m 261 803 q 181 838 214 803 q 147 922 147 874 q 181 1006 147 971 q 261 1040 214 1040 q 344 1006 311 1040 q 378 922 378 971 q 344 838 378 874 q 261 803 310 803 m 585 803 q 503 838 536 803 q 471 922 471 874 q 503 1006 471 971 q 585 1040 536 1040 q 667 1006 633 1040 q 701 922 701 971 q 667 838 701 874 q 585 803 633 803 m 544 718 l 771 718 l 771 0 l 571 0 l 568 31 q 558 111 563 93 q 333 -18 488 -18 q 141 61 211 -18 q 71 294 71 140 l 71 718 l 297 718 l 297 371 q 322 233 297 285 q 411 181 346 181 q 510 233 475 181 q 544 381 544 286 l 544 718 z "},"ǖ":{"ha":854,"x_min":71,"x_max":771,"o":"m 179 1104 l 179 1249 l 668 1249 l 668 1104 l 179 1104 m 261 803 q 181 838 214 803 q 147 922 147 874 q 181 1006 147 971 q 261 1040 214 1040 q 344 1006 311 1040 q 378 922 378 971 q 344 838 378 874 q 261 803 310 803 m 585 803 q 503 838 536 803 q 471 922 471 874 q 503 1006 471 971 q 585 1040 536 1040 q 667 1006 633 1040 q 701 922 701 971 q 667 838 701 874 q 585 803 633 803 m 544 718 l 771 718 l 771 0 l 571 0 l 568 31 q 558 111 563 93 q 333 -18 488 -18 q 141 61 211 -18 q 71 294 71 140 l 71 718 l 297 718 l 297 371 q 322 233 297 285 q 411 181 346 181 q 510 233 475 181 q 544 381 544 286 l 544 718 z "},"ụ":{"ha":854,"x_min":71,"x_max":771,"o":"m 544 718 l 771 718 l 771 0 l 571 0 l 568 31 q 558 111 563 93 q 333 -18 488 -18 q 141 61 211 -18 q 71 294 71 140 l 71 718 l 297 718 l 297 371 q 322 233 297 285 q 411 181 346 181 q 510 233 475 181 q 544 381 544 286 l 544 718 m 431 -331 q 338 -292 376 -331 q 299 -201 299 -254 q 338 -110 299 -149 q 431 -72 376 -72 q 523 -111 483 -72 q 563 -201 563 -150 q 524 -292 563 -254 q 431 -331 485 -331 z "},"ù":{"ha":854,"x_min":71,"x_max":771,"o":"m 169 1040 l 392 1040 l 522 804 l 349 804 l 169 1040 m 544 718 l 771 718 l 771 0 l 571 0 l 568 31 q 558 111 563 93 q 333 -18 488 -18 q 141 61 211 -18 q 71 294 71 140 l 71 718 l 297 718 l 297 371 q 322 233 297 285 q 411 181 346 181 q 510 233 475 181 q 544 381 544 286 l 544 718 z "},"ủ":{"ha":854,"x_min":71,"x_max":771,"o":"m 239 1047 q 312 1081 269 1069 q 399 1093 354 1093 q 535 1056 482 1093 q 589 947 589 1019 q 413 767 589 822 l 339 864 q 408 896 385 879 q 432 933 432 913 q 417 961 432 951 q 376 971 401 971 q 268 933 329 971 l 239 1047 m 544 718 l 771 718 l 771 0 l 571 0 l 568 31 q 558 111 563 93 q 333 -18 488 -18 q 141 61 211 -18 q 71 294 71 140 l 71 718 l 297 718 l 297 371 q 322 233 297 285 q 411 181 346 181 q 510 233 475 181 q 544 381 544 286 l 544 718 z "},"ư":{"ha":931,"x_min":71,"x_max":983,"o":"m 983 797 q 964 675 983 721 q 898 605 944 629 q 771 574 851 581 l 771 0 l 571 0 l 568 31 q 558 111 563 93 q 333 -18 488 -18 q 141 61 211 -18 q 71 294 71 140 l 71 718 l 297 718 l 297 371 q 322 233 297 285 q 411 181 346 181 q 510 233 475 181 q 544 381 544 286 l 544 718 l 646 718 q 742 725 713 719 q 784 749 772 731 q 796 808 796 768 q 786 897 796 854 l 972 897 q 983 797 983 853 z "},"ứ":{"ha":931,"x_min":71,"x_max":983,"o":"m 325 804 l 456 1040 l 679 1040 l 499 804 l 325 804 m 983 797 q 964 675 983 721 q 898 605 944 629 q 771 574 851 581 l 771 0 l 571 0 l 568 31 q 558 111 563 93 q 333 -18 488 -18 q 141 61 211 -18 q 71 294 71 140 l 71 718 l 297 718 l 297 371 q 322 233 297 285 q 411 181 346 181 q 510 233 475 181 q 544 381 544 286 l 544 718 l 646 718 q 742 725 713 719 q 784 749 772 731 q 796 808 796 768 q 786 897 796 854 l 972 897 q 983 797 983 853 z "},"ự":{"ha":931,"x_min":71,"x_max":983,"o":"m 983 797 q 964 675 983 721 q 898 605 944 629 q 771 574 851 581 l 771 0 l 571 0 l 568 31 q 558 111 563 93 q 333 -18 488 -18 q 141 61 211 -18 q 71 294 71 140 l 71 718 l 297 718 l 297 371 q 322 233 297 285 q 411 181 346 181 q 510 233 475 181 q 544 381 544 286 l 544 718 l 646 718 q 742 725 713 719 q 784 749 772 731 q 796 808 796 768 q 786 897 796 854 l 972 897 q 983 797 983 853 m 431 -331 q 338 -292 376 -331 q 299 -201 299 -254 q 338 -110 299 -149 q 431 -72 376 -72 q 523 -111 483 -72 q 563 -201 563 -150 q 524 -292 563 -254 q 431 -331 485 -331 z "},"ừ":{"ha":931,"x_min":71,"x_max":983,"o":"m 169 1040 l 392 1040 l 522 804 l 349 804 l 169 1040 m 983 797 q 964 675 983 721 q 898 605 944 629 q 771 574 851 581 l 771 0 l 571 0 l 568 31 q 558 111 563 93 q 333 -18 488 -18 q 141 61 211 -18 q 71 294 71 140 l 71 718 l 297 718 l 297 371 q 322 233 297 285 q 411 181 346 181 q 510 233 475 181 q 544 381 544 286 l 544 718 l 646 718 q 742 725 713 719 q 784 749 772 731 q 796 808 796 768 q 786 897 796 854 l 972 897 q 983 797 983 853 z "},"ử":{"ha":931,"x_min":71,"x_max":983,"o":"m 239 1047 q 312 1081 269 1069 q 399 1093 354 1093 q 535 1056 482 1093 q 589 947 589 1019 q 413 767 589 822 l 339 864 q 408 896 385 879 q 432 933 432 913 q 417 961 432 951 q 376 971 401 971 q 268 933 329 971 l 239 1047 m 983 797 q 964 675 983 721 q 898 605 944 629 q 771 574 851 581 l 771 0 l 571 0 l 568 31 q 558 111 563 93 q 333 -18 488 -18 q 141 61 211 -18 q 71 294 71 140 l 71 718 l 297 718 l 297 371 q 322 233 297 285 q 411 181 346 181 q 510 233 475 181 q 544 381 544 286 l 544 718 l 646 718 q 742 725 713 719 q 784 749 772 731 q 796 808 796 768 q 786 897 796 854 l 972 897 q 983 797 983 853 z "},"ữ":{"ha":931,"x_min":71,"x_max":983,"o":"m 140 824 q 193 983 143 921 q 322 1044 243 1044 q 401 1027 371 1044 q 461 979 431 1010 q 488 955 478 963 q 511 947 499 947 q 560 1022 547 947 l 707 1022 q 655 863 704 924 q 525 801 606 801 q 446 819 476 801 q 386 865 415 836 q 359 890 369 882 q 336 897 349 897 q 288 824 300 897 l 140 824 m 983 797 q 964 675 983 721 q 898 605 944 629 q 771 574 851 581 l 771 0 l 571 0 l 568 31 q 558 111 563 93 q 333 -18 488 -18 q 141 61 211 -18 q 71 294 71 140 l 71 718 l 297 718 l 297 371 q 322 233 297 285 q 411 181 346 181 q 510 233 475 181 q 544 381 544 286 l 544 718 l 646 718 q 742 725 713 719 q 784 749 772 731 q 796 808 796 768 q 786 897 796 854 l 972 897 q 983 797 983 853 z "},"ű":{"ha":854,"x_min":71,"x_max":813,"o":"m 214 804 l 343 1040 l 549 1040 l 369 804 l 214 804 m 478 804 l 607 1040 l 813 1040 l 633 804 l 478 804 m 544 718 l 771 718 l 771 0 l 571 0 l 568 31 q 558 111 563 93 q 333 -18 488 -18 q 141 61 211 -18 q 71 294 71 140 l 71 718 l 297 718 l 297 371 q 322 233 297 285 q 411 181 346 181 q 510 233 475 181 q 544 381 544 286 l 544 718 z "},"ū":{"ha":854,"x_min":71,"x_max":771,"o":"m 179 846 l 179 990 l 668 990 l 668 846 l 179 846 m 544 718 l 771 718 l 771 0 l 571 0 l 568 31 q 558 111 563 93 q 333 -18 488 -18 q 141 61 211 -18 q 71 294 71 140 l 71 718 l 297 718 l 297 371 q 322 233 297 285 q 411 181 346 181 q 510 233 475 181 q 544 381 544 286 l 544 718 z "},"ų":{"ha":854,"x_min":71,"x_max":863,"o":"m 863 -261 q 778 -319 824 -300 q 669 -339 733 -339 q 525 -298 581 -339 q 469 -178 469 -257 q 571 1 469 -79 l 568 31 q 558 111 563 90 q 333 -18 488 -18 q 141 61 211 -18 q 71 294 71 140 l 71 718 l 297 718 l 297 371 q 322 233 297 285 q 411 181 346 181 q 510 233 475 181 q 544 381 544 286 l 544 718 l 771 718 l 771 0 q 659 -74 696 -37 q 622 -150 622 -110 q 686 -204 622 -204 q 741 -193 715 -204 q 794 -156 767 -182 l 863 -261 z "},"ů":{"ha":854,"x_min":71,"x_max":771,"o":"m 247 960 q 298 1083 247 1035 q 424 1132 349 1132 q 547 1083 499 1132 q 596 960 596 1035 q 547 835 596 883 q 424 786 499 786 q 298 835 349 786 q 247 960 247 883 m 363 960 q 380 914 363 932 q 424 896 397 896 q 466 913 450 896 q 482 960 482 931 q 466 1006 482 989 q 424 1024 450 1024 q 380 1006 397 1024 q 363 960 363 988 m 544 718 l 771 718 l 771 0 l 571 0 l 568 31 q 558 111 563 93 q 333 -18 488 -18 q 141 61 211 -18 q 71 294 71 140 l 71 718 l 297 718 l 297 371 q 322 233 297 285 q 411 181 346 181 q 510 233 475 181 q 544 381 544 286 l 544 718 z "},"ũ":{"ha":854,"x_min":71,"x_max":771,"o":"m 140 824 q 193 983 143 921 q 322 1044 243 1044 q 401 1027 371 1044 q 461 979 431 1010 q 488 955 478 963 q 511 947 499 947 q 560 1022 547 947 l 707 1022 q 655 863 704 924 q 525 801 606 801 q 446 819 476 801 q 386 865 415 836 q 359 890 369 882 q 336 897 349 897 q 288 824 300 897 l 140 824 m 544 718 l 771 718 l 771 0 l 571 0 l 568 31 q 558 111 563 93 q 333 -18 488 -18 q 141 61 211 -18 q 71 294 71 140 l 71 718 l 297 718 l 297 371 q 322 233 297 285 q 411 181 346 181 q 510 233 475 181 q 544 381 544 286 l 544 718 z "},"v":{"ha":818,"x_min":1,"x_max":817,"o":"m 253 718 l 421 283 l 579 718 l 817 718 l 506 1 l 321 1 l 1 718 l 253 718 z "},"w":{"ha":1169,"x_min":1,"x_max":1168,"o":"m 688 718 l 821 313 l 947 718 l 1168 718 l 903 1 l 739 1 l 588 400 l 442 1 l 276 1 l 1 718 l 235 718 l 369 304 l 494 718 l 688 718 z "},"ẃ":{"ha":1169,"x_min":1,"x_max":1168,"o":"m 511 804 l 640 1040 l 864 1040 l 683 804 l 511 804 m 688 718 l 821 313 l 947 718 l 1168 718 l 903 1 l 739 1 l 588 400 l 442 1 l 276 1 l 1 718 l 235 718 l 369 304 l 494 718 l 688 718 z "},"ŵ":{"ha":1169,"x_min":1,"x_max":1168,"o":"m 528 1040 l 688 1040 l 874 804 l 688 804 l 608 906 l 529 804 l 342 804 l 528 1040 m 688 718 l 821 313 l 947 718 l 1168 718 l 903 1 l 739 1 l 588 400 l 442 1 l 276 1 l 1 718 l 235 718 l 369 304 l 494 718 l 688 718 z "},"ẅ":{"ha":1169,"x_min":1,"x_max":1168,"o":"m 446 803 q 365 838 399 803 q 332 922 332 874 q 365 1006 332 971 q 446 1040 399 1040 q 530 1006 496 1040 q 564 922 564 971 q 530 838 564 874 q 446 803 496 803 m 769 803 q 688 838 721 803 q 656 922 656 874 q 688 1006 656 971 q 769 1040 721 1040 q 852 1006 818 1040 q 886 922 886 971 q 852 838 886 874 q 769 803 818 803 m 688 718 l 821 313 l 947 718 l 1168 718 l 903 1 l 739 1 l 588 400 l 442 1 l 276 1 l 1 718 l 235 718 l 369 304 l 494 718 l 688 718 z "},"ẁ":{"ha":1169,"x_min":1,"x_max":1168,"o":"m 354 1040 l 576 1040 l 707 804 l 533 804 l 354 1040 m 688 718 l 821 313 l 947 718 l 1168 718 l 903 1 l 739 1 l 588 400 l 442 1 l 276 1 l 1 718 l 235 718 l 369 304 l 494 718 l 688 718 z "},"x":{"ha":774,"x_min":1,"x_max":772,"o":"m 390 528 l 525 718 l 772 718 l 507 365 l 772 0 l 515 0 l 382 192 l 249 0 l 1 0 l 265 354 l 1 718 l 258 718 l 390 528 z "},"y":{"ha":821,"x_min":0,"x_max":819,"o":"m 581 718 l 819 718 l 501 -79 q 371 -278 447 -217 q 186 -339 294 -339 q 82 -323 131 -339 q 0 -279 33 -307 l 88 -108 q 183 -140 135 -140 q 256 -115 228 -140 q 318 -15 283 -89 l 1 718 l 253 718 l 426 261 l 581 718 z "},"ý":{"ha":821,"x_min":0,"x_max":819,"o":"m 446 1040 l 668 1040 l 489 804 l 315 804 l 446 1040 m 581 718 l 819 718 l 501 -79 q 371 -278 447 -217 q 186 -339 294 -339 q 82 -323 131 -339 q 0 -279 33 -307 l 88 -108 q 183 -140 135 -140 q 256 -115 228 -140 q 318 -15 283 -89 l 1 718 l 253 718 l 426 261 l 581 718 z "},"ŷ":{"ha":821,"x_min":0,"x_max":819,"o":"m 492 804 l 414 906 l 333 804 l 146 804 l 333 1040 l 492 1040 l 679 804 l 492 804 m 581 718 l 819 718 l 501 -79 q 371 -278 447 -217 q 186 -339 294 -339 q 82 -323 131 -339 q 0 -279 33 -307 l 88 -108 q 183 -140 135 -140 q 256 -115 228 -140 q 318 -15 283 -89 l 1 718 l 253 718 l 426 261 l 581 718 z "},"ÿ":{"ha":821,"x_min":0,"x_max":819,"o":"m 250 803 q 171 838 204 803 q 138 922 138 874 q 170 1006 138 971 q 250 1040 203 1040 q 334 1006 300 1040 q 368 922 368 971 q 334 838 368 874 q 250 803 300 803 m 575 803 q 493 838 526 803 q 460 922 460 874 q 493 1006 460 971 q 575 1040 526 1040 q 656 1006 622 1040 q 690 922 690 971 q 656 838 690 874 q 575 803 622 803 m 581 718 l 819 718 l 501 -79 q 371 -278 447 -217 q 186 -339 294 -339 q 82 -323 131 -339 q 0 -279 33 -307 l 88 -108 q 183 -140 135 -140 q 256 -115 228 -140 q 318 -15 283 -89 l 1 718 l 253 718 l 426 261 l 581 718 z "},"ỵ":{"ha":821,"x_min":0,"x_max":819,"o":"m 581 718 l 819 718 l 501 -79 q 371 -278 447 -217 q 186 -339 294 -339 q 82 -323 131 -339 q 0 -279 33 -307 l 88 -108 q 183 -140 135 -140 q 256 -115 228 -140 q 318 -15 283 -89 l 1 718 l 253 718 l 426 261 l 581 718 m 682 -72 q 775 -111 735 -72 q 815 -201 815 -150 q 776 -292 815 -254 q 682 -331 738 -331 q 590 -292 628 -331 q 551 -201 551 -254 q 590 -110 551 -149 q 682 -72 628 -72 z "},"ỳ":{"ha":821,"x_min":0,"x_max":819,"o":"m 382 1040 l 511 804 l 339 804 l 158 1040 l 382 1040 m 581 718 l 819 718 l 501 -79 q 371 -278 447 -217 q 186 -339 294 -339 q 82 -323 131 -339 q 0 -279 33 -307 l 88 -108 q 183 -140 135 -140 q 256 -115 228 -140 q 318 -15 283 -89 l 1 718 l 253 718 l 426 261 l 581 718 z "},"ỷ":{"ha":821,"x_min":0,"x_max":819,"o":"m 367 971 q 258 933 319 971 l 229 1047 q 301 1081 260 1069 q 388 1093 343 1093 q 524 1056 471 1093 q 578 947 578 1019 q 401 767 578 822 l 328 864 q 397 896 374 879 q 421 933 421 913 q 406 961 421 951 q 367 971 392 971 m 581 718 l 819 718 l 501 -79 q 371 -278 447 -217 q 186 -339 294 -339 q 82 -323 131 -339 q 0 -279 33 -307 l 88 -108 q 183 -140 135 -140 q 256 -115 228 -140 q 318 -15 283 -89 l 1 718 l 253 718 l 426 261 l 581 718 z "},"ỹ":{"ha":821,"x_min":0,"x_max":819,"o":"m 325 897 q 278 824 290 897 l 131 824 q 183 983 133 922 q 313 1044 232 1044 q 390 1027 360 1044 q 451 979 419 1010 q 478 955 468 963 q 501 947 489 947 q 549 1022 536 947 l 697 1022 q 644 863 694 924 q 514 801 594 801 q 436 819 467 801 q 376 865 406 836 q 349 890 360 882 q 325 897 338 897 m 581 718 l 819 718 l 501 -79 q 371 -278 447 -217 q 186 -339 294 -339 q 82 -323 131 -339 q 0 -279 33 -307 l 88 -108 q 183 -140 135 -140 q 256 -115 228 -140 q 318 -15 283 -89 l 1 718 l 253 718 l 426 261 l 581 718 z "},"z":{"ha":676,"x_min":35,"x_max":647,"o":"m 624 717 l 624 583 l 324 178 l 647 178 l 647 0 l 35 0 l 35 136 l 335 539 l 57 539 l 57 717 l 624 717 z "},"ź":{"ha":676,"x_min":35,"x_max":647,"o":"m 250 804 l 381 1040 l 603 1040 l 424 804 l 250 804 m 624 717 l 624 583 l 324 178 l 647 178 l 647 0 l 35 0 l 35 136 l 335 539 l 67 539 l 67 717 l 624 717 z "},"ž":{"ha":676,"x_min":35,"x_max":647,"o":"m 268 1040 l 349 938 l 426 1040 l 614 1040 l 426 804 l 268 804 l 81 1040 l 268 1040 m 624 717 l 624 583 l 324 178 l 647 178 l 647 0 l 35 0 l 35 136 l 335 539 l 67 539 l 67 717 l 624 717 z "},"ż":{"ha":676,"x_min":35,"x_max":647,"o":"m 349 794 q 256 834 294 794 q 217 928 217 874 q 255 1023 217 983 q 349 1063 293 1063 q 441 1022 401 1063 q 481 928 481 982 q 442 834 481 874 q 349 794 403 794 m 624 717 l 624 583 l 324 178 l 647 178 l 647 0 l 35 0 l 35 136 l 335 539 l 67 539 l 67 717 l 624 717 z "},"ª":{"ha":624,"x_min":40,"x_max":560,"o":"m 303 1024 q 492 951 425 1024 q 560 754 560 878 l 560 458 l 413 458 l 404 517 q 342 463 379 481 q 251 444 306 444 q 101 491 161 444 q 40 617 40 538 q 72 715 40 672 q 157 780 104 757 q 272 803 210 803 q 385 782 329 803 q 354 859 379 833 q 288 885 329 885 q 186 817 219 885 l 64 889 q 157 988 94 951 q 303 1024 219 1024 m 282 574 q 353 596 321 574 q 388 656 386 618 q 293 681 338 681 q 237 665 258 681 q 215 625 215 649 q 234 588 215 601 q 282 574 253 574 z "},"º":{"ha":649,"x_min":35,"x_max":614,"o":"m 35 735 q 75 888 35 822 q 182 989 115 954 q 326 1024 249 1024 q 469 989 403 1024 q 574 888 535 954 q 614 735 614 822 q 574 580 614 646 q 469 479 535 514 q 326 444 403 444 q 182 479 249 444 q 75 580 115 514 q 35 735 35 646 m 215 735 q 246 632 215 669 q 325 594 276 594 q 401 633 371 594 q 432 735 432 671 q 401 837 432 799 q 325 875 371 875 q 246 837 276 875 q 215 735 215 799 z "},"ⁿ":{"ha":678,"x_min":75,"x_max":614,"o":"m 414 1024 q 560 963 507 1024 q 614 785 614 903 l 614 458 l 436 458 l 436 725 q 417 834 436 796 q 349 872 397 872 q 276 832 301 872 q 250 718 250 792 l 250 458 l 75 458 l 75 1010 l 229 1010 q 233 971 231 997 q 239 925 235 944 q 414 1024 292 1024 z "},"А":{"ha":1039,"x_min":8,"x_max":1032,"o":"m 619 1017 l 1032 0 l 782 0 l 704 206 l 319 206 l 244 0 l 8 0 l 410 1017 l 619 1017 m 629 404 l 508 721 l 393 404 l 629 404 z "},"Б":{"ha":964,"x_min":100,"x_max":915,"o":"m 525 621 q 811 539 707 621 q 915 310 915 457 q 812 81 915 163 q 525 0 708 0 l 100 0 l 100 1017 l 831 1017 l 831 813 l 338 813 l 338 621 l 525 621 m 511 206 q 628 233 586 206 q 669 311 669 261 q 628 390 669 363 q 511 418 586 418 l 338 418 l 338 206 l 511 206 z "},"В":{"ha":963,"x_min":100,"x_max":915,"o":"m 757 526 q 915 296 915 463 q 811 78 915 157 q 525 0 707 0 l 100 0 l 100 1017 l 490 1017 q 760 943 654 1017 q 865 729 865 869 q 757 526 865 593 m 332 813 l 332 613 l 471 613 q 579 642 539 613 q 619 719 619 671 q 581 789 619 765 q 471 813 542 813 l 332 813 m 511 206 q 628 233 586 206 q 669 310 669 260 q 627 388 669 360 q 510 417 585 417 l 332 417 l 332 206 l 511 206 z "},"Г":{"ha":789,"x_min":100,"x_max":781,"o":"m 100 1017 l 781 1017 l 781 807 l 338 807 l 338 0 l 100 0 l 100 1017 z "},"Ѓ":{"ha":789,"x_min":100,"x_max":781,"o":"m 358 1103 l 489 1289 l 711 1289 l 532 1103 l 358 1103 m 100 1017 l 781 1017 l 781 807 l 338 807 l 338 0 l 100 0 l 100 1017 z "},"Ґ":{"ha":801,"x_min":100,"x_max":813,"o":"m 100 1017 l 578 1017 l 608 1232 l 813 1232 l 785 807 l 338 807 l 338 0 l 100 0 l 100 1017 z "},"Д":{"ha":1163,"x_min":18,"x_max":1146,"o":"m 1000 210 l 1146 210 l 1129 -239 l 925 -239 l 917 0 l 247 0 l 239 -239 l 35 -239 l 18 210 l 75 210 q 178 240 139 210 q 239 343 217 271 q 272 544 261 415 l 314 1017 l 1000 1017 l 1000 210 m 763 210 l 763 807 l 528 807 l 501 515 q 425 210 485 308 l 763 210 z "},"Е":{"ha":853,"x_min":100,"x_max":797,"o":"m 735 410 l 338 410 l 338 206 l 797 206 l 797 0 l 100 0 l 100 1017 l 781 1017 l 781 813 l 338 813 l 338 613 l 735 613 l 735 410 z "},"Ѐ":{"ha":853,"x_min":100,"x_max":797,"o":"m 153 1289 l 385 1289 l 521 1104 l 339 1104 l 153 1289 m 735 410 l 338 410 l 338 206 l 797 206 l 797 0 l 100 0 l 100 1017 l 781 1017 l 781 813 l 338 813 l 338 613 l 735 613 l 735 410 z "},"Ё":{"ha":853,"x_min":100,"x_max":797,"o":"m 272 1096 q 192 1124 225 1096 q 158 1193 158 1153 q 192 1260 158 1232 q 272 1289 225 1289 q 355 1260 321 1289 q 389 1193 389 1232 q 356 1124 389 1153 q 272 1096 322 1096 m 596 1096 q 514 1125 547 1096 q 481 1193 481 1154 q 514 1260 481 1232 q 596 1289 547 1289 q 678 1260 643 1289 q 713 1193 713 1232 q 678 1124 713 1153 q 596 1096 643 1096 m 735 410 l 338 410 l 338 206 l 797 206 l 797 0 l 100 0 l 100 1017 l 781 1017 l 781 813 l 338 813 l 338 613 l 735 613 l 735 410 z "},"Ж":{"ha":1569,"x_min":-3,"x_max":1560,"o":"m 1229 518 l 1560 0 l 1279 0 l 1032 403 l 897 403 l 897 0 l 660 0 l 660 403 l 525 403 l 279 0 l -3 0 l 328 518 l 13 1017 l 278 1017 l 524 614 l 660 614 l 660 1017 l 897 1017 l 897 614 l 1035 614 l 1281 1017 l 1544 1017 l 1229 518 z "},"З":{"ha":849,"x_min":31,"x_max":801,"o":"m 625 525 q 801 278 801 457 q 696 60 801 138 q 414 -18 590 -18 q 167 42 261 -18 q 31 221 72 101 l 217 329 q 410 192 272 192 q 513 222 474 192 q 551 304 551 251 q 498 393 551 364 q 336 422 444 422 l 303 422 l 303 614 l 358 614 q 478 646 438 614 q 518 729 518 678 q 488 800 518 774 q 401 826 457 826 q 221 689 278 826 l 43 792 q 178 974 81 911 q 421 1038 276 1038 q 604 1001 525 1038 q 726 900 683 965 q 769 750 769 835 q 733 616 769 674 q 625 525 696 558 z "},"И":{"ha":1068,"x_min":100,"x_max":968,"o":"m 778 1017 l 968 1017 l 968 0 l 751 0 l 751 632 l 290 0 l 100 0 l 100 1017 l 317 1017 l 317 385 l 778 1017 z "},"Й":{"ha":1068,"x_min":100,"x_max":968,"o":"m 535 1101 q 346 1152 417 1101 q 275 1289 275 1203 l 446 1289 q 535 1208 457 1208 q 625 1289 617 1208 l 796 1289 q 725 1151 796 1201 q 535 1101 654 1101 m 778 1017 l 968 1017 l 968 0 l 751 0 l 751 632 l 290 0 l 100 0 l 100 1017 l 317 1017 l 317 385 l 778 1017 z "},"Ѝ":{"ha":1068,"x_min":100,"x_max":968,"o":"m 281 1289 l 503 1289 l 633 1103 l 460 1103 l 281 1289 m 778 1017 l 968 1017 l 968 0 l 751 0 l 751 632 l 290 0 l 100 0 l 100 1017 l 317 1017 l 317 385 l 778 1017 z "},"К":{"ha":1040,"x_min":100,"x_max":1031,"o":"m 672 518 l 1031 0 l 747 0 l 478 403 l 338 403 l 338 0 l 100 0 l 100 1017 l 338 1017 l 338 614 l 482 614 l 750 1017 l 1017 1017 l 672 518 z "},"Ќ":{"ha":1040,"x_min":100,"x_max":1031,"o":"m 444 1104 l 581 1289 l 813 1289 l 626 1104 l 444 1104 m 672 518 l 1031 0 l 747 0 l 478 403 l 338 403 l 338 0 l 100 0 l 100 1017 l 338 1017 l 338 614 l 482 614 l 750 1017 l 1017 1017 l 672 518 z "},"Л":{"ha":1082,"x_min":19,"x_max":982,"o":"m 982 1017 l 982 0 l 744 0 l 744 807 l 435 807 l 410 372 q 356 129 400 214 q 233 13 313 44 q 19 -18 153 -18 l 19 199 q 115 217 82 199 q 160 277 147 235 q 178 401 174 319 l 217 1017 l 982 1017 z "},"М":{"ha":1228,"x_min":100,"x_max":1129,"o":"m 950 1017 l 1129 1017 l 1129 0 l 904 0 l 904 603 l 675 275 l 554 275 l 322 606 l 322 0 l 100 0 l 100 1017 l 283 1017 l 618 526 l 950 1017 z "},"Н":{"ha":1094,"x_min":100,"x_max":994,"o":"m 338 632 l 757 632 l 757 1017 l 994 1017 l 994 0 l 757 0 l 757 422 l 338 422 l 338 0 l 100 0 l 100 1017 l 338 1017 l 338 632 z "},"О":{"ha":1100,"x_min":53,"x_max":1047,"o":"m 53 510 q 119 790 53 671 q 299 973 185 910 q 550 1036 413 1036 q 801 973 688 1036 q 981 790 914 910 q 1047 510 1047 671 q 981 228 1047 347 q 801 45 914 108 q 550 -18 688 -18 q 298 45 411 -18 q 119 228 185 108 q 53 510 53 347 m 303 510 q 334 346 303 417 q 422 237 365 275 q 550 199 478 199 q 678 237 622 199 q 765 346 733 275 q 796 510 796 417 q 765 672 796 601 q 678 780 733 742 q 550 818 622 818 q 422 780 478 818 q 334 672 365 742 q 303 510 303 601 z "},"П":{"ha":1085,"x_min":100,"x_max":985,"o":"m 100 1017 l 985 1017 l 985 0 l 747 0 l 747 807 l 338 807 l 338 0 l 100 0 l 100 1017 z "},"Р":{"ha":913,"x_min":100,"x_max":886,"o":"m 468 1017 q 690 974 596 1017 q 835 854 785 932 q 886 672 886 776 q 835 490 886 568 q 690 370 785 413 q 468 328 596 328 l 338 328 l 338 0 l 100 0 l 100 1017 l 468 1017 m 442 528 q 582 561 528 528 q 636 672 636 594 q 581 783 636 749 q 442 817 526 817 l 338 817 l 338 528 l 442 528 z "},"С":{"ha":965,"x_min":53,"x_max":944,"o":"m 546 200 q 746 344 683 200 l 944 228 q 868 105 922 161 q 733 15 814 49 q 551 -18 651 -18 q 300 47 414 -18 q 119 233 186 113 q 53 510 53 353 q 119 786 53 667 q 300 971 186 906 q 551 1036 414 1036 q 733 1003 651 1036 q 868 913 814 969 q 944 790 922 857 l 746 674 q 546 818 683 818 q 423 781 478 818 q 335 674 368 744 q 303 510 303 604 q 335 344 303 415 q 423 237 368 274 q 546 200 478 200 z "},"Т":{"ha":869,"x_min":10,"x_max":860,"o":"m 10 1017 l 860 1017 l 860 807 l 554 807 l 554 0 l 315 0 l 315 807 l 10 807 l 10 1017 z "},"У":{"ha":982,"x_min":8,"x_max":972,"o":"m 508 536 l 722 1017 l 972 1017 l 615 285 q 522 122 567 185 q 410 20 476 58 q 246 -18 343 -18 q 81 21 150 -18 l 81 240 q 233 200 157 200 q 321 219 286 200 q 388 289 356 239 l 8 1017 l 276 1017 l 508 536 z "},"Ў":{"ha":982,"x_min":8,"x_max":972,"o":"m 500 1101 q 311 1152 382 1101 q 240 1289 240 1203 l 411 1289 q 500 1208 422 1208 q 590 1289 582 1208 l 761 1289 q 690 1151 761 1201 q 500 1101 619 1101 m 508 536 l 722 1017 l 972 1017 l 615 285 q 522 122 567 185 q 410 20 476 58 q 246 -18 343 -18 q 81 21 150 -18 l 81 240 q 233 200 157 200 q 321 219 286 200 q 388 289 356 239 l 8 1017 l 276 1017 l 508 536 z "},"Ф":{"ha":1203,"x_min":40,"x_max":1163,"o":"m 1163 510 q 1103 313 1163 399 q 943 174 1044 226 q 717 103 842 121 l 717 0 l 488 0 l 488 103 q 259 172 360 119 q 99 311 158 225 q 40 510 40 397 q 99 707 40 621 q 260 846 158 793 q 488 915 361 899 l 488 1017 l 717 1017 l 717 915 q 944 844 843 897 q 1103 706 1044 792 q 1163 510 1163 621 m 286 510 q 340 388 286 436 q 488 324 393 340 l 488 696 q 340 631 393 679 q 286 510 286 583 m 717 324 q 863 388 810 340 q 915 510 915 436 q 863 631 915 583 q 717 696 810 679 l 717 324 z "},"Х":{"ha":1029,"x_min":3,"x_max":1025,"o":"m 1007 1017 l 651 524 l 1025 0 l 732 0 l 506 331 l 275 0 l 3 0 l 376 518 l 21 1017 l 311 1017 l 521 711 l 733 1017 l 1007 1017 z "},"Ч":{"ha":1014,"x_min":51,"x_max":914,"o":"m 676 1017 l 914 1017 l 914 0 l 676 0 l 676 390 q 436 318 586 318 q 155 413 258 318 q 51 700 51 508 l 51 1017 l 289 1017 l 289 750 q 333 585 289 635 q 474 535 376 535 q 621 583 565 535 q 676 751 676 631 l 676 1017 z "},"Ц":{"ha":1172,"x_min":100,"x_max":1131,"o":"m 985 1017 l 985 210 l 1131 210 l 1115 -239 l 910 -239 l 901 0 l 100 0 l 100 1017 l 338 1017 l 338 210 l 747 210 l 747 1017 l 985 1017 z "},"Ш":{"ha":1467,"x_min":100,"x_max":1367,"o":"m 853 210 l 1131 210 l 1131 1017 l 1367 1017 l 1367 0 l 100 0 l 100 1017 l 338 1017 l 338 210 l 615 210 l 615 1017 l 851 1017 l 853 210 z "},"Щ":{"ha":1554,"x_min":100,"x_max":1511,"o":"m 1131 1017 l 1367 1017 l 1367 210 l 1511 210 l 1496 -239 l 1290 -239 l 1282 0 l 100 0 l 100 1017 l 338 1017 l 338 210 l 615 210 l 615 1017 l 851 1017 l 853 210 l 1131 210 l 1131 1017 z "},"Џ":{"ha":1085,"x_min":100,"x_max":985,"o":"m 338 210 l 747 210 l 747 1017 l 985 1017 l 985 0 l 654 0 l 646 -239 l 440 -239 l 432 0 l 100 0 l 100 1017 l 338 1017 l 338 210 z "},"Ь":{"ha":953,"x_min":100,"x_max":915,"o":"m 525 649 q 812 564 708 649 q 915 322 915 479 q 812 83 915 167 q 525 0 708 0 l 100 0 l 100 1017 l 338 1017 l 338 649 l 525 649 m 511 206 q 627 238 585 206 q 669 322 669 269 q 627 410 669 378 q 511 442 585 442 l 338 442 l 338 206 l 511 206 z "},"Ъ":{"ha":1146,"x_min":10,"x_max":1108,"o":"m 718 649 q 1005 564 901 649 q 1108 322 1108 479 q 1005 83 1108 167 q 718 0 901 0 l 292 0 l 292 813 l 10 813 l 10 1017 l 529 1017 l 529 649 l 718 649 m 703 206 q 819 238 776 206 q 861 322 861 269 q 819 410 861 378 q 703 442 776 442 l 529 442 l 529 206 l 703 206 z "},"Ы":{"ha":1372,"x_min":100,"x_max":1272,"o":"m 525 649 q 812 564 708 649 q 915 322 915 479 q 812 83 915 167 q 525 0 708 0 l 100 0 l 100 1017 l 338 1017 l 338 649 l 525 649 m 1272 0 l 1035 0 l 1035 1017 l 1272 1017 l 1272 0 m 511 206 q 627 238 585 206 q 669 322 669 269 q 627 410 669 378 q 511 442 585 442 l 338 442 l 338 206 l 511 206 z "},"Љ":{"ha":1597,"x_min":19,"x_max":1561,"o":"m 1171 649 q 1458 564 1354 649 q 1561 322 1561 479 q 1458 83 1561 167 q 1171 0 1354 0 l 744 0 l 744 807 l 435 807 l 410 371 q 356 128 400 213 q 233 13 313 44 q 19 -18 153 -18 l 19 199 q 115 217 82 199 q 160 277 147 235 q 178 401 174 319 l 217 1017 l 982 1017 l 982 649 l 1171 649 m 1156 206 q 1272 238 1229 206 q 1314 322 1314 269 q 1272 410 1314 378 q 1156 442 1229 442 l 982 442 l 982 206 l 1156 206 z "},"Њ":{"ha":1615,"x_min":100,"x_max":1578,"o":"m 1188 632 q 1475 551 1372 632 q 1578 315 1578 471 q 1475 80 1578 160 q 1188 0 1372 0 l 757 0 l 757 422 l 338 422 l 338 0 l 100 0 l 100 1017 l 338 1017 l 338 632 l 757 632 l 757 1017 l 994 1017 l 994 632 l 1188 632 m 1172 206 q 1288 235 1246 206 q 1331 315 1331 265 q 1288 396 1331 367 q 1172 425 1246 425 l 994 425 l 994 206 l 1172 206 z "},"Ѕ":{"ha":835,"x_min":7,"x_max":808,"o":"m 808 299 q 749 115 808 186 q 601 13 690 44 q 419 -18 513 -18 q 163 47 279 -18 q 7 233 46 111 l 199 343 q 288 233 229 272 q 428 194 347 194 q 524 217 488 194 q 561 285 561 240 q 536 344 561 319 q 473 383 511 368 q 368 419 435 399 q 206 480 269 450 q 96 569 142 510 q 50 722 50 628 q 105 897 50 826 q 248 1002 160 968 q 438 1036 336 1036 q 671 975 571 1036 q 800 801 771 914 l 606 692 q 537 789 583 754 q 424 824 490 824 q 331 799 367 824 q 296 732 296 774 q 341 661 296 686 q 482 607 386 636 q 649 546 583 576 q 761 456 714 515 q 808 299 808 396 z "},"Є":{"ha":964,"x_min":53,"x_max":944,"o":"m 543 190 q 746 339 683 190 l 944 228 q 868 105 922 161 q 733 15 814 49 q 551 -18 651 -18 q 300 47 414 -18 q 119 233 186 113 q 53 510 53 353 q 119 786 53 667 q 300 971 186 906 q 551 1036 414 1036 q 733 1003 651 1036 q 868 913 814 969 q 944 790 922 857 l 746 679 q 543 828 683 828 q 394 774 457 828 q 311 613 332 719 l 626 613 l 626 419 l 310 419 q 391 249 328 307 q 543 190 454 190 z "},"Э":{"ha":964,"x_min":19,"x_max":910,"o":"m 431 1036 q 683 972 575 1036 q 851 788 792 907 q 910 510 910 669 q 851 231 910 350 q 683 47 792 111 q 431 -18 575 -18 q 239 15 325 -18 q 97 105 153 49 q 19 228 40 161 l 218 339 q 432 190 281 190 q 580 247 522 190 q 654 419 638 304 l 338 419 l 338 613 l 653 613 q 578 774 635 721 q 432 828 521 828 q 218 679 281 828 l 19 790 q 97 913 40 857 q 239 1003 153 969 q 431 1036 325 1036 z "},"І":{"ha":438,"x_min":100,"x_max":338,"o":"m 338 0 l 100 0 l 100 1017 l 338 1017 l 338 0 z "},"Ї":{"ha":438,"x_min":-58,"x_max":496,"o":"m 56 1096 q -25 1124 8 1096 q -58 1193 -58 1153 q -25 1260 -58 1232 q 56 1289 8 1289 q 138 1260 104 1289 q 172 1193 172 1232 q 139 1124 172 1153 q 56 1096 106 1096 m 379 1096 q 297 1125 331 1096 q 264 1193 264 1154 q 297 1260 264 1232 q 379 1289 331 1289 q 461 1260 426 1289 q 496 1193 496 1232 q 461 1124 496 1153 q 379 1096 426 1096 m 338 0 l 100 0 l 100 1017 l 338 1017 l 338 0 z "},"Ј":{"ha":768,"x_min":0,"x_max":679,"o":"m 322 -18 q 114 40 201 -18 q 0 219 26 99 l 199 324 q 244 230 214 261 q 325 199 274 199 q 415 248 389 199 q 440 404 440 297 l 440 1017 l 679 1017 l 679 381 q 578 75 679 168 q 322 -18 478 -18 z "},"Ћ":{"ha":1232,"x_min":10,"x_max":1179,"o":"m 796 631 q 1076 535 974 631 q 1179 249 1179 440 l 1179 0 l 943 0 l 943 199 q 899 365 943 315 q 758 414 856 414 q 610 366 667 414 q 554 197 554 318 l 554 0 l 315 0 l 315 807 l 10 807 l 10 1017 l 860 1017 l 860 807 l 554 807 l 554 560 q 796 631 646 631 z "},"Ю":{"ha":1486,"x_min":100,"x_max":1433,"o":"m 968 1036 q 1203 975 1097 1036 q 1372 795 1310 914 q 1433 510 1433 676 q 1372 222 1433 342 q 1203 42 1310 103 q 968 -18 1097 -18 q 751 33 850 -18 q 588 183 653 83 q 508 422 524 282 l 338 422 l 338 0 l 100 0 l 100 1017 l 338 1017 l 338 632 l 514 632 q 599 852 535 761 q 759 990 664 943 q 968 1036 854 1036 m 968 199 q 1125 280 1067 199 q 1183 510 1183 361 q 1124 737 1183 656 q 968 818 1065 818 q 810 738 869 818 q 750 510 750 657 q 810 281 750 363 q 968 199 869 199 z "},"Я":{"ha":979,"x_min":0,"x_max":879,"o":"m 274 394 q 142 511 188 438 q 96 681 96 585 q 146 857 96 781 q 290 975 196 933 q 510 1017 383 1017 l 879 1017 l 879 0 l 642 0 l 642 344 l 514 344 l 507 344 l 282 1 l 0 0 l 274 394 m 538 817 q 347 681 347 817 q 403 574 347 606 q 538 543 458 543 l 642 543 l 642 817 l 538 817 z "},"Ђ":{"ha":1251,"x_min":10,"x_max":1214,"o":"m 828 632 q 1108 546 1001 632 q 1214 297 1214 460 q 1117 63 1214 143 q 850 -18 1021 -18 q 768 -14 810 -18 l 768 188 q 803 186 781 186 q 926 215 885 186 q 968 301 968 244 q 928 390 968 358 q 804 422 888 422 q 628 367 701 422 q 554 179 554 311 l 554 0 l 315 0 l 315 807 l 10 807 l 10 1017 l 860 1017 l 860 807 l 554 807 l 554 550 q 828 632 661 632 z "},"Ѣ":{"ha":1074,"x_min":-7,"x_max":1036,"o":"m 646 601 q 934 527 832 601 q 1036 303 1036 453 q 934 76 1036 151 q 646 0 832 0 l 221 0 l 221 717 l -7 717 l -7 896 l 221 896 l 221 1017 l 457 1017 l 457 896 l 772 896 l 772 717 l 457 717 l 457 601 l 646 601 m 631 196 q 749 223 707 196 q 790 303 790 250 q 749 385 790 357 q 631 414 707 414 l 457 414 l 457 196 l 631 196 z "},"Ѳ":{"ha":1100,"x_min":54,"x_max":1047,"o":"m 550 1036 q 800 971 686 1036 q 981 786 914 906 q 1047 510 1047 667 q 981 231 1047 351 q 800 47 914 111 q 550 -18 686 -18 q 299 47 413 -18 q 120 231 186 111 q 54 510 54 351 q 120 786 54 667 q 299 971 186 906 q 550 1036 413 1036 m 550 824 q 399 767 463 824 q 314 611 336 710 l 785 611 q 699 767 761 710 q 550 824 638 824 m 550 193 q 701 251 639 193 q 785 411 764 310 l 314 411 q 399 251 336 310 q 550 193 461 193 z "},"Ѵ":{"ha":1129,"x_min":8,"x_max":1154,"o":"m 971 1036 q 1074 1019 1032 1036 q 1154 974 1117 1001 l 1081 790 q 1003 818 1042 818 q 945 796 968 818 q 899 717 922 774 l 607 0 l 424 0 l 8 1017 l 279 1017 l 524 357 l 674 764 q 802 978 732 919 q 971 1036 872 1036 z "},"Ғ":{"ha":794,"x_min":0,"x_max":786,"o":"m 106 1017 l 786 1017 l 786 810 l 342 810 l 342 588 l 517 588 l 517 382 l 342 382 l 342 0 l 106 0 l 106 382 l 0 382 l 0 588 l 106 588 l 106 1017 z "},"Қ":{"ha":1029,"x_min":100,"x_max":1063,"o":"m 1017 1017 l 672 518 l 888 210 l 1063 210 l 1046 -239 l 840 -239 l 833 0 l 747 0 l 478 403 l 338 403 l 338 0 l 100 0 l 100 1017 l 338 1017 l 338 614 l 482 614 l 750 1017 l 1017 1017 z "},"Ҝ":{"ha":1043,"x_min":100,"x_max":1046,"o":"m 747 518 l 1046 0 l 782 0 l 561 403 l 532 403 l 532 214 l 379 214 l 379 403 l 318 403 l 318 0 l 100 0 l 100 1017 l 318 1017 l 318 614 l 379 614 l 379 803 l 532 803 l 532 614 l 565 614 l 783 1017 l 1031 1017 l 747 518 z "},"Ң":{"ha":1182,"x_min":100,"x_max":1140,"o":"m 994 1017 l 994 210 l 1140 210 l 1124 -239 l 919 -239 l 911 0 l 757 0 l 757 422 l 338 422 l 338 0 l 100 0 l 100 1017 l 338 1017 l 338 632 l 757 632 l 757 1017 l 994 1017 z "},"Ү":{"ha":982,"x_min":8,"x_max":972,"o":"m 504 619 l 717 1017 l 972 1017 l 618 388 l 618 0 l 379 0 l 379 386 l 8 1017 l 285 1017 l 504 619 z "},"Ұ":{"ha":982,"x_min":8,"x_max":972,"o":"m 504 619 l 717 1017 l 972 1017 l 703 538 l 885 538 l 885 328 l 618 328 l 618 0 l 379 0 l 379 328 l 111 328 l 111 538 l 290 538 l 8 1017 l 285 1017 l 504 619 z "},"Ҳ":{"ha":1029,"x_min":3,"x_max":1047,"o":"m 1007 1017 l 650 526 l 876 210 l 1047 210 l 1031 -239 l 826 -239 l 818 0 l 733 0 l 507 329 l 275 0 l 3 0 l 378 515 l 21 1017 l 311 1017 l 519 713 l 733 1017 l 1007 1017 z "},"Ҹ":{"ha":1014,"x_min":51,"x_max":914,"o":"m 683 1017 l 914 1017 l 914 0 l 676 0 l 676 390 q 563 335 626 349 l 563 144 l 410 144 l 410 318 q 147 420 243 325 q 51 700 51 515 l 51 1017 l 282 1017 l 282 750 q 313 607 282 657 q 410 543 343 557 l 410 732 l 563 732 l 563 542 q 653 606 622 557 q 683 751 683 654 l 683 1017 z "}}}
